Lato-Regular.ufo
<glyph name="exclam" format="2">
  <advance width="538.0"/>
  <unicode hex="0021"/>
  <guideline x="365.76"/>
  <outline>
    <contour>
      <point x="185.26" y="1432.4" type="line"/>
      <point x="185.26" y="860.4" type="line" smooth="yes"/>
      <point x="185.26" y="740.24"/>
      <point x="194.82" y="638.32"/>
      <point x="209.62" y="499.76" type="curve"/>
      <point x="330.38" y="499.76" type="line"/>
      <point x="345.18" y="638.32"/>
      <point x="354.74" y="740.24"/>
      <point x="354.74" y="860.4" type="curve" smooth="yes"/>
      <point x="354.74" y="1432.4" type="line"/>
    </contour>
    <contour>
      <point x="142.06" y="109.56" type="curve" smooth="yes"/>
      <point x="142.06" y="39.0"/>
      <point x="195.98" y="-14.92"/>
      <point x="266.54" y="-14.92" type="curve" smooth="yes"/>
      <point x="336.02" y="-14.92"/>
      <point x="391.94" y="39.0"/>
      <point x="391.94" y="109.56" type="curve" smooth="yes"/>
      <point x="391.94" y="179.04000000000002"/>
      <point x="336.02" y="234.96"/>
      <point x="266.54" y="234.96" type="curve" smooth="yes"/>
      <point x="195.98" y="234.96"/>
      <point x="142.06" y="179.04000000000002"/>
    </contour>
  </outline>
</glyph>
<glyph name="numbersign" format="2">
  <advance width="1160.0"/>
  <unicode hex="0023"/>
  <outline>
    <contour>
      <point x="260.64" y="502.08" type="line"/>
      <point x="260.64" y="468.32" type="line"/>
      <point x="167.44" y="0.0" type="line"/>
      <point x="246.56" y="0.0" type="line" smooth="yes"/>
      <point x="284.8" y="0.0"/>
      <point x="319.96000000000004" y="19.12"/>
      <point x="328.44" y="67.84" type="curve"/>
      <point x="407.92" y="468.32" type="line"/>
      <point x="407.92" y="502.08" type="line"/>
      <point x="493.88" y="935.72" type="line"/>
      <point x="493.88" y="969.64" type="line"/>
      <point x="586.0" y="1432.4" type="line"/>
      <point x="505.64" y="1432.4" type="line" smooth="yes"/>
      <point x="466.48" y="1432.4"/>
      <point x="434.56" y="1408.96"/>
      <point x="427.15999999999997" y="1368.88" type="curve"/>
      <point x="346.6" y="969.64" type="line"/>
      <point x="346.6" y="935.72" type="line"/>
    </contour>
    <contour>
      <point x="654.88" y="502.08" type="line"/>
      <point x="654.88" y="468.32" type="line"/>
      <point x="575.4" y="76.48" type="line"/>
      <point x="566.0" y="33.32"/>
      <point x="593.6" y="0.0"/>
      <point x="628.44" y="0.0" type="curve" smooth="yes"/>
      <point x="708.96" y="0.0" type="line"/>
      <point x="802.16" y="468.32" type="line"/>
      <point x="802.16" y="502.08" type="line"/>
      <point x="888.12" y="935.72" type="line"/>
      <point x="888.12" y="969.64" type="line"/>
      <point x="968.6800000000001" y="1365.96" type="line"/>
      <point x="975.92" y="1404.8"/>
      <point x="950.32" y="1432.4"/>
      <point x="912.08" y="1432.4" type="curve"/>
      <point x="832.96" y="1432.4" type="line"/>
      <point x="740.84" y="969.64" type="line"/>
      <point x="740.84" y="935.72" type="line"/>
    </contour>
    <contour>
      <point x="1030.32" y="423.28" type="line"/>
      <point x="1038.96" y="480.04" type="line" smooth="yes"/>
      <point x="1046.52" y="533.4"/>
      <point x="1028.64" y="553.6"/>
      <point x="991.48" y="553.6" type="curve" smooth="yes"/>
      <point x="67.36" y="553.6" type="line"/>
      <point x="58.72" y="496.84000000000003" type="line" smooth="yes"/>
      <point x="51.16" y="443.48"/>
      <point x="69.03999999999999" y="423.28"/>
      <point x="106.2" y="423.28" type="curve" smooth="yes"/>
    </contour>
    <contour>
      <point x="103.91999999999999" y="879.88" type="line"/>
      <point x="1015.08" y="879.88" type="line" smooth="yes"/>
      <point x="1066.28" y="879.88"/>
      <point x="1088.48" y="897.92"/>
      <point x="1094.96" y="936.16" type="curve" smooth="yes"/>
      <point x="1107.92" y="1010.2" type="line"/>
      <point x="196.76" y="1010.2" type="line"/>
      <point x="145.56" y="1010.2"/>
      <point x="123.36" y="992.16"/>
      <point x="116.88" y="953.92" type="curve" smooth="yes"/>
    </contour>
  </outline>
</glyph>
<glyph name="dollar" format="2">
  <advance width="1160"/>
  <unicode hex="0024"/>
  <outline>
    <contour>
      <point x="1018.76" y="1287.88" type="line"/>
      <point x="925.68" y="1380.64"/>
      <point x="800.84" y="1446.4"/>
      <point x="616.24" y="1446.4" type="curve" smooth="yes" name="n03"/>
      <point x="324.56" y="1446.4"/>
      <point x="160.48" y="1255.24"/>
      <point x="160.48" y="1053.48" type="curve" smooth="yes" name="n06"/>
      <point x="160.48" y="552.6"/>
      <point x="882.92" y="757.48"/>
      <point x="882.92" y="407.28" type="curve" smooth="yes" name="n09"/>
      <point x="882.92" y="244.8"/>
      <point x="768.56" y="133.6"/>
      <point x="560.24" y="133.6" type="curve" smooth="yes" name="n12"/>
      <point x="335.12" y="133.6"/>
      <point x="253.44" y="277.52"/>
      <point x="198.12" y="277.52" type="curve" smooth="yes"/>
      <point x="179.16" y="277.52"/>
      <point x="162.04" y="266.88"/>
      <point x="151.56" y="252.08" type="curve"/>
      <point x="97.88" y="171.4" type="line"/>
      <point x="207.92" y="57.4"/>
      <point x="370.08" y="-16"/>
      <point x="560.24" y="-16" type="curve" smooth="yes" name="n22"/>
      <point x="872.2" y="-16"/>
      <point x="1051.8" y="184.36"/>
      <point x="1051.8" y="435.04" type="curve" smooth="yes" name="n25"/>
      <point x="1051.8" y="900"/>
      <point x="328.28" y="722.08"/>
      <point x="328.28" y="1070.76" type="curve" smooth="yes" name="n28"/>
      <point x="328.28" y="1192.32"/>
      <point x="421.88" y="1295.72"/>
      <point x="632.44" y="1295.72" type="curve" smooth="yes" name="n31"/>
      <point x="803.52" y="1295.72"/>
      <point x="888.04" y="1192.72"/>
      <point x="930.24" y="1192.72" type="curve" smooth="yes"/>
      <point x="949.36" y="1192.72"/>
      <point x="963.08" y="1202.28"/>
      <point x="975.88" y="1222.48" type="curve" smooth="yes"/>
    </contour>
    <contour>
      <point x="474.8" y="-238.36" type="line" name="n38"/>
      <point x="540.96" y="-238.36" type="line" smooth="yes"/>
      <point x="569.48" y="-238.36"/>
      <point x="589.68" y="-215.08"/>
      <point x="590.76" y="-189.96" type="curve"/>
      <point x="716.16" y="1638.52" type="line" name="n43"/>
      <point x="650" y="1638.52" type="line" smooth="yes"/>
      <point x="621.48" y="1638.52"/>
      <point x="601.28" y="1615.24"/>
      <point x="600.2" y="1590.12" type="curve"/>
    </contour>
  </outline>
</glyph>
<glyph name="ampersand" format="2">
  <advance width="1424.22"/>
  <unicode hex="0026"/>
  <outline>
    <contour>
      <point x="483.56" y="826.28" type="line"/>
      <point x="262.92" y="762.12"/>
      <point x="88.44" y="595.36"/>
      <point x="88.44" y="381.8" type="curve" smooth="yes"/>
      <point x="88.44" y="132.68"/>
      <point x="304.8" y="-16.0"/>
      <point x="517.48" y="-16.0" type="curve" smooth="yes"/>
      <point x="947.24" y="-16.0"/>
      <point x="1240.64" y="362.24"/>
      <point x="1244.32" y="737.56" type="curve"/>
      <point x="1134.8" y="737.56" type="line" smooth="yes"/>
      <point x="1110.76" y="737.56"/>
      <point x="1097.96" y="721.84"/>
      <point x="1094.88" y="696.72" type="curve"/>
      <point x="1069.2" y="426.96000000000004"/>
      <point x="878.8" y="128.2"/>
      <point x="547.72" y="128.2" type="curve" smooth="yes"/>
      <point x="409.16" y="128.2"/>
      <point x="270.12" y="223.24"/>
      <point x="270.12" y="395.84000000000003" type="curve" smooth="yes"/>
      <point x="270.12" y="550.96"/>
      <point x="381.68" y="684.56"/>
      <point x="596.0" y="753.04" type="curve"/>
    </contour>
    <contour>
      <point x="666.88" y="1448.4" type="curve"/>
      <point x="428.76" y="1448.4"/>
      <point x="282.12" y="1292.32"/>
      <point x="282.12" y="1098.12" type="curve" smooth="yes"/>
      <point x="282.12" y="969.08"/>
      <point x="341.32" y="851.64"/>
      <point x="470.68" y="717.64" type="curve" smooth="yes"/>
      <point x="1148.0" y="35.92" type="line"/>
      <point x="1176.2" y="6.48"/>
      <point x="1195.16" y="0.0"/>
      <point x="1234.16" y="0.0" type="curve" smooth="yes"/>
      <point x="1406.76" y="0.0" type="line"/>
      <point x="591.6" y="827.6" type="line" smooth="yes"/>
      <point x="490.92" y="928.76"/>
      <point x="448.68" y="1006.52"/>
      <point x="448.68" y="1099.2" type="curve" smooth="yes"/>
      <point x="448.68" y="1218.44"/>
      <point x="533.48" y="1310.68"/>
      <point x="666.88" y="1310.68" type="curve" smooth="yes"/>
      <point x="789.0" y="1310.68"/>
      <point x="850.0" y="1221.64"/>
      <point x="868.96" y="1151.8" type="curve"/>
      <point x="878.52" y="1126.84"/>
      <point x="897.3199999999999" y="1116.36"/>
      <point x="918.44" y="1120.68" type="curve" smooth="yes"/>
      <point x="1029.2" y="1143.36" type="line"/>
      <point x="1019.48" y="1302.64"/>
      <point x="877.04" y="1448.4"/>
    </contour>
  </outline>
</glyph>
<glyph name="quotesingle" format="2">
  <advance width="408"/>
  <unicode hex="0027"/>
  <outline>
    <contour>
      <point x="126.7" y="1432.4" type="line" name="n00"/>
      <point x="126.7" y="1142.72" type="line"/>
      <point x="142.74" y="987.48" type="line" name="n02"/>
      <point x="150.3" y="945.68"/>
      <point x="168.5" y="921.16" name="n04"/>
      <point x="203.66" y="921.16" type="curve" smooth="yes"/>
      <point x="244.22" y="921.16"/>
      <point x="259.18" y="945.68"/>
      <point x="265.66" y="987.48" type="curve"/>
      <point x="281.7" y="1142.72" type="line" name="n09"/>
      <point x="281.7" y="1432.4" type="line"/>
    </contour>
  </outline>
  <guideline angle="90" x="248" y="0"/>
</glyph>
<glyph name="parenleft" format="2">
  <advance width="533.94"/>
  <unicode hex="0028"/>
  <outline>
    <contour>
      <point x="245.04000000000002" y="628.76" type="curve"/>
      <point x="245.04000000000002" y="912.84"/>
      <point x="320.08000000000004" y="1187.76"/>
      <point x="459.36" y="1429.08" type="curve"/>
      <point x="480.48" y="1469.48"/>
      <point x="464.44" y="1489.52"/>
      <point x="444.24" y="1502.32" type="curve"/>
      <point x="365.12" y="1550.44" type="line"/>
      <point x="164.68" y="1242.16"/>
      <point x="90.19999999999999" y="952.52"/>
      <point x="90.19999999999999" y="628.76" type="curve"/>
      <point x="90.19999999999999" y="305.0"/>
      <point x="164.68" y="15.36"/>
      <point x="365.12" y="-292.92" type="curve"/>
      <point x="444.24" y="-244.8" type="line"/>
      <point x="464.44" y="-232.0"/>
      <point x="480.48" y="-211.96"/>
      <point x="459.36" y="-171.56" type="curve"/>
      <point x="320.08000000000004" y="69.76"/>
      <point x="245.04000000000002" y="344.68"/>
    </contour>
  </outline>
</glyph>
<glyph name="parenright" format="2">
  <advance width="533.94"/>
  <unicode hex="0029"/>
  <outline>
    <contour>
      <point x="288.9" y="628.76" type="curve"/>
      <point x="288.9" y="344.68"/>
      <point x="213.86" y="69.76"/>
      <point x="74.58" y="-171.56" type="curve"/>
      <point x="53.459999999999994" y="-211.96"/>
      <point x="69.5" y="-232.0"/>
      <point x="89.7" y="-244.8" type="curve"/>
      <point x="168.82" y="-292.92" type="line"/>
      <point x="369.26" y="15.36"/>
      <point x="443.74" y="305.0"/>
      <point x="443.74" y="628.76" type="curve" smooth="yes"/>
      <point x="443.74" y="952.52"/>
      <point x="369.26" y="1242.16"/>
      <point x="168.82" y="1550.44" type="curve"/>
      <point x="89.7" y="1502.32" type="line"/>
      <point x="69.5" y="1489.52"/>
      <point x="53.459999999999994" y="1469.48"/>
      <point x="74.58" y="1429.08" type="curve"/>
      <point x="213.86" y="1187.76"/>
      <point x="288.9" y="912.84"/>
    </contour>
  </outline>
</glyph>
<glyph name="asterisk" format="2">
  <advance width="850"/>
  <unicode hex="002A"/>
  <outline>
    <contour>
      <point x="167.8" y="985.04" type="line"/>
      <point x="339.56" y="1084.68" type="line" smooth="yes"/>
      <point x="369.76" y="1102.4"/>
      <point x="391.04" y="1120.6"/>
      <point x="406.88" y="1151.56" type="curve"/>
      <point x="388.68" y="1184.56" type="line"/>
      <point x="353.88" y="1186.28"/>
      <point x="326.28" y="1177.64"/>
      <point x="296.08" y="1159.92" type="curve" smooth="yes"/>
      <point x="124.32" y="1060.28" type="line"/>
    </contour>
    <contour>
      <point x="468.56" y="863.36" type="line" name="n10"/>
      <point x="468.56" y="1061.12" type="line" smooth="yes" name="n11"/>
      <point x="468.56" y="1095.48"/>
      <point x="461.16" y="1123.24"/>
      <point x="443.12" y="1152.48" type="curve"/>
      <point x="406.88" y="1152.48" type="line"/>
      <point x="386.84" y="1125.24"/>
      <point x="380.52" y="1095.48"/>
      <point x="380.52" y="1060.04" type="curve" smooth="yes" name="n18"/>
      <point x="380.52" y="863.36" type="line"/>
    </contour>
    <contour>
      <point x="726.6" y="1059.2" type="line"/>
      <point x="553.92" y="1159.92" type="line"/>
      <point x="523.72" y="1178.72"/>
      <point x="495.96" y="1186.28"/>
      <point x="461.32" y="1184.56" type="curve"/>
      <point x="443.12" y="1151.56" type="line"/>
      <point x="458.8" y="1119.68"/>
      <point x="480.24" y="1102.4"/>
      <point x="510.44" y="1084.68" type="curve" smooth="yes"/>
      <point x="683.12" y="983.96" type="line"/>
    </contour>
    <contour>
      <point x="380.52" y="1505.76" type="line" name="n30"/>
      <point x="380.52" y="1308" type="line" smooth="yes"/>
      <point x="380.52" y="1273.64"/>
      <point x="387.92" y="1244.96"/>
      <point x="406.88" y="1215.72" type="curve"/>
      <point x="443.12" y="1215.72" type="line"/>
      <point x="463.16" y="1243.88"/>
      <point x="468.56" y="1273.64"/>
      <point x="468.56" y="1309.08" type="curve" smooth="yes"/>
      <point x="468.56" y="1505.76" type="line"/>
    </contour>
    <contour>
      <point x="123.4" y="1309.92" type="line"/>
      <point x="296.08" y="1209.2" type="line"/>
      <point x="326.28" y="1190.4"/>
      <point x="354.04" y="1182.84"/>
      <point x="388.68" y="1183.64" type="curve"/>
      <point x="406.88" y="1216.64" type="line"/>
      <point x="390.28" y="1247.6"/>
      <point x="369.76" y="1266.72"/>
      <point x="339.56" y="1284.44" type="curve" smooth="yes"/>
      <point x="166.88" y="1385.16" type="line"/>
    </contour>
    <contour>
      <point x="682.2" y="1384.08" type="line"/>
      <point x="510.44" y="1284.44" type="line" smooth="yes"/>
      <point x="480.24" y="1266.72"/>
      <point x="458.96" y="1247.6"/>
      <point x="443.12" y="1216.64" type="curve"/>
      <point x="461.32" y="1183.64" type="line"/>
      <point x="496.12" y="1181"/>
      <point x="523.72" y="1191.48"/>
      <point x="553.92" y="1209.2" type="curve" smooth="yes"/>
      <point x="725.68" y="1308.84" type="line"/>
    </contour>
    <contour>
      <point x="382.52" y="1204.92" type="line"/>
      <point x="378.04" y="1155.72" type="line"/>
      <point x="419.68" y="1125.8" type="line"/>
      <point x="469.96" y="1154.64" type="line"/>
      <point x="470.88" y="1211.24" type="line"/>
      <point x="429.4" y="1230.68" type="line"/>
    </contour>
  </outline>
</glyph>
<glyph name="plus" format="2">
  <advance width="1160.0"/>
  <unicode hex="002B"/>
  <outline>
    <contour>
      <point x="101.1" y="603.84" type="line"/>
      <point x="1059.82" y="603.84" type="line"/>
      <point x="1059.82" y="738.32" type="line"/>
      <point x="101.1" y="738.32" type="line"/>
    </contour>
    <contour>
      <point x="506.82" y="1166.2" type="line"/>
      <point x="506.82" y="173.96" type="line"/>
      <point x="652.1" y="173.96" type="line"/>
      <point x="652.1" y="1166.2" type="line"/>
    </contour>
  </outline>
</glyph>
<glyph name="comma" format="2">
  <advance width="454"/>
  <unicode hex="002C"/>
  <outline>
    <contour>
      <point x="107.48" y="122.2" type="curve" smooth="yes" name="n00"/>
      <point x="107.48" y="51.64"/>
      <point x="155.24" y="-0.44"/>
      <point x="223.96" y="-0.44" type="curve" smooth="yes" name="n03"/>
      <point x="253.36" y="-0.44"/>
      <point x="273.84" y="7.56"/>
      <point x="289.08" y="20.32" type="curve"/>
      <point x="239.72" y="36.52" type="line" name="n07"/>
      <point x="239.72" y="-68.6"/>
      <point x="160.8" y="-153.88"/>
      <point x="130.62" y="-186.98" type="curve" smooth="yes"/>
      <point x="122.68" y="-195.38"/>
      <point x="116.28" y="-205.48"/>
      <point x="116.28" y="-213.96" type="curve" smooth="yes"/>
      <point x="116.28" y="-225.68"/>
      <point x="119.52" y="-233.08"/>
      <point x="129.54" y="-242.02" type="curve" smooth="yes"/>
      <point x="160.08" y="-270.4" type="line" name="n17"/>
      <point x="279.92" y="-170.32"/>
      <point x="349.36" y="-26.04"/>
      <point x="349.36" y="93.24" type="curve" smooth="yes" name="n20"/>
      <point x="349.36" y="172.4"/>
      <point x="307.16" y="234.96"/>
      <point x="225.8" y="234.96" type="curve" smooth="yes" name="n23"/>
      <point x="155.24" y="234.96"/>
      <point x="107.48" y="184.44"/>
    </contour>
  </outline>
</glyph>
<glyph name="hyphen" format="2">
  <advance width="743.4"/>
  <unicode hex="002D"/>
  <unicode hex="00AD"/>
  <unicode hex="2010"/>
  <outline>
    <contour>
      <point x="124.7" y="524.0" type="line"/>
      <point x="618.7" y="524.0" type="line"/>
      <point x="618.7" y="674.6800000000001" type="line"/>
      <point x="124.7" y="674.6800000000001" type="line"/>
    </contour>
  </outline>
</glyph>
<glyph name="period" format="2">
  <advance width="471.56"/>
  <unicode hex="002E"/>
  <outline>
    <contour>
      <point x="110.84" y="109.56" type="curve" smooth="yes"/>
      <point x="110.84" y="39.0"/>
      <point x="164.76" y="-14.92"/>
      <point x="235.32" y="-14.92" type="curve" smooth="yes"/>
      <point x="304.8" y="-14.92"/>
      <point x="360.72" y="39.0"/>
      <point x="360.72" y="109.56" type="curve" smooth="yes"/>
      <point x="360.72" y="179.04000000000002"/>
      <point x="304.8" y="234.96"/>
      <point x="235.32" y="234.96" type="curve" smooth="yes"/>
      <point x="164.76" y="234.96"/>
      <point x="110.84" y="179.04000000000002"/>
    </contour>
  </outline>
</glyph>
<glyph name="slash" format="2">
  <advance width="903.72"/>
  <unicode hex="002F"/>
  <outline>
    <contour>
      <point x="837.08" y="1472.4" type="line"/>
      <point x="761.2" y="1472.4" type="line" smooth="yes"/>
      <point x="717.72" y="1472.4"/>
      <point x="683.64" y="1448.96"/>
      <point x="667.76" y="1407.48" type="curve"/>
      <point x="66.64" y="-89.88" type="line"/>
      <point x="141.6" y="-89.88" type="line" smooth="yes"/>
      <point x="179.84" y="-89.88"/>
      <point x="222.24" y="-67.36"/>
      <point x="239.2" y="-21.72" type="curve" smooth="yes"/>
    </contour>
  </outline>
</glyph>
<glyph name="zero" format="2">
  <advance width="1160"/>
  <unicode hex="0030"/>
  <outline>
    <contour>
      <point x="1099.76" y="716.2" type="curve" smooth="yes" name="n00"/>
      <point x="1099.76" y="1217"/>
      <point x="870.52" y="1448.4"/>
      <point x="578.92" y="1448.4" type="curve" smooth="yes" name="n03"/>
      <point x="287.32" y="1448.4"/>
      <point x="60.24" y="1217"/>
      <point x="60.24" y="716.2" type="curve" smooth="yes" name="n06"/>
      <point x="60.24" y="215.4"/>
      <point x="287.32" y="-15.08"/>
      <point x="578.92" y="-15.08" type="curve" smooth="yes" name="n09"/>
      <point x="870.52" y="-15.08"/>
      <point x="1099.76" y="215.4"/>
    </contour>
    <contour>
      <point x="915" y="716.2" type="curve" smooth="yes" name="n12"/>
      <point x="915" y="279.4"/>
      <point x="756.08" y="134.52"/>
      <point x="578.92" y="134.52" type="curve" smooth="yes" name="n15"/>
      <point x="401.76" y="134.52"/>
      <point x="244.08" y="279.4"/>
      <point x="244.08" y="716.2" type="curve" smooth="yes" name="n18"/>
      <point x="244.08" y="1153"/>
      <point x="401.76" y="1298.8"/>
      <point x="578.92" y="1298.8" type="curve" smooth="yes" name="n21"/>
      <point x="756.08" y="1298.8"/>
      <point x="915" y="1153"/>
    </contour>
  </outline>
</glyph>
<glyph name="one" format="2">
  <advance width="1160.0"/>
  <unicode hex="0031"/>
  <outline>
    <contour>
      <point x="590.88" y="1436.08" type="line"/>
      <point x="571.92" y="1332.64"/>
      <point x="557.12" y="1215.32"/>
      <point x="557.12" y="1114.04" type="curve" smooth="yes"/>
      <point x="557.12" y="0.0" type="line"/>
      <point x="735.56" y="0.0" type="line"/>
      <point x="735.56" y="1436.08" type="line"/>
    </contour>
    <contour>
      <point x="249.51999999999998" y="0.0" type="line"/>
      <point x="1017.88" y="0.0" type="line"/>
      <point x="1017.88" y="135.56" type="line"/>
      <point x="249.51999999999998" y="135.56" type="line"/>
    </contour>
    <contour>
      <point x="164.48" y="1066.96" type="line"/>
      <point x="220.16" y="989.84" type="line"/>
      <point x="233.72" y="971.96"/>
      <point x="270.88" y="955.76"/>
      <point x="304.96" y="983.36" type="curve"/>
      <point x="592.56" y="1230.6399999999999" type="line"/>
      <point x="590.88" y="1436.08" type="line"/>
    </contour>
  </outline>
</glyph>
<glyph name="two" format="2">
  <advance width="1160"/>
  <unicode hex="0032"/>
  <outline>
    <contour>
      <point x="591.4" y="1448.4" type="curve" smooth="yes" name="n00"/>
      <point x="345.64" y="1448.4"/>
      <point x="160.8" y="1307.32"/>
      <point x="123.24" y="1045.52" type="curve"/>
      <point x="216.4" y="1029.32" type="line"/>
      <point x="265.44" y="1021.76"/>
      <point x="289.8" y="1035.48"/>
      <point x="305.84" y="1082.04" type="curve"/>
      <point x="333.52" y="1206.92"/>
      <point x="436.32" y="1296.64"/>
      <point x="581.68" y="1296.64" type="curve" smooth="yes" name="n10"/>
      <point x="725.88" y="1296.64"/>
      <point x="838.92" y="1214.24"/>
      <point x="838.92" y="1044.6" type="curve" smooth="yes" name="n13"/>
      <point x="838.92" y="878.08"/>
      <point x="738.72" y="752.6"/>
      <point x="585.52" y="597.56" type="curve" smooth="yes"/>
      <point x="126.88" y="136.32" type="line"/>
      <point x="104.36" y="114.88"/>
      <point x="94.04" y="85.12"/>
      <point x="94.04" y="60.76" type="curve" smooth="yes"/>
      <point x="94.04" y="0" type="line"/>
      <point x="1049.96" y="0" type="line" name="n22"/>
      <point x="1049.96" y="107.04" type="line" smooth="yes"/>
      <point x="1049.96" y="143.28"/>
      <point x="1025.44" y="167.8"/>
      <point x="987.04" y="167.8" type="curve" smooth="yes" name="n26"/>
      <point x="507.12" y="167.8" type="line" smooth="yes"/>
      <point x="417.64" y="167.8"/>
      <point x="306.68" y="138.8"/>
      <point x="234.56" y="104.56" type="curve"/>
      <point x="239.92" y="35.76" type="line"/>
      <point x="724.8" y="530.64" type="line" smooth="yes"/>
      <point x="884.32" y="692.16"/>
      <point x="1021.68" y="837.08"/>
      <point x="1021.68" y="1050" type="curve" smooth="yes" name="n35"/>
      <point x="1021.68" y="1301.52"/>
      <point x="835.24" y="1448.4"/>
    </contour>
  </outline>
</glyph>
<glyph name="three" format="2">
  <advance width="1160"/>
  <unicode hex="0033"/>
  <outline>
    <contour>
      <point x="598.02" y="1448.4" type="curve" smooth="yes" name="n00"/>
      <point x="352.26" y="1448.4"/>
      <point x="167.42" y="1307.32"/>
      <point x="129.86" y="1045.52" type="curve"/>
      <point x="223.02" y="1029.32" type="line"/>
      <point x="272.06" y="1021.76"/>
      <point x="295.5" y="1035.48"/>
      <point x="311.54" y="1082.04" type="curve"/>
      <point x="339.22" y="1206.92"/>
      <point x="442.94" y="1296.64"/>
      <point x="588.3" y="1296.64" type="curve" smooth="yes" name="n10"/>
      <point x="732.5" y="1296.64"/>
      <point x="841.86" y="1217"/>
      <point x="841.86" y="1051.96" type="curve" smooth="yes" name="n13"/>
      <point x="841.86" y="903.48"/>
      <point x="747.58" y="801.88"/>
      <point x="502.66" y="798.2" type="curve"/>
      <point x="502.66" y="669.88" type="line"/>
      <point x="802.62" y="668.96"/>
      <point x="869.98" y="559.84"/>
      <point x="869.98" y="405.64" type="curve" smooth="yes" name="n20"/>
      <point x="869.98" y="281.44"/>
      <point x="769.78" y="135.76"/>
      <point x="569.22" y="135.76" type="curve" smooth="yes" name="n23"/>
      <point x="354.1" y="135.76"/>
      <point x="299.3" y="290.44"/>
      <point x="263.22" y="363.96" type="curve" smooth="yes"/>
      <point x="246.42" y="400.16"/>
      <point x="203.26" y="406.96"/>
      <point x="162.54" y="389.84" type="curve" smooth="yes"/>
      <point x="86.18" y="357.6" type="line"/>
      <point x="151.66" y="144.76"/>
      <point x="266.86" y="-16"/>
      <point x="571.38" y="-16" type="curve" smooth="yes" name="n33"/>
      <point x="834.02" y="-16"/>
      <point x="1048.42" y="147.8"/>
      <point x="1048.42" y="411.04" type="curve" smooth="yes" name="n36"/>
      <point x="1048.42" y="632.48"/>
      <point x="894.38" y="765.52"/>
      <point x="594.1" y="776.92" type="curve"/>
      <point x="594.1" y="723.4" type="line"/>
      <point x="840.3" y="740.96"/>
      <point x="1015.98" y="837.16"/>
      <point x="1015.98" y="1082.2" type="curve" smooth="yes" name="n43"/>
      <point x="1015.98" y="1304.28"/>
      <point x="841.86" y="1448.4"/>
    </contour>
  </outline>
</glyph>
<glyph name="four" format="2">
  <advance width="1160"/>
  <unicode hex="0034"/>
  <outline>
    <contour>
      <point x="886.34" y="1433.32" type="line" name="n00"/>
      <point x="720.06" y="1433.32" type="line"/>
      <point x="23.06" y="507.24" type="line"/>
      <point x="41.26" y="417.16" type="line" smooth="yes"/>
      <point x="46.5" y="393.88"/>
      <point x="66.86" y="376.92"/>
      <point x="93.82" y="376.92" type="curve" smooth="yes" name="n06"/>
      <point x="1063.74" y="376.92" type="line" smooth="yes"/>
      <point x="1089.78" y="376.92"/>
      <point x="1103.5" y="393.88"/>
      <point x="1103.5" y="414.84" type="curve" smooth="yes"/>
      <point x="1103.5" y="516.8" type="line"/>
      <point x="68.38" y="516.8" type="line" name="n12"/>
      <point x="156.14" y="435.2" type="line"/>
      <point x="836.06" y="1360.72" type="line"/>
      <point x="769.9" y="1373.36" type="line"/>
      <point x="741.06" y="1282.08"/>
      <point x="730.42" y="1183.24"/>
      <point x="730.42" y="1109.24" type="curve" smooth="yes"/>
      <point x="730.42" y="0" type="line" name="n19"/>
      <point x="886.34" y="0" type="line" name="n20"/>
    </contour>
  </outline>
</glyph>
<glyph name="five" format="2">
  <advance width="1160"/>
  <unicode hex="0035"/>
  <outline>
    <contour>
      <point x="982.34" y="1432.4" type="line"/>
      <point x="303.5" y="1432.4" type="line" name="n01"/>
      <point x="187.78" y="763.56" type="line"/>
      <point x="299.74" y="730.72" type="line"/>
      <point x="381.44" y="756.1"/>
      <point x="459.86" y="768.64"/>
      <point x="531.76" y="768.64" type="curve" smooth="yes" name="n06"/>
      <point x="742.16" y="768.64"/>
      <point x="846.86" y="653.4"/>
      <point x="846.86" y="475" type="curve" smooth="yes" name="n09"/>
      <point x="846.86" y="270"/>
      <point x="719.38" y="136.52"/>
      <point x="520.26" y="136.52" type="curve" smooth="yes" name="n12"/>
      <point x="342.46" y="136.52"/>
      <point x="266.86" y="235.92"/>
      <point x="214.46" y="235.92" type="curve" smooth="yes"/>
      <point x="195.5" y="235.92"/>
      <point x="178.54" y="227.44"/>
      <point x="166.82" y="210.48" type="curve" smooth="yes"/>
      <point x="112.22" y="134.44" type="line"/>
      <point x="201.5" y="55.44"/>
      <point x="341.7" y="-16"/>
      <point x="510.54" y="-16" type="curve" smooth="yes" name="n22"/>
      <point x="800.66" y="-16"/>
      <point x="1026.22" y="179"/>
      <point x="1026.22" y="482.72" type="curve" smooth="yes" name="n25"/>
      <point x="1026.22" y="729.34"/>
      <point x="867.66" y="916.08"/>
      <point x="568.48" y="916.08" type="curve" smooth="yes" name="n28"/>
      <point x="485.86" y="916.08"/>
      <point x="392.7" y="903"/>
      <point x="288.62" y="872.76" type="curve"/>
      <point x="339.38" y="761.72" type="line"/>
      <point x="453.86" y="1415.44" type="line"/>
      <point x="322.62" y="1268.92" type="line" name="n34"/>
      <point x="877.62" y="1268.92" type="line" smooth="yes"/>
      <point x="952.58" y="1268.92"/>
      <point x="982.34" y="1305.16"/>
      <point x="982.34" y="1355.44" type="curve" smooth="yes"/>
    </contour>
  </outline>
</glyph>
<glyph name="six" format="2">
  <advance width="1160.0"/>
  <unicode hex="0036"/>
  <outline>
    <contour>
      <point x="279.5" y="442.08" type="curve"/>
      <point x="279.5" y="599.72"/>
      <point x="398.94" y="741.84"/>
      <point x="591.02" y="741.84" type="curve" smooth="yes"/>
      <point x="771.34" y="741.84"/>
      <point x="894.62" y="626.56"/>
      <point x="894.62" y="437.48" type="curve" smooth="yes"/>
      <point x="894.62" y="262.56"/>
      <point x="769.02" y="131.44"/>
      <point x="578.46" y="131.44" type="curve" smooth="yes"/>
      <point x="389.06" y="131.44"/>
      <point x="279.5" y="259.0"/>
    </contour>
    <contour>
      <point x="272.26" y="476.76" type="line"/>
      <point x="274.1" y="630.2"/>
      <point x="351.7" y="741.6"/>
      <point x="473.54" y="895.4" type="curve"/>
      <point x="899.1" y="1432.4" type="line"/>
      <point x="740.86" y="1432.4" type="line" smooth="yes"/>
      <point x="699.06" y="1432.4"/>
      <point x="663.74" y="1414.04"/>
      <point x="645.7" y="1389.68" type="curve"/>
      <point x="281.82" y="901.08" type="line"/>
      <point x="161.7" y="739.44"/>
      <point x="107.53999999999999" y="597.12"/>
      <point x="107.53999999999999" y="473.2" type="curve" smooth="yes"/>
      <point x="107.53999999999999" y="175.32"/>
      <point x="293.42" y="-16.0"/>
      <point x="581.7" y="-16.0" type="curve" smooth="yes"/>
      <point x="873.02" y="-16.0"/>
      <point x="1073.06" y="187.48000000000002"/>
      <point x="1073.06" y="450.44" type="curve" smooth="yes"/>
      <point x="1073.06" y="723.92"/>
      <point x="879.74" y="877.4"/>
      <point x="649.5" y="877.4" type="curve" smooth="yes"/>
      <point x="401.9" y="877.4"/>
      <point x="234.78" y="695.8"/>
      <point x="234.78" y="474.0" type="curve"/>
    </contour>
  </outline>
</glyph>
<glyph name="seven" format="2">
  <advance width="1160"/>
  <unicode hex="0037"/>
  <outline>
    <contour>
      <point x="107.52" y="1432.4" type="line" name="n00"/>
      <point x="107.52" y="1312.24" type="line" smooth="yes"/>
      <point x="107.52" y="1289.12"/>
      <point x="127.72" y="1268.92"/>
      <point x="150.84" y="1268.92" type="curve" smooth="yes" name="n04"/>
      <point x="1044.56" y="1268.92" type="line"/>
      <point x="917.44" y="1287.88" type="line"/>
      <point x="886.6" y="1258.12"/>
      <point x="864.24" y="1225.12"/>
      <point x="841.88" y="1182.56" type="curve" smooth="yes"/>
      <point x="240" y="0" type="line" name="n10"/>
      <point x="367.56" y="0" type="line" smooth="yes"/>
      <point x="418.6" y="0"/>
      <point x="448.2" y="27.76"/>
      <point x="465.16" y="62.76" type="curve" smooth="yes"/>
      <point x="1058.56" y="1260.6" type="line" smooth="yes"/>
      <point x="1068.12" y="1280.8"/>
      <point x="1080.92" y="1308.4"/>
      <point x="1080.92" y="1353.44" type="curve" smooth="yes"/>
      <point x="1080.92" y="1432.4" type="line"/>
    </contour>
  </outline>
</glyph>
<glyph name="eight" format="2">
  <advance width="1160"/>
  <unicode hex="0038"/>
  <outline>
    <contour>
      <point x="580" y="-16" type="curve" smooth="yes" name="n00"/>
      <point x="866.08" y="-16"/>
      <point x="1063.2" y="142.2"/>
      <point x="1063.2" y="391.48" type="curve" smooth="yes" name="n03"/>
      <point x="1063.2" y="633.4"/>
      <point x="890.24" y="765.48"/>
      <point x="596" y="773.64" type="curve"/>
      <point x="596" y="713.36" type="line"/>
      <point x="867.8" y="723.36"/>
      <point x="1013.36" y="862.88"/>
      <point x="1013.36" y="1072.32" type="curve" smooth="yes" name="n10"/>
      <point x="1013.36" y="1283.76"/>
      <point x="840.2" y="1448.4"/>
      <point x="580" y="1448.4" type="curve" smooth="yes" name="n13"/>
      <point x="319.8" y="1448.4"/>
      <point x="146.64" y="1283.76"/>
      <point x="146.64" y="1072.32" type="curve" smooth="yes" name="n16"/>
      <point x="146.64" y="862.88"/>
      <point x="292.2" y="723.36"/>
      <point x="564" y="713.36" type="curve"/>
      <point x="564" y="773.64" type="line"/>
      <point x="269.76" y="765.48"/>
      <point x="96.8" y="633.4"/>
      <point x="96.8" y="391.48" type="curve" smooth="yes" name="n23"/>
      <point x="96.8" y="142.2"/>
      <point x="293.92" y="-16"/>
    </contour>
    <contour>
      <point x="580" y="813.44" type="curve" smooth="yes"/>
      <point x="393.24" y="813.44"/>
      <point x="320.76" y="937.96"/>
      <point x="320.76" y="1069.08" type="curve" smooth="yes" name="n29"/>
      <point x="320.76" y="1202"/>
      <point x="409.08" y="1311.76"/>
      <point x="580" y="1311.76" type="curve" smooth="yes" name="n32"/>
      <point x="750.92" y="1311.76"/>
      <point x="839.24" y="1202"/>
      <point x="839.24" y="1069.08" type="curve" smooth="yes" name="n35"/>
      <point x="839.24" y="937.96"/>
      <point x="766.76" y="813.44"/>
    </contour>
    <contour>
      <point x="580" y="124.96" type="curve" smooth="yes" name="n38"/>
      <point x="393.08" y="124.96"/>
      <point x="280.64" y="235.96"/>
      <point x="280.64" y="394.72" type="curve" smooth="yes" name="n41"/>
      <point x="280.64" y="592.76"/>
      <point x="423.4" y="671.4"/>
      <point x="580" y="671.4" type="curve" smooth="yes"/>
      <point x="736.6" y="671.4"/>
      <point x="879.36" y="592.76"/>
      <point x="879.36" y="394.72" type="curve" smooth="yes" name="n47"/>
      <point x="879.36" y="235.96"/>
      <point x="766.92" y="124.96"/>
    </contour>
  </outline>
</glyph>
<glyph name="nine" format="2">
  <advance width="1160.0"/>
  <unicode hex="0039"/>
  <outline>
    <contour>
      <point x="864.26" y="1007.4" type="curve"/>
      <point x="864.26" y="859.92"/>
      <point x="756.22" y="724.72"/>
      <point x="565.34" y="724.72" type="curve" smooth="yes"/>
      <point x="390.86" y="724.72"/>
      <point x="283.3" y="829.6800000000001"/>
      <point x="283.3" y="1012.0" type="curve" smooth="yes"/>
      <point x="283.3" y="1180.6"/>
      <point x="400.54" y="1300.96"/>
      <point x="576.98" y="1300.96" type="curve" smooth="yes"/>
      <point x="744.22" y="1300.96"/>
      <point x="864.26" y="1186.8"/>
    </contour>
    <contour>
      <point x="878.58" y="978.4" type="line"/>
      <point x="875.8199999999999" y="818.08"/>
      <point x="809.06" y="717.28"/>
      <point x="698.74" y="571.16" type="curve"/>
      <point x="263.41999999999996" y="0.0" type="line"/>
      <point x="427.06" y="0.0" type="line" smooth="yes"/>
      <point x="467.78" y="0.0"/>
      <point x="502.02" y="17.28"/>
      <point x="518.98" y="41.64" type="curve" smooth="yes"/>
      <point x="867.94" y="546.04" type="line" smooth="yes"/>
      <point x="972.22" y="694.6"/>
      <point x="1035.14" y="821.28"/>
      <point x="1035.14" y="985.84" type="curve" smooth="yes"/>
      <point x="1035.14" y="1260.04"/>
      <point x="854.5" y="1448.4"/>
      <point x="579.14" y="1448.4" type="curve" smooth="yes"/>
      <point x="300.58" y="1448.4"/>
      <point x="104.86" y="1249.24"/>
      <point x="104.86" y="999.04" type="curve" smooth="yes"/>
      <point x="104.86" y="736.64"/>
      <point x="291.1" y="588.08"/>
      <point x="505.78" y="588.08" type="curve" smooth="yes"/>
      <point x="727.18" y="588.08"/>
      <point x="914.06" y="736.36"/>
      <point x="914.06" y="978.4" type="curve"/>
    </contour>
  </outline>
</glyph>
<glyph name="less" format="2">
  <advance width="1160.0"/>
  <unicode hex="003C"/>
  <outline>
    <contour>
      <point x="161.78" y="709.48" type="line"/>
      <point x="161.78" y="654.12" type="line"/>
      <point x="281.9" y="655.04"/>
      <point x="378.42" y="667.66"/>
      <point x="450.1" y="704.04" type="curve" smooth="yes"/>
      <point x="899.24" y="932.3" type="line" smooth="yes"/>
      <point x="925.12" y="945.24"/>
      <point x="934.98" y="962.66"/>
      <point x="934.98" y="984.08" type="curve" smooth="yes"/>
      <point x="934.98" y="1110.64" type="line"/>
    </contour>
    <contour>
      <point x="161.78" y="635.92" type="line"/>
      <point x="934.98" y="234.76" type="line"/>
      <point x="934.98" y="361.32" type="line"/>
      <point x="934.98" y="382.74"/>
      <point x="925.12" y="400.16"/>
      <point x="899.24" y="413.1" type="curve"/>
      <point x="450.1" y="641.36" type="line"/>
      <point x="378.42" y="678.2"/>
      <point x="281.9" y="690.36"/>
      <point x="161.78" y="691.28" type="curve"/>
    </contour>
  </outline>
</glyph>
<glyph name="equal" format="2">
  <advance width="1160.0"/>
  <unicode hex="003D"/>
  <outline>
    <contour>
      <point x="150.3" y="439.0" type="line"/>
      <point x="1009.7" y="439.0" type="line"/>
      <point x="1009.7" y="573.48" type="line"/>
      <point x="150.3" y="573.48" type="line"/>
    </contour>
    <contour>
      <point x="150.3" y="774.04" type="line"/>
      <point x="1009.7" y="774.04" type="line"/>
      <point x="1009.7" y="908.52" type="line"/>
      <point x="150.3" y="908.52" type="line"/>
    </contour>
  </outline>
</glyph>
<glyph name="greater" format="2">
  <advance width="1160.0"/>
  <unicode hex="003E"/>
  <outline>
    <contour>
      <point x="998.22" y="635.92" type="line"/>
      <point x="998.22" y="691.28" type="line"/>
      <point x="878.1" y="690.36"/>
      <point x="781.5799999999999" y="677.74"/>
      <point x="709.9" y="641.36" type="curve" smooth="yes"/>
      <point x="260.76" y="413.1" type="line" smooth="yes"/>
      <point x="234.88" y="400.16"/>
      <point x="225.02" y="382.74"/>
      <point x="225.02" y="361.32" type="curve" smooth="yes"/>
      <point x="225.02" y="234.76" type="line"/>
    </contour>
    <contour>
      <point x="998.22" y="709.48" type="line"/>
      <point x="225.02" y="1110.64" type="line"/>
      <point x="225.02" y="984.08" type="line" smooth="yes"/>
      <point x="225.02" y="962.66"/>
      <point x="234.88" y="945.24"/>
      <point x="260.76" y="932.3" type="curve" smooth="yes"/>
      <point x="709.9" y="704.04" type="line"/>
      <point x="781.5799999999999" y="667.2"/>
      <point x="878.1" y="655.04"/>
      <point x="998.22" y="654.12" type="curve"/>
    </contour>
  </outline>
</glyph>
<glyph name="question" format="2">
  <advance width="894.7"/>
  <unicode hex="003F"/>
  <outline>
    <contour>
      <point x="128.28" y="1229.88" type="line"/>
      <point x="136.76" y="1214.92"/>
      <point x="149.56" y="1207.52"/>
      <point x="166.52" y="1207.52" type="curve" smooth="yes"/>
      <point x="198.12" y="1207.52"/>
      <point x="262.2" y="1303.12"/>
      <point x="424.28" y="1303.12" type="curve" smooth="yes"/>
      <point x="543.88" y="1303.12"/>
      <point x="640.36" y="1231.04"/>
      <point x="640.36" y="1114.72" type="curve" smooth="yes"/>
      <point x="640.36" y="869.32"/>
      <point x="316.08" y="845.96"/>
      <point x="333.36" y="666.2" type="curve" smooth="yes"/>
      <point x="345.24" y="499.76" type="line"/>
      <point x="467.08000000000004" y="499.76" type="line"/>
      <point x="484.96000000000004" y="653.4" type="line"/>
      <point x="501.92" y="786.6"/>
      <point x="806.92" y="820.28"/>
      <point x="806.92" y="1124.44" type="curve" smooth="yes"/>
      <point x="806.92" y="1322.96"/>
      <point x="649.84" y="1448.4"/>
      <point x="439.4" y="1448.4" type="curve" smooth="yes"/>
      <point x="278.88" y="1448.4"/>
      <point x="164.68" y="1381.48"/>
      <point x="81.24" y="1304.84" type="curve"/>
    </contour>
    <component base="period" xOffset="165.44"/>
  </outline>
</glyph>
<glyph name="at" format="2">
  <advance width="1673.24"/>
  <unicode hex="0040"/>
  <guideline y="716.2"/>
  <guideline x="833.52"/>
  <outline>
    <contour>
      <point x="1185.34" y="185.68" type="curve" smooth="yes"/>
      <point x="1409.9" y="185.68"/>
      <point x="1582.86" y="399.6"/>
      <point x="1582.86" y="687.28" type="curve" smooth="yes"/>
      <point x="1582.86" y="1115.12"/>
      <point x="1246.34" y="1358.92"/>
      <point x="877.66" y="1358.92" type="curve" smooth="yes"/>
      <point x="446.02" y="1358.92"/>
      <point x="104.3" y="1003.28"/>
      <point x="104.3" y="567.64" type="curve" smooth="yes"/>
      <point x="104.3" y="61.0"/>
      <point x="457.26" y="-239.24"/>
      <point x="919.54" y="-239.24" type="curve" smooth="yes"/>
      <point x="1148.06" y="-239.24"/>
      <point x="1330.38" y="-179.68"/>
      <point x="1472.66" y="-85.24" type="curve"/>
      <point x="1447.22" y="-19.699999999999996" type="line"/>
      <point x="1438.28" y="4.1200000000000045"/>
      <point x="1416.24" y="11.439999999999998"/>
      <point x="1389.88" y="-4.279999999999994" type="curve"/>
      <point x="1277.68" y="-72.96"/>
      <point x="1121.26" y="-121.11999999999999"/>
      <point x="919.54" y="-121.11999999999999" type="curve" smooth="yes"/>
      <point x="538.82" y="-121.11999999999999"/>
      <point x="235.38" y="115.12"/>
      <point x="235.38" y="567.64" type="curve" smooth="yes"/>
      <point x="235.38" y="954.08"/>
      <point x="520.78" y="1241.72"/>
      <point x="877.66" y="1241.72" type="curve" smooth="yes"/>
      <point x="1203.78" y="1241.72"/>
      <point x="1453.94" y="1056.52"/>
      <point x="1453.94" y="687.28" type="curve" smooth="yes"/>
      <point x="1453.94" y="455.28"/>
      <point x="1341.14" y="298.56"/>
      <point x="1211.1" y="298.56" type="curve" smooth="yes"/>
      <point x="1128.38" y="298.56"/>
      <point x="1064.94" y="340.24"/>
      <point x="1117.34" y="543.4" type="curve" smooth="yes"/>
      <point x="1210.74" y="904.24" type="line"/>
      <point x="1151.3" y="930.72"/>
      <point x="1086.06" y="945.04"/>
      <point x="997.5" y="945.04" type="curve" smooth="yes"/>
      <point x="663.22" y="945.04"/>
      <point x="488.62" y="687.32"/>
      <point x="488.62" y="460.24" type="curve" smooth="yes"/>
      <point x="488.62" y="305.4"/>
      <point x="565.58" y="188.44"/>
      <point x="723.94" y="188.44" type="curve" smooth="yes"/>
      <point x="865.66" y="188.44"/>
      <point x="982.9" y="269.2"/>
      <point x="1072.66" y="476.48" type="curve"/>
      <point x="992.94" y="429.8" type="line"/>
      <point x="980.06" y="264.84"/>
      <point x="1056.78" y="185.68"/>
    </contour>
    <contour>
      <point x="1066.86" y="867.52" type="line"/>
      <point x="978.7" y="526.88" type="line" smooth="yes"/>
      <point x="933.38" y="352.36"/>
      <point x="841.18" y="305.64"/>
      <point x="759.26" y="305.64" type="curve" smooth="yes"/>
      <point x="673.06" y="305.64"/>
      <point x="628.1800000000001" y="369.24"/>
      <point x="628.1800000000001" y="464.56" type="curve" smooth="yes"/>
      <point x="628.1800000000001" y="648.48"/>
      <point x="770.1" y="831.08"/>
      <point x="969.42" y="831.08" type="curve" smooth="yes"/>
      <point x="1028.02" y="831.08"/>
      <point x="1071.9" y="820.92"/>
      <point x="1117.74" y="801.52" type="curve"/>
    </contour>
  </outline>
</glyph>
<glyph name="A" format="2">
  <advance width="1353.92"/>
  <unicode hex="0041"/>
  <anchor x="676.42" y="1511.66" name="Top"/>
  <anchor x="191.82" y="1120.0" name="onRight"/>
  <anchor x="674.26" y="-70.0" name="bottom"/>
  <anchor x="676.42" y="1511.66" name="top"/>
  <outline>
    <contour>
      <point x="5.739999999999995" y="0.0" type="line"/>
      <point x="155.66000000000003" y="0.0" type="line" smooth="yes"/>
      <point x="188.66000000000003" y="0.0"/>
      <point x="213.02" y="22.36"/>
      <point x="221.5" y="45.64" type="curve"/>
      <point x="634.5" y="1115.4" type="line" smooth="yes"/>
      <point x="662.86" y="1188.0"/>
      <point x="697.86" y="1312.92"/>
      <point x="709.26" y="1432.4" type="curve"/>
      <point x="578.94" y="1432.4" type="line"/>
    </contour>
    <contour>
      <point x="253.22" y="392.68" type="line"/>
      <point x="1108.26" y="392.68" type="line"/>
      <point x="1108.26" y="531.48" type="line"/>
      <point x="253.22" y="531.48" type="line"/>
    </contour>
    <contour>
      <point x="774.98" y="1432.4" type="line"/>
      <point x="640.34" y="1432.4" type="line"/>
      <point x="654.98" y="1312.92"/>
      <point x="691.06" y="1189.08"/>
      <point x="719.42" y="1116.48" type="curve" smooth="yes"/>
      <point x="1132.42" y="45.64" type="line"/>
      <point x="1143.06" y="19.12"/>
      <point x="1164.34" y="0.0"/>
      <point x="1198.42" y="0.0" type="curve" smooth="yes"/>
      <point x="1348.18" y="0.0" type="line"/>
    </contour>
  </outline>
</glyph>
<glyph name="B" format="2">
  <advance width="1293.0"/>
  <unicode hex="0042"/>
  <anchor x="640.48" y="-70.0" name="bottom"/>
  <anchor x="593.88" y="1511.66" name="Top"/>
  <anchor x="284.88" y="399.28" name="Bar"/>
  <anchor x="593.88" y="1511.66" name="top"/>
  <outline>
    <contour>
      <point x="689.42" y="0.0" type="line" smooth="yes"/>
      <point x="1009.98" y="0.0"/>
      <point x="1193.1" y="164.56"/>
      <point x="1193.1" y="407.96" type="curve" smooth="yes"/>
      <point x="1193.1" y="633.52"/>
      <point x="1015.86" y="753.8"/>
      <point x="680.14" y="753.8" type="curve"/>
      <point x="642.9" y="705.52" type="line"/>
      <point x="981.9" y="705.52"/>
      <point x="1144.38" y="868.44"/>
      <point x="1144.38" y="1058.48" type="curve" smooth="yes"/>
      <point x="1144.38" y="1291.12"/>
      <point x="992.98" y="1432.4"/>
      <point x="639.74" y="1432.4" type="curve" smooth="yes"/>
      <point x="182.86" y="1432.4" type="line"/>
      <point x="182.86" y="0.0" type="line"/>
      <point x="376.42" y="0.0" type="line"/>
      <point x="376.42" y="1280.6399999999999" type="line"/>
      <point x="639.74" y="1280.6399999999999" type="line" smooth="yes"/>
      <point x="852.46" y="1280.6399999999999"/>
      <point x="951.74" y="1203.84"/>
      <point x="951.74" y="1035.8" type="curve" smooth="yes"/>
      <point x="951.74" y="891.04"/>
      <point x="850.54" y="790.2"/>
      <point x="632.46" y="790.2" type="curve"/>
      <point x="356.54" y="790.2" type="line"/>
      <point x="356.54" y="653.56" type="line"/>
      <point x="686.02" y="653.56" type="line" smooth="yes"/>
      <point x="897.42" y="653.56"/>
      <point x="1001.7" y="561.2"/>
      <point x="1001.7" y="412.28" type="curve" smooth="yes"/>
      <point x="1001.7" y="260.04"/>
      <point x="907.58" y="152.84"/>
      <point x="686.18" y="152.84" type="curve" smooth="yes"/>
      <point x="348.22" y="152.84" type="line"/>
      <point x="259.82" y="0.0" type="line"/>
    </contour>
  </outline>
</glyph>
<glyph name="D" format="2">
  <advance width="1520.62"/>
  <unicode hex="0044"/>
  <anchor x="684.66" y="1511.66" name="Top"/>
  <anchor x="687.14" y="-87.82" name="bottom"/>
  <anchor x="684.66" y="1511.66" name="top"/>
  <outline>
    <contour>
      <point x="1424.82" y="716.2" type="curve" smooth="yes"/>
      <point x="1424.82" y="1145.24"/>
      <point x="1140.3" y="1432.4"/>
      <point x="718.5" y="1432.4" type="curve"/>
      <point x="182.86" y="1432.4" type="line"/>
      <point x="182.86" y="0.0" type="line"/>
      <point x="718.5" y="0.0" type="line"/>
      <point x="1140.3" y="0.0"/>
      <point x="1424.82" y="286.08"/>
    </contour>
    <contour>
      <point x="1226.02" y="716.2" type="curve" smooth="yes"/>
      <point x="1226.02" y="363.2"/>
      <point x="1027.1" y="156.08"/>
      <point x="718.5" y="156.08" type="curve"/>
      <point x="377.5" y="156.08" type="line"/>
      <point x="377.5" y="1276.32" type="line"/>
      <point x="718.5" y="1276.32" type="line"/>
      <point x="1027.1" y="1276.32"/>
      <point x="1226.02" y="1068.12"/>
    </contour>
  </outline>
</glyph>
<glyph name="E" format="2">
  <advance width="1155"/>
  <unicode hex="0045"/>
  <anchor x="611.26" y="715.12" name="Slash"/>
  <anchor x="636.66" y="1511.66" name="Top"/>
  <anchor x="657.88" y="-70" name="bottom"/>
  <anchor x="-90.94" y="1120" name="onRight"/>
  <anchor x="636.66" y="1511.66" name="top"/>
  <outline>
    <contour>
      <point x="377.5" y="1432.4" type="line" name="n00"/>
      <point x="182.86" y="1432.4" type="line"/>
      <point x="182.86" y="0" type="line"/>
      <point x="377.5" y="0" type="line"/>
    </contour>
    <contour>
      <point x="356.54" y="798.68" type="line" name="n04"/>
      <point x="356.54" y="647.08" type="line" name="n05"/>
      <point x="934.86" y="647.08" type="line"/>
      <point x="934.86" y="798.68" type="line"/>
    </contour>
    <contour>
      <point x="356.54" y="1432.4" type="line" name="n08"/>
      <point x="356.54" y="1275.4" type="line" name="n09"/>
      <point x="1065.66" y="1275.4" type="line"/>
      <point x="1065.66" y="1432.4" type="line"/>
    </contour>
    <contour>
      <point x="356.54" y="157" type="line" name="n12"/>
      <point x="356.54" y="0" type="line" name="n13"/>
      <point x="1065.66" y="0" type="line"/>
      <point x="1066.58" y="157" type="line"/>
    </contour>
  </outline>
</glyph>
<glyph name="F" format="2">
  <advance width="1131"/>
  <unicode hex="0046"/>
  <anchor x="630.52" y="1511.66" name="Top"/>
  <anchor x="515.5" y="-70" name="bottom"/>
  <anchor x="630.52" y="1511.66" name="top"/>
  <outline>
    <contour>
      <point x="377.5" y="1432.4" type="line" name="n00"/>
      <point x="182.86" y="1432.4" type="line"/>
      <point x="182.86" y="0" type="line" name="n02"/>
      <point x="377.5" y="0" type="line"/>
    </contour>
    <contour>
      <point x="356.54" y="773.28" type="line" name="n04"/>
      <point x="356.54" y="616.28" type="line" name="n05"/>
      <point x="965.66" y="616.28" type="line"/>
      <point x="965.66" y="773.28" type="line"/>
    </contour>
    <contour>
      <point x="356.54" y="1432.4" type="line" name="n08"/>
      <point x="356.54" y="1275.4" type="line" name="n09"/>
      <point x="1065.66" y="1275.4" type="line"/>
      <point x="1065.66" y="1432.4" type="line"/>
    </contour>
  </outline>
</glyph>
<glyph name="G" format="2">
  <advance width="1461"/>
  <unicode hex="0047"/>
  <anchor x="829.28" y="1511.66" name="Top"/>
  <anchor x="836.4" y="-70" name="bottom"/>
  <anchor x="829.28" y="1511.66" name="top"/>
  <outline>
    <contour>
      <point x="1347.04" y="139.08" type="curve" name="n00"/>
      <point x="1347.04" y="688.4" type="line"/>
      <point x="907.24" y="688.4" type="line" name="n02"/>
      <point x="907.24" y="579.04" type="line" smooth="yes"/>
      <point x="907.24" y="557.76"/>
      <point x="924.04" y="540.96"/>
      <point x="949.48" y="540.96" type="curve" smooth="yes" name="n06"/>
      <point x="1171.68" y="540.96" type="line"/>
      <point x="1171.68" y="119.04" type="line" name="n08"/>
      <point x="1228.28" y="256.76" type="line"/>
      <point x="1107.28" y="185.44"/>
      <point x="1001.66" y="140.08"/>
      <point x="842.78" y="140.08" type="curve" smooth="yes" name="n12"/>
      <point x="505.26" y="140.08"/>
      <point x="291.68" y="355.32"/>
      <point x="291.68" y="716.2" type="curve" smooth="yes" name="n15"/>
      <point x="291.68" y="1062.72"/>
      <point x="497.68" y="1281.52"/>
      <point x="820.52" y="1281.52" type="curve" smooth="yes" name="n18"/>
      <point x="1043" y="1281.52"/>
      <point x="1134.64" y="1200.8"/>
      <point x="1200.16" y="1164.08" type="curve" smooth="yes"/>
      <point x="1233.16" y="1144.64"/>
      <point x="1262.16" y="1153.12"/>
      <point x="1279.28" y="1180.88" type="curve" smooth="yes"/>
      <point x="1334.04" y="1267.88" type="line"/>
      <point x="1212.36" y="1378.96"/>
      <point x="1054.44" y="1448.4"/>
      <point x="827" y="1448.4" type="curve" smooth="yes" name="n28"/>
      <point x="378.16" y="1448.4"/>
      <point x="93.8" y="1152.96"/>
      <point x="93.8" y="716.2" type="curve" smooth="yes" name="n31"/>
      <point x="93.8" y="282.84"/>
      <point x="387.88" y="-16"/>
      <point x="848.18" y="-16" type="curve" smooth="yes" name="n34"/>
      <point x="1040.84" y="-16"/>
      <point x="1203.64" y="36.44"/>
    </contour>
  </outline>
</glyph>
<glyph name="I" format="2">
  <advance width="560.36"/>
  <unicode hex="0049"/>
  <anchor x="283.26" y="1511.66" name="Top"/>
  <anchor x="-106.34" y="1120.0" name="onRight"/>
  <anchor x="283.26" y="1511.66" name="top"/>
  <anchor x="280.18" y="-70.0" name="bottom"/>
  <outline>
    <contour>
      <point x="377.5" y="1432.4" type="line"/>
      <point x="182.86" y="1432.4" type="line"/>
      <point x="182.86" y="0.0" type="line"/>
      <point x="377.5" y="0.0" type="line"/>
    </contour>
  </outline>
</glyph>
<glyph name="J" format="2">
  <advance width="845.24"/>
  <unicode hex="004A"/>
  <anchor x="579.52" y="1511.66" name="Top"/>
  <anchor x="564.42" y="715.12" name="Bar"/>
  <anchor x="579.52" y="1511.66" name="top"/>
  <anchor x="298.24" y="-70.0" name="bottom"/>
  <outline>
    <contour>
      <point x="676.84" y="1432.4" type="line"/>
      <point x="483.28" y="1432.4" type="line"/>
      <point x="483.28" y="490.88" type="line" smooth="yes"/>
      <point x="483.28" y="249.04000000000002"/>
      <point x="382.64" y="145.48000000000002"/>
      <point x="206.48" y="145.48000000000002" type="curve" smooth="yes"/>
      <point x="139.32" y="145.48000000000002"/>
      <point x="102.56" y="162.84"/>
      <point x="78.72" y="162.84" type="curve" smooth="yes"/>
      <point x="50.36" y="162.84"/>
      <point x="37.4" y="147.12"/>
      <point x="34.32" y="125.84" type="curve"/>
      <point x="31.08" y="88.2"/>
      <point x="26.92" y="49.480000000000004"/>
      <point x="23.68" y="11.84" type="curve"/>
      <point x="94.48" y="-7.08"/>
      <point x="160.04" y="-16.0"/>
      <point x="225.92000000000002" y="-16.0" type="curve" smooth="yes"/>
      <point x="515.92" y="-16.0"/>
      <point x="676.84" y="174.72"/>
      <point x="676.84" y="495.2" type="curve" smooth="yes"/>
    </contour>
  </outline>
</glyph>
<glyph name="L" format="2">
  <advance width="1027"/>
  <unicode hex="004C"/>
  <anchor x="282.18" y="715.12" name="Bar"/>
  <anchor x="292.6" y="1511.66" name="Top"/>
  <anchor x="566.5" y="-70" name="bottom"/>
  <anchor x="292.6" y="1511.66" name="top"/>
  <outline>
    <contour>
      <point x="376.42" y="1432.4" type="line" name="n00"/>
      <point x="182.86" y="1432.4" type="line"/>
      <point x="182.86" y="0" type="line"/>
      <point x="376.42" y="0" type="line" name="n03"/>
    </contour>
    <contour>
      <point x="356.54" y="162.4" type="line" name="n04"/>
      <point x="356.54" y="0" type="line" name="n05"/>
      <point x="996.46" y="0" type="line"/>
      <point x="996.46" y="162.4" type="line"/>
    </contour>
  </outline>
</glyph>
<glyph name="N" format="2">
  <advance width="1527.32"/>
  <unicode hex="004E"/>
  <anchor x="778.08" y="1510.74" name="Top"/>
  <anchor x="778.08" y="1510.74" name="top"/>
  <anchor x="763.66" y="-70.0" name="bottom"/>
  <outline>
    <contour>
      <point x="1209.62" y="279.20000000000005" type="line"/>
      <point x="349.58000000000004" y="1399.56" type="line"/>
      <point x="328.3" y="1427.16"/>
      <point x="316.74" y="1432.4"/>
      <point x="282.66" y="1432.4" type="curve" smooth="yes"/>
      <point x="182.86" y="1432.4" type="line"/>
      <point x="182.86" y="0.0" type="line"/>
      <point x="352.98" y="0.0" type="line"/>
      <point x="352.98" y="1022.64" type="line" smooth="yes"/>
      <point x="352.98" y="1079.68"/>
      <point x="346.66" y="1159.24"/>
      <point x="333.86" y="1216.28" type="curve"/>
      <point x="319.54" y="1153.2" type="line"/>
      <point x="1177.88" y="34.540000000000006" type="line" smooth="yes"/>
      <point x="1197.62" y="10.02"/>
      <point x="1216.28" y="0.0"/>
      <point x="1246.66" y="0.0" type="curve" smooth="yes"/>
      <point x="1344.46" y="0.0" type="line"/>
      <point x="1344.46" y="1432.4" type="line"/>
      <point x="1174.34" y="1432.4" type="line"/>
      <point x="1174.34" y="416.08000000000004" type="line" smooth="yes"/>
      <point x="1174.34" y="354.56"/>
      <point x="1182.82" y="270.52"/>
      <point x="1195.62" y="209.0" type="curve"/>
    </contour>
  </outline>
</glyph>
<glyph name="O" format="2">
  <advance width="1600.94"/>
  <unicode hex="004F"/>
  <anchor x="802.28" y="1511.66" name="Top"/>
  <anchor x="-58.86" y="1120.0" name="onRight"/>
  <anchor x="801.28" y="-70.0" name="bottom"/>
  <anchor x="804.2" y="715.12" name="Slash"/>
  <anchor x="802.28" y="1511.66" name="top"/>
  <outline>
    <contour>
      <point x="1506.6" y="716.2" type="curve" smooth="yes"/>
      <point x="1506.6" y="1145.24"/>
      <point x="1222.08" y="1448.4"/>
      <point x="800.28" y="1448.4" type="curve" smooth="yes"/>
      <point x="380.32" y="1448.4"/>
      <point x="93.8" y="1145.4"/>
      <point x="93.8" y="716.2" type="curve" smooth="yes"/>
      <point x="93.8" y="286.08"/>
      <point x="380.32" y="-15.08"/>
      <point x="800.28" y="-15.08" type="curve" smooth="yes"/>
      <point x="1222.08" y="-15.08"/>
      <point x="1506.6" y="286.08"/>
    </contour>
    <contour>
      <point x="1307.8" y="716.2" type="curve" smooth="yes"/>
      <point x="1307.8" y="363.2"/>
      <point x="1108.88" y="151.8"/>
      <point x="800.28" y="151.8" type="curve" smooth="yes"/>
      <point x="493.36" y="151.8"/>
      <point x="291.68" y="363.2"/>
      <point x="291.68" y="716.2" type="curve" smooth="yes"/>
      <point x="291.68" y="1068.12"/>
      <point x="493.36" y="1281.52"/>
      <point x="800.28" y="1281.52" type="curve" smooth="yes"/>
      <point x="1108.88" y="1281.52"/>
      <point x="1307.8" y="1068.12"/>
    </contour>
  </outline>
</glyph>
<glyph name="Q" format="2">
  <advance width="1601"/>
  <unicode hex="0051"/>
  <anchor x="804.74" y="715.12" name="Slash"/>
  <anchor x="802.82" y="1511.66" name="Top"/>
  <anchor x="801.82" y="-70" name="bottom"/>
  <anchor x="-58.32" y="1120" name="onRight"/>
  <anchor x="802.82" y="1511.66" name="top"/>
  <outline>
    <component base="O" xOffset="0.54"/>
    <contour>
      <point x="1171.42" y="140.04" type="line" name="n00"/>
      <point x="957.66" y="122" type="line"/>
      <point x="1299.14" y="-251.04" type="line" smooth="yes"/>
      <point x="1330.14" y="-284.2"/>
      <point x="1366.38" y="-295.76" name="n04"/>
      <point x="1414.18" y="-295.76" type="curve" smooth="yes"/>
      <point x="1574.42" y="-295.76" type="line"/>
    </contour>
  </outline>
</glyph>
<glyph name="R" format="2">
  <advance width="1253"/>
  <unicode hex="0052"/>
  <anchor x="595.9" y="1511.66" name="Top"/>
  <anchor x="679.44" y="-70" name="bottom"/>
  <anchor x="595.9" y="1511.66" name="top"/>
  <outline>
    <contour>
      <point x="523.14" y="598.24" type="line" smooth="yes"/>
      <point x="576.98" y="598.24"/>
      <point x="598.22" y="585.92"/>
      <point x="620.22" y="553.6" type="curve"/>
      <point x="991.94" y="41.16" type="line"/>
      <point x="1009.5" y="12.96"/>
      <point x="1034.94" y="0" name="n06"/>
      <point x="1069.78" y="0" type="curve" smooth="yes"/>
      <point x="1242.38" y="0" type="line"/>
      <point x="823.82" y="569" type="line"/>
      <point x="770.06" y="648.36"/>
      <point x="689.14" y="668.56"/>
      <point x="585.38" y="668.56" type="curve"/>
      <point x="548.18" y="613.36" type="line"/>
      <point x="595.78" y="613.36" type="line" smooth="yes" name="n14"/>
      <point x="915.74" y="613.36"/>
      <point x="1113.14" y="786.68"/>
      <point x="1113.14" y="1035.96" type="curve" smooth="yes" name="n17"/>
      <point x="1113.14" y="1280.28"/>
      <point x="950.06" y="1432.4"/>
      <point x="587.86" y="1432.4" type="curve" smooth="yes" name="n20"/>
      <point x="182.86" y="1432.4" type="line"/>
      <point x="182.86" y="0" type="line"/>
      <point x="376.42" y="0" type="line" name="n23"/>
      <point x="376.42" y="1280.64" type="line"/>
      <point x="587.86" y="1280.64" type="line" smooth="yes" name="n25"/>
      <point x="809.7" y="1280.64"/>
      <point x="923.9" y="1192.68"/>
      <point x="923.9" y="1021.92" type="curve" smooth="yes" name="n28"/>
      <point x="923.9" y="853.76"/>
      <point x="804.98" y="739.2"/>
      <point x="579.58" y="739.2" type="curve" smooth="yes" name="n31"/>
      <point x="310.26" y="739.2" type="line"/>
      <point x="286.5" y="598.24" type="line" name="n33"/>
    </contour>
  </outline>
</glyph>
<glyph name="S" format="2">
  <advance width="1085.0"/>
  <unicode hex="0053"/>
  <anchor x="588.34" y="1511.66" name="Top"/>
  <anchor x="516.82" y="-70.0" name="bottom"/>
  <anchor x="588.34" y="1511.66" name="top"/>
  <outline>
    <contour>
      <point x="962.84" y="1300.68" type="line"/>
      <point x="864.36" y="1396.68"/>
      <point x="729.8" y="1448.4"/>
      <point x="571.12" y="1448.4" type="curve" smooth="yes"/>
      <point x="287.0" y="1448.4"/>
      <point x="127.24" y="1257.24"/>
      <point x="127.24" y="1055.48" type="curve" smooth="yes"/>
      <point x="127.24" y="547.04"/>
      <point x="812.96" y="754.24"/>
      <point x="812.96" y="407.28" type="curve" smooth="yes"/>
      <point x="812.96" y="250.2"/>
      <point x="705.08" y="144.4"/>
      <point x="520.52" y="144.4" type="curve" smooth="yes"/>
      <point x="300.8" y="144.4"/>
      <point x="221.28" y="288.32"/>
      <point x="167.04000000000002" y="288.32" type="curve" smooth="yes"/>
      <point x="148.08" y="288.32"/>
      <point x="132.04" y="277.68"/>
      <point x="121.56" y="262.88" type="curve" smooth="yes"/>
      <point x="65.72" y="171.4" type="line"/>
      <point x="172.51999999999998" y="57.4"/>
      <point x="330.36" y="-16.0"/>
      <point x="515.12" y="-16.0" type="curve" smooth="yes"/>
      <point x="819.52" y="-16.0"/>
      <point x="994.8" y="184.36"/>
      <point x="994.8" y="435.04" type="curve" smooth="yes"/>
      <point x="994.8" y="907.56"/>
      <point x="308.0" y="743.52"/>
      <point x="308.0" y="1065.2" type="curve" smooth="yes"/>
      <point x="308.0" y="1190.0"/>
      <point x="399.44" y="1289.08"/>
      <point x="573.28" y="1289.08" type="curve" smooth="yes"/>
      <point x="756.24" y="1289.08"/>
      <point x="825.64" y="1179.6"/>
      <point x="871.08" y="1179.6" type="curve" smooth="yes"/>
      <point x="891.28" y="1179.6"/>
      <point x="903.92" y="1189.16"/>
      <point x="915.64" y="1209.36" type="curve"/>
    </contour>
  </outline>
</glyph>
<glyph name="T" format="2">
  <advance width="1181.2"/>
  <unicode hex="0054"/>
  <anchor x="593.68" y="1511.66" name="Top"/>
  <anchor x="593.68" y="-70.0" name="bottom"/>
  <anchor x="613.82" y="715.12" name="Slash"/>
  <anchor x="593.68" y="1511.66" name="top"/>
  <outline>
    <contour>
      <point x="688.3" y="1384.6" type="line"/>
      <point x="494.74" y="1384.6" type="line"/>
      <point x="494.74" y="0.0" type="line"/>
      <point x="688.3" y="0.0" type="line"/>
    </contour>
    <contour>
      <point x="29.54" y="1432.4" type="line"/>
      <point x="29.54" y="1271.08" type="line"/>
      <point x="1151.66" y="1271.08" type="line"/>
      <point x="1151.66" y="1432.4" type="line"/>
    </contour>
  </outline>
</glyph>
<glyph name="U" format="2">
  <advance width="1471"/>
  <unicode hex="0055"/>
  <anchor x="735.66" y="1511.66" name="Top"/>
  <anchor x="735.66" y="-70" name="bottom"/>
  <anchor x="735.66" y="1511.66" name="top"/>
  <outline>
    <contour>
      <point x="735.66" y="153.04" type="curve" smooth="yes" name="n00"/>
      <point x="498.46" y="153.04"/>
      <point x="358.42" y="323.48"/>
      <point x="358.42" y="563.04" type="curve" smooth="yes"/>
      <point x="358.42" y="1432.4" type="line" name="n04"/>
      <point x="164.86" y="1432.4" type="line" name="n05"/>
      <point x="164.86" y="562.12" type="line" smooth="yes"/>
      <point x="164.86" y="231.56"/>
      <point x="382.62" y="-16.92"/>
      <point x="735.66" y="-16.92" type="curve" smooth="yes" name="n09"/>
      <point x="1088.7" y="-16.92"/>
      <point x="1306.46" y="231.56"/>
      <point x="1306.46" y="562.12" type="curve" smooth="yes"/>
      <point x="1306.46" y="1432.4" type="line" name="n13"/>
      <point x="1112.9" y="1432.4" type="line" name="n14"/>
      <point x="1112.9" y="562.12" type="line" smooth="yes"/>
      <point x="1112.9" y="322.56"/>
      <point x="972.86" y="153.04"/>
    </contour>
  </outline>
</glyph>
<glyph name="V" format="2">
  <advance width="1353.92"/>
  <unicode hex="0056"/>
  <anchor x="679.04" y="1511.66" name="Top"/>
  <anchor x="679.04" y="1511.66" name="top"/>
  <anchor x="676.96" y="-70.0" name="bottom"/>
  <outline>
    <contour>
      <point x="1348.18" y="1432.4" type="line"/>
      <point x="1192.86" y="1432.4" type="line" smooth="yes"/>
      <point x="1159.86" y="1432.4"/>
      <point x="1135.5" y="1410.04"/>
      <point x="1127.02" y="1386.76" type="curve"/>
      <point x="723.74" y="374.24" type="line" smooth="yes"/>
      <point x="684.58" y="272.48"/>
      <point x="656.06" y="119.48"/>
      <point x="650.06" y="0.0" type="curve"/>
      <point x="764.1800000000001" y="0.0" type="line"/>
    </contour>
    <contour>
      <point x="589.74" y="0.0" type="line"/>
      <point x="708.1800000000001" y="0.0" type="line"/>
      <point x="709.74" y="119.48"/>
      <point x="670.42" y="272.48"/>
      <point x="631.26" y="374.24" type="curve" smooth="yes"/>
      <point x="226.9" y="1386.76" type="line"/>
      <point x="216.26000000000002" y="1413.28"/>
      <point x="194.98000000000002" y="1432.4"/>
      <point x="160.9" y="1432.4" type="curve" smooth="yes"/>
      <point x="5.739999999999995" y="1432.4" type="line"/>
    </contour>
  </outline>
</glyph>
<glyph name="W" format="2">
  <advance width="2071"/>
  <unicode hex="0057"/>
  <anchor x="1034.56" y="1511.66" name="Top"/>
  <anchor x="1035.56" y="-70" name="bottom"/>
  <anchor x="1034.56" y="1511.66" name="top"/>
  <outline>
    <contour>
      <point x="1014.04" y="1432.4" type="line" smooth="yes" name="n00"/>
      <point x="981.04" y="1432.4"/>
      <point x="955.6" y="1410.04"/>
      <point x="948.2" y="1386.76" type="curve" smooth="yes"/>
      <point x="611.46" y="389.18" type="line" smooth="yes"/>
      <point x="576.46" y="286.34"/>
      <point x="555.96" y="119.48"/>
      <point x="549.96" y="0" type="curve" name="n07"/>
      <point x="652.36" y="0" type="line"/>
      <point x="1016.84" y="1094.52" type="line" smooth="yes"/>
      <point x="1042.28" y="1169.3"/>
      <point x="1064.18" y="1300.56"/>
      <point x="1066.18" y="1375.04" type="curve"/>
      <point x="1007.1" y="1375.04" type="line"/>
      <point x="1009.1" y="1300.56"/>
      <point x="1031" y="1169.76"/>
      <point x="1056.44" y="1094.52" type="curve" smooth="yes"/>
      <point x="1418.76" y="0" type="line"/>
      <point x="1536.28" y="0" type="line"/>
      <point x="1529.2" y="119.48"/>
      <point x="1507.62" y="286.34"/>
      <point x="1471.54" y="389.18" type="curve"/>
      <point x="1135.88" y="1386.76" type="line"/>
      <point x="1125.24" y="1413.28"/>
      <point x="1103.96" y="1432.4"/>
      <point x="1069.88" y="1432.4" type="curve" smooth="yes"/>
    </contour>
    <contour>
      <point x="477.92" y="0" type="line"/>
      <point x="613.8" y="0" type="line"/>
      <point x="606.72" y="119.48"/>
      <point x="580.82" y="284.18"/>
      <point x="554.46" y="389.18" type="curve"/>
      <point x="258.32" y="1386.76" type="line"/>
      <point x="250.92" y="1414.36"/>
      <point x="226.4" y="1432.4"/>
      <point x="192.32" y="1432.4" type="curve" smooth="yes"/>
      <point x="30.68" y="1432.4" type="line"/>
    </contour>
    <contour>
      <point x="2040.44" y="1432.4" type="line"/>
      <point x="1889.44" y="1432.4" type="line" smooth="yes"/>
      <point x="1856.44" y="1432.4"/>
      <point x="1829.92" y="1411.12"/>
      <point x="1823.6" y="1386.76" type="curve"/>
      <point x="1527.46" y="389.18" type="line"/>
      <point x="1501.1" y="285.26"/>
      <point x="1477.36" y="119.48"/>
      <point x="1471.36" y="0" type="curve"/>
      <point x="1593.2" y="0" type="line"/>
    </contour>
  </outline>
  <guideline angle="0" x="0" y="83"/>
</glyph>
<glyph name="X" format="2">
  <advance width="1297.66"/>
  <unicode hex="0058"/>
  <anchor x="648.14" y="1511.66" name="Top"/>
  <anchor x="648.14" y="1511.66" name="top"/>
  <anchor x="648.6" y="-70.0" name="bottom"/>
  <outline>
    <contour>
      <point x="529.14" y="713.08" type="line"/>
      <point x="734.42" y="713.08" type="line"/>
      <point x="282.38" y="1405.44" type="line"/>
      <point x="271.9" y="1422.4"/>
      <point x="261.42" y="1432.4"/>
      <point x="233.06" y="1432.4" type="curve" smooth="yes"/>
      <point x="40.419999999999995" y="1432.4" type="line"/>
    </contour>
    <contour>
      <point x="1260.02" y="1432.4" type="line"/>
      <point x="1074.94" y="1432.4" type="line" smooth="yes"/>
      <point x="1055.06" y="1432.4"/>
      <point x="1041.5" y="1421.16"/>
      <point x="1029.94" y="1402.2" type="curve"/>
      <point x="677.5" y="876.84" type="line"/>
      <point x="645.74" y="823.8"/>
      <point x="641.74" y="776.92"/>
      <point x="640.66" y="713.08" type="curve"/>
      <point x="762.66" y="713.08" type="line"/>
    </contour>
    <contour>
      <point x="768.98" y="768.28" type="line"/>
      <point x="561.54" y="768.28" type="line"/>
      <point x="1029.1" y="36.68" type="line"/>
      <point x="1039.58" y="18.64"/>
      <point x="1055.46" y="0.0"/>
      <point x="1083.82" y="0.0" type="curve" smooth="yes"/>
      <point x="1276.46" y="0.0" type="line"/>
    </contour>
    <contour>
      <point x="19.659999999999997" y="0.0" type="line"/>
      <point x="200.42000000000002" y="0.0" type="line" smooth="yes"/>
      <point x="225.70000000000002" y="0.0"/>
      <point x="240.5" y="18.8"/>
      <point x="252.98000000000002" y="36.68" type="curve"/>
      <point x="627.1" y="598.04" type="line"/>
      <point x="653.3" y="640.28"/>
      <point x="659.78" y="703.52"/>
      <point x="661.78" y="768.28" type="curve"/>
      <point x="535.46" y="768.28" type="line"/>
    </contour>
  </outline>
</glyph>
<glyph name="Y" format="2">
  <advance width="1248.0"/>
  <unicode hex="0059"/>
  <guideline y="662.0"/>
  <anchor x="625.62" y="1511.66" name="Top"/>
  <anchor x="-189.76" y="1120.0" name="onRight"/>
  <anchor x="625.62" y="1511.66" name="top"/>
  <anchor x="624.0" y="-70.0" name="bottom"/>
  <outline>
    <contour>
      <point x="1246.02" y="1432.4" type="line"/>
      <point x="1074.82" y="1432.4" type="line" smooth="yes"/>
      <point x="1041.82" y="1432.4"/>
      <point x="1020.54" y="1409.88"/>
      <point x="1008.98" y="1387.68" type="curve" smooth="yes"/>
      <point x="682.16" y="830.48" type="line" smooth="yes"/>
      <point x="632.06" y="733.04"/>
      <point x="603.1" y="660.28"/>
      <point x="597.1" y="555.28" type="curve"/>
      <point x="711.22" y="555.28" type="line"/>
    </contour>
    <contour>
      <point x="536.78" y="555.28" type="line"/>
      <point x="655.22" y="555.28" type="line"/>
      <point x="650.3" y="661.36"/>
      <point x="618.56" y="731.96"/>
      <point x="566.92" y="830.48" type="curve" smooth="yes"/>
      <point x="239.02" y="1387.68" type="line" smooth="yes"/>
      <point x="225.3" y="1414.2"/>
      <point x="206.18" y="1432.4"/>
      <point x="172.10000000000002" y="1432.4" type="curve" smooth="yes"/>
      <point x="1.9799999999999969" y="1432.4" type="line"/>
    </contour>
    <contour>
      <point x="720.78" y="609.08" type="line"/>
      <point x="527.22" y="609.08" type="line"/>
      <point x="527.22" y="0.0" type="line"/>
      <point x="720.78" y="0.0" type="line"/>
    </contour>
  </outline>
</glyph>
<glyph name="Z" format="2">
  <advance width="1204.2"/>
  <unicode hex="005A"/>
  <anchor x="619.58" y="1511.66" name="Top"/>
  <anchor x="624.96" y="-70.0" name="bottom"/>
  <anchor x="619.58" y="1511.66" name="top"/>
  <outline>
    <contour>
      <point x="1118.54" y="1297.16" type="line" smooth="yes"/>
      <point x="1132.1" y="1317.04"/>
      <point x="1139.5" y="1339.24"/>
      <point x="1139.5" y="1361.44" type="curve" smooth="yes"/>
      <point x="1139.5" y="1432.4" type="line"/>
      <point x="997.3" y="1432.4" type="line"/>
      <point x="72.25999999999999" y="132.16000000000003" type="line"/>
      <point x="60.7" y="115.36000000000001"/>
      <point x="53.3" y="96.24000000000001"/>
      <point x="53.3" y="75.28" type="curve" smooth="yes"/>
      <point x="53.3" y="0.0" type="line"/>
      <point x="195.5" y="0.0" type="line"/>
    </contour>
    <contour>
      <point x="90.9" y="1432.4" type="line"/>
      <point x="90.9" y="1275.4" type="line"/>
      <point x="1036.02" y="1275.4" type="line"/>
      <point x="1139.5" y="1432.4" type="line"/>
    </contour>
    <contour>
      <point x="155.7" y="157.0" type="line"/>
      <point x="53.3" y="0.0" type="line"/>
      <point x="1126.7" y="0.0" type="line"/>
      <point x="1126.7" y="157.0" type="line"/>
    </contour>
  </outline>
</glyph>
<glyph name="bracketleft" format="2">
  <advance width="612"/>
  <unicode hex="005B"/>
  <outline>
    <contour>
      <point x="550.16" y="1533.32" type="line"/>
      <point x="182.2" y="1533.32" type="line" name="n01"/>
      <point x="182.2" y="1415.96" type="line" name="n02"/>
      <point x="500.52" y="1415.96" type="line" smooth="yes"/>
      <point x="529.96" y="1415.96"/>
      <point x="550.16" y="1437.24"/>
      <point x="550.16" y="1463.6" type="curve" smooth="yes"/>
    </contour>
    <contour>
      <point x="550.16" y="-288.44" type="line"/>
      <point x="550.16" y="-218.72" type="line" smooth="yes"/>
      <point x="550.16" y="-192.36"/>
      <point x="529.96" y="-171.08"/>
      <point x="500.52" y="-171.08" type="curve" smooth="yes"/>
      <point x="182.2" y="-171.08" type="line" name="n12"/>
      <point x="182.2" y="-288.44" type="line" name="n13"/>
    </contour>
    <contour>
      <point x="331.64" y="1533.32" type="line" name="n14"/>
      <point x="182.2" y="1533.32" type="line"/>
      <point x="182.2" y="-288.44" type="line"/>
      <point x="331.64" y="-288.44" type="line"/>
    </contour>
  </outline>
</glyph>
<glyph name="backslash" format="2">
  <advance width="904"/>
  <unicode hex="005C"/>
  <outline>
    <contour>
      <point x="664.52" y="-21.72" type="line"/>
      <point x="681.48" y="-67.36"/>
      <point x="723.88" y="-89.88" name="n02"/>
      <point x="762.12" y="-89.88" type="curve" smooth="yes"/>
      <point x="837.08" y="-89.88" type="line"/>
      <point x="235.96" y="1407.48" type="line"/>
      <point x="220.08" y="1448.96"/>
      <point x="186" y="1472.4" name="n07"/>
      <point x="142.52" y="1472.4" type="curve" smooth="yes"/>
      <point x="66.64" y="1472.4" type="line"/>
    </contour>
  </outline>
</glyph>
<glyph name="bracketright" format="2">
  <advance width="612.02"/>
  <unicode hex="005D"/>
  <outline>
    <contour>
      <point x="61.86" y="1463.6" type="line"/>
      <point x="61.86" y="1437.24"/>
      <point x="82.06" y="1415.96"/>
      <point x="111.5" y="1415.96" type="curve" smooth="yes"/>
      <point x="429.82" y="1415.96" type="line"/>
      <point x="429.82" y="1533.32" type="line"/>
      <point x="61.86" y="1533.32" type="line"/>
    </contour>
    <contour>
      <point x="429.82" y="-288.44" type="line"/>
      <point x="429.82" y="-171.07999999999998" type="line"/>
      <point x="111.5" y="-171.07999999999998" type="line" smooth="yes"/>
      <point x="82.06" y="-171.07999999999998"/>
      <point x="61.86" y="-192.36"/>
      <point x="61.86" y="-218.72" type="curve" smooth="yes"/>
      <point x="61.86" y="-288.44" type="line"/>
    </contour>
    <contour>
      <point x="280.38" y="-288.44" type="line"/>
      <point x="429.82" y="-288.44" type="line"/>
      <point x="429.82" y="1533.32" type="line"/>
      <point x="280.38" y="1533.32" type="line"/>
    </contour>
  </outline>
</glyph>
<glyph name="asciicircum" format="2">
  <advance width="1160"/>
  <unicode hex="005E"/>
  <outline>
    <contour>
      <point x="132.4" y="696.36" type="line" name="n00"/>
      <point x="268.44" y="696.36" type="line" smooth="yes"/>
      <point x="294.64" y="696.36"/>
      <point x="311.9" y="711.38"/>
      <point x="319.76" y="729.8" type="curve"/>
      <point x="542.56" y="1174.32" type="line"/>
      <point x="582.1" y="1263.28"/>
      <point x="600.2" y="1328.48"/>
      <point x="602.2" y="1432.4" type="curve" name="n08"/>
      <point x="520" y="1432.4" type="line"/>
    </contour>
    <contour>
      <point x="634.6" y="1432.4" type="line"/>
      <point x="556.72" y="1432.4" type="line"/>
      <point x="557.64" y="1328.48"/>
      <point x="575.2" y="1263.82"/>
      <point x="618.52" y="1174.32" type="curve"/>
      <point x="848.88" y="729.8" type="line" smooth="yes"/>
      <point x="858.28" y="710.46"/>
      <point x="874.92" y="696.36"/>
      <point x="898.04" y="696.36" type="curve" smooth="yes"/>
      <point x="1027.6" y="696.36" type="line"/>
    </contour>
  </outline>
</glyph>
<glyph name="underscore" format="2">
  <advance width="918"/>
  <unicode hex="005F"/>
  <outline>
    <contour>
      <point x="65.2" y="-165.48" type="line" name="n00"/>
      <point x="65.2" y="-284.68" type="line" name="n01"/>
      <point x="853.2" y="-284.68" type="line"/>
      <point x="853.2" y="-165.48" type="line"/>
    </contour>
  </outline>
</glyph>
<glyph name="a" format="2">
  <advance width="994.06"/>
  <unicode hex="0061"/>
  <anchor x="489.38" y="1120.0" name="top"/>
  <anchor x="863.8" y="129.08" name="hook"/>
  <anchor x="497.64" y="-70.0" name="bottom"/>
  <outline>
    <contour>
      <point x="863.8" y="648.0" type="line"/>
      <point x="863.8" y="875.88"/>
      <point x="739.24" y="1030.56"/>
      <point x="511.16" y="1030.56" type="curve" smooth="yes"/>
      <point x="354.64" y="1030.56"/>
      <point x="226.24" y="976.56"/>
      <point x="115.12" y="870.24" type="curve"/>
      <point x="147.2" y="813.32" type="line" smooth="yes"/>
      <point x="158.76" y="795.28"/>
      <point x="175.88" y="780.3199999999999"/>
      <point x="200.4" y="780.3199999999999" type="curve" smooth="yes"/>
      <point x="262.36" y="780.3199999999999"/>
      <point x="315.04" y="887.44"/>
      <point x="489.56" y="887.44" type="curve" smooth="yes"/>
      <point x="620.2" y="887.44"/>
      <point x="689.68" y="805.4"/>
      <point x="689.68" y="648.0" type="curve"/>
      <point x="689.68" y="625.82" type="line"/>
      <point x="863.8" y="625.82" type="line"/>
    </contour>
    <contour>
      <point x="863.8" y="0.0" type="line"/>
      <point x="863.8" y="639.76" type="line"/>
      <point x="689.68" y="639.76" type="line"/>
      <point x="689.68" y="198.2" type="line"/>
      <point x="722.68" y="41.92" type="line"/>
      <point x="733.48" y="9.24"/>
      <point x="750.28" y="0.0"/>
      <point x="785.28" y="0.0" type="curve" smooth="yes"/>
    </contour>
    <contour>
      <point x="735.16" y="168.56" type="curve"/>
      <point x="711.12" y="268.96000000000004" type="line"/>
      <point x="623.0" y="170.52"/>
      <point x="539.08" y="108.76"/>
      <point x="402.6" y="108.76" type="curve" smooth="yes"/>
      <point x="310.2" y="108.76"/>
      <point x="236.16000000000003" y="153.92000000000002"/>
      <point x="236.16000000000003" y="261.32" type="curve" smooth="yes"/>
      <point x="236.16000000000003" y="376.4"/>
      <point x="367.8" y="448.96"/>
      <point x="716.2" y="457.72" type="curve"/>
      <point x="694.6" y="568.44" type="line"/>
      <point x="231.32" y="558.44"/>
      <point x="65.28" y="414.48"/>
      <point x="65.28" y="252.68" type="curve" smooth="yes"/>
      <point x="65.28" y="70.36"/>
      <point x="192.8" y="-16.0"/>
      <point x="349.68" y="-16.0" type="curve" smooth="yes"/>
      <point x="519.8" y="-16.0"/>
      <point x="614.84" y="52.12"/>
    </contour>
  </outline>
</glyph>
<glyph name="b" format="2">
  <advance width="1120"/>
  <unicode hex="0062"/>
  <anchor x="272.68" y="1511.66" name="Top"/>
  <anchor x="230.02" y="1238" name="bar"/>
  <anchor x="563.4" y="-70" name="bottom"/>
  <anchor x="684.62" y="129.08" name="hook"/>
  <anchor x="628.98" y="1120" name="top"/>
  <outline>
    <contour>
      <point x="256.26" y="0" type="line" smooth="yes" name="n00"/>
      <point x="282.46" y="0"/>
      <point x="296.34" y="11.24"/>
      <point x="301.74" y="37.76" type="curve"/>
      <point x="314.38" y="163.34" type="line" name="n04"/>
      <point x="319.78" y="176.74" type="line"/>
      <point x="319.78" y="1472.4" type="line" name="n06"/>
      <point x="141.34" y="1472.4" type="line"/>
      <point x="141.34" y="0" type="line"/>
    </contour>
    <contour>
      <point x="294.66" y="151.92" type="line" name="n09"/>
      <point x="366.5" y="47.84"/>
      <point x="455.82" y="-14.16"/>
      <point x="599.26" y="-14.16" type="curve" smooth="yes" name="n12"/>
      <point x="868.54" y="-14.16"/>
      <point x="1034.74" y="204.86"/>
      <point x="1034.74" y="532.58" type="curve" smooth="yes" name="n15"/>
      <point x="1034.74" y="840.74"/>
      <point x="888.18" y="1028.4"/>
      <point x="649.88" y="1028.4" type="curve" smooth="yes" name="n18"/>
      <point x="485.76" y="1028.4"/>
      <point x="366.62" y="939.64"/>
      <point x="276.46" y="809.68" type="curve"/>
      <point x="297.74" y="702.68" type="line"/>
      <point x="375.86" y="819.2"/>
      <point x="463.14" y="887.44"/>
      <point x="591.02" y="887.44" type="curve" smooth="yes" name="n25"/>
      <point x="757.16" y="887.44"/>
      <point x="850.9" y="773.34"/>
      <point x="850.9" y="525.72" type="curve" smooth="yes" name="n28"/>
      <point x="850.9" y="260.66"/>
      <point x="746.2" y="123.56"/>
      <point x="555.6" y="123.56" type="curve" smooth="yes" name="n31"/>
      <point x="457.8" y="123.56"/>
      <point x="376.18" y="159.2"/>
      <point x="308.7" y="259.52" type="curve"/>
    </contour>
  </outline>
</glyph>
<glyph name="d" format="2">
  <advance width="1120.48"/>
  <unicode hex="0064"/>
  <anchor x="506.0" y="1120.0" name="top"/>
  <anchor x="979.14" y="129.08" name="hook"/>
  <anchor x="889.92" y="1238.0" name="bar"/>
  <anchor x="851.04" y="1511.66" name="Top"/>
  <anchor x="606.98" y="-70.0" name="bottom"/>
  <outline>
    <contour>
      <point x="979.14" y="0.0" type="line"/>
      <point x="979.14" y="1472.4" type="line"/>
      <point x="800.7" y="1472.4" type="line"/>
      <point x="800.7" y="194.38" type="line"/>
      <point x="806.1" y="183.9" type="line"/>
      <point x="825.22" y="36.52" type="line"/>
      <point x="831.7" y="11.56"/>
      <point x="847.58" y="0.0"/>
      <point x="872.7" y="0.0" type="curve" smooth="yes"/>
    </contour>
    <contour>
      <point x="838.78" y="863.4" type="line"/>
      <point x="763.7" y="968.56"/>
      <point x="671.14" y="1030.56"/>
      <point x="523.3" y="1030.56" type="curve" smooth="yes"/>
      <point x="250.1" y="1030.56"/>
      <point x="85.74" y="802.24"/>
      <point x="85.74" y="503.12" type="curve" smooth="yes"/>
      <point x="85.74" y="166.36"/>
      <point x="235.62" y="-14.16"/>
      <point x="469.1" y="-14.16" type="curve" smooth="yes"/>
      <point x="633.9" y="-14.16"/>
      <point x="753.86" y="76.76"/>
      <point x="844.02" y="206.72" type="curve"/>
      <point x="822.74" y="313.72" type="line"/>
      <point x="744.62" y="197.2"/>
      <point x="654.9" y="128.96"/>
      <point x="527.42" y="128.96" type="curve" smooth="yes"/>
      <point x="364.1" y="128.96"/>
      <point x="269.58000000000004" y="238.52"/>
      <point x="269.58000000000004" y="503.12" type="curve" smooth="yes"/>
      <point x="269.58000000000004" y="751.2"/>
      <point x="375.66" y="892.84"/>
      <point x="563.26" y="892.84" type="curve" smooth="yes"/>
      <point x="664.06" y="892.84"/>
      <point x="744.3" y="857.2"/>
      <point x="811.78" y="756.88" type="curve"/>
    </contour>
  </outline>
</glyph>
<glyph name="f" format="2">
  <advance width="701"/>
  <unicode hex="0066"/>
  <anchor x="438.6" y="1511.66" name="Top"/>
  <anchor x="296.52" y="500.14" name="bar"/>
  <anchor x="296.52" y="-70" name="bottom"/>
  <anchor x="385.74" y="129.08" name="hook"/>
  <anchor x="504.38" y="1498.68" name="top"/>
  <outline>
    <contour>
      <point x="385.74" y="0" type="line" name="n00"/>
      <point x="385.74" y="934.64" type="line"/>
      <point x="380.34" y="955.6" type="line"/>
      <point x="380.34" y="1085.84" type="line" smooth="yes" name="n03"/>
      <point x="380.34" y="1259.24"/>
      <point x="461.04" y="1317.32"/>
      <point x="583.92" y="1317.32" type="curve" smooth="yes" name="n06"/>
      <point x="639.08" y="1317.32"/>
      <point x="673.18" y="1313.08"/>
      <point x="676.1" y="1345.12" type="curve"/>
      <point x="680.26" y="1434.12" type="line"/>
      <point x="642.54" y="1447.04"/>
      <point x="599.24" y="1453.96"/>
      <point x="554.76" y="1453.96" type="curve" smooth="yes" name="n13"/>
      <point x="342.6" y="1453.96"/>
      <point x="207.3" y="1322.8"/>
      <point x="207.3" y="1091.24" type="curve" smooth="yes" name="n16"/>
      <point x="207.3" y="0" type="line"/>
    </contour>
    <contour>
      <point x="672.1" y="864" type="line" name="n18"/>
      <point x="672.1" y="993.08" type="line" name="n19"/>
      <point x="47.5" y="993.08" type="line"/>
      <point x="47.5" y="920.28" type="line" smooth="yes"/>
      <point x="47.5" y="893.6"/>
      <point x="66.62" y="879.88"/>
      <point x="95.14" y="874.48" type="curve"/>
      <point x="240.3" y="858.6" type="line"/>
      <point x="268.34" y="864" type="line"/>
    </contour>
  </outline>
</glyph>
<glyph name="g" format="2">
  <advance width="1040.18"/>
  <unicode hex="0067"/>
  <guideline x="544.26"/>
  <anchor x="517.1" y="1120.0" name="top"/>
  <anchor x="518.58" y="-421.0" name="bottom"/>
  <outline>
    <contour>
      <point x="493.56" y="1029.48" type="curve" smooth="yes"/>
      <point x="269.04" y="1029.48"/>
      <point x="109.72" y="901.48"/>
      <point x="109.72" y="703.44" type="curve" smooth="yes"/>
      <point x="109.72" y="505.56"/>
      <point x="269.04" y="377.4"/>
      <point x="493.56" y="377.4" type="curve" smooth="yes"/>
      <point x="713.92" y="377.4"/>
      <point x="873.08" y="505.56"/>
      <point x="873.08" y="703.44" type="curve" smooth="yes"/>
      <point x="873.08" y="901.48"/>
      <point x="713.92" y="1029.48"/>
    </contour>
    <contour>
      <point x="493.56" y="494.6" type="curve" smooth="yes"/>
      <point x="351.08" y="494.6"/>
      <point x="273.04" y="579.12"/>
      <point x="273.04" y="699.12" type="curve" smooth="yes"/>
      <point x="273.04" y="822.36"/>
      <point x="351.08" y="902.56"/>
      <point x="493.56" y="902.56" type="curve" smooth="yes"/>
      <point x="636.04" y="902.56"/>
      <point x="714.08" y="822.36"/>
      <point x="714.08" y="699.12" type="curve" smooth="yes"/>
      <point x="714.08" y="578.04"/>
      <point x="637.88" y="494.6"/>
    </contour>
    <contour>
      <point x="290.28" y="440.36" type="line"/>
      <point x="191.44" y="399.28"/>
      <point x="140.2" y="319.56"/>
      <point x="140.2" y="256.92" type="curve" smooth="yes"/>
      <point x="140.2" y="-55.92"/>
      <point x="814.52" y="182.76"/>
      <point x="814.52" y="-55.32" type="curve" smooth="yes"/>
      <point x="814.52" y="-161.0"/>
      <point x="700.44" y="-236.12"/>
      <point x="507.72" y="-236.12" type="curve" smooth="yes"/>
      <point x="309.52" y="-236.12"/>
      <point x="217.68" y="-165.92"/>
      <point x="217.68" y="-74.19999999999999" type="curve" smooth="yes"/>
      <point x="217.68" y="13.88"/>
      <point x="300.88" y="73.68"/>
      <point x="404.96000000000004" y="107.96" type="curve"/>
      <point x="281.6" y="126.76" type="line"/>
      <point x="147.76" y="90.16"/>
      <point x="61.92" y="14.96"/>
      <point x="61.92" y="-96.88" type="curve" smooth="yes"/>
      <point x="61.92" y="-238.72"/>
      <point x="208.07999999999998" y="-365.2"/>
      <point x="504.48" y="-365.2" type="curve" smooth="yes"/>
      <point x="801.36" y="-365.2"/>
      <point x="979.08" y="-199.44"/>
      <point x="979.08" y="-26.159999999999997" type="curve" smooth="yes"/>
      <point x="979.08" y="349.32"/>
      <point x="293.96000000000004" y="111.72000000000001"/>
      <point x="293.96000000000004" y="305.52" type="curve" smooth="yes"/>
      <point x="293.96000000000004" y="343.32"/>
      <point x="329.76" y="384.48"/>
      <point x="395.28" y="411.84" type="curve"/>
    </contour>
    <contour>
      <point x="745.8" y="837.64" type="line"/>
      <point x="954.4" y="865.4" type="line"/>
      <point x="982.92" y="870.8"/>
      <point x="996.32" y="884.36"/>
      <point x="996.32" y="907.48" type="curve" smooth="yes"/>
      <point x="996.32" y="973.04" type="line"/>
      <point x="662.4" y="973.04" type="line"/>
    </contour>
  </outline>
</glyph>
<glyph name="h" format="2">
  <advance width="1116"/>
  <unicode hex="0068"/>
  <anchor x="584.8" y="715.12" name="Slash"/>
  <anchor x="271.6" y="1511.66" name="Top"/>
  <anchor x="563.04" y="-70" name="bottom"/>
  <anchor x="271.6" y="1511.66" name="top"/>
  <outline>
    <contour>
      <point x="319.78" y="0" type="line" name="n00"/>
      <point x="319.78" y="1472.4" type="line" name="n01"/>
      <point x="141.34" y="1472.4" type="line" name="n02"/>
      <point x="141.34" y="0" type="line"/>
    </contour>
    <contour>
      <point x="984.74" y="0" type="line"/>
      <point x="984.74" y="645.28" type="line" name="n05"/>
      <point x="806.3" y="645.28" type="line" name="n06"/>
      <point x="806.3" y="0" type="line"/>
    </contour>
    <contour>
      <point x="984.74" y="645.28" type="line"/>
      <point x="984.74" y="875.12"/>
      <point x="867.94" y="1028.4"/>
      <point x="645.62" y="1028.4" type="curve" smooth="yes" name="n11"/>
      <point x="478.06" y="1028.4"/>
      <point x="360.9" y="937.64"/>
      <point x="263.5" y="810.92" type="curve"/>
      <point x="284.78" y="702.68" type="line"/>
      <point x="367.66" y="814.88"/>
      <point x="472.34" y="887.44"/>
      <point x="593.78" y="887.44" type="curve" smooth="yes" name="n18"/>
      <point x="736.22" y="887.44"/>
      <point x="806.3" y="797.4"/>
      <point x="806.3" y="645.28" type="curve"/>
    </contour>
  </outline>
</glyph>
<glyph name="i" format="2">
  <advance width="479.72"/>
  <unicode hex="0069"/>
  <guideline x="255.76"/>
  <anchor x="329.08000000000004" y="129.08" name="hook"/>
  <anchor x="239.86" y="1511.66" name="Top"/>
  <anchor x="239.86" y="1511.66" name="top"/>
  <anchor x="239.86" y="-70.0" name="bottom"/>
  <outline>
    <contour>
      <point x="150.64" y="1012.4" type="line"/>
      <point x="150.64" y="0.0" type="line"/>
      <point x="329.08000000000004" y="0.0" type="line"/>
      <point x="329.08000000000004" y="1012.4" type="line"/>
    </contour>
    <contour>
      <point x="366.6" y="1331.04" type="curve" smooth="yes"/>
      <point x="366.6" y="1401.0"/>
      <point x="307.28" y="1458.32"/>
      <point x="238.24" y="1458.32" type="curve" smooth="yes"/>
      <point x="170.44" y="1458.32"/>
      <point x="113.12" y="1401.0"/>
      <point x="113.12" y="1331.04" type="curve" smooth="yes"/>
      <point x="113.12" y="1263.08"/>
      <point x="170.44" y="1205.76"/>
      <point x="238.24" y="1205.76" type="curve" smooth="yes"/>
      <point x="307.28" y="1205.76"/>
      <point x="366.6" y="1263.08"/>
    </contour>
  </outline>
</glyph>
<glyph name="l" format="2">
  <advance width="472"/>
  <unicode hex="006C"/>
  <anchor x="237.78" y="1511.66" name="Top"/>
  <anchor x="241.94" y="730.24" name="bar"/>
  <anchor x="238.16" y="-70" name="bottom"/>
  <anchor x="325.3" y="129.08" name="hook"/>
  <anchor x="237.78" y="1511.66" name="top"/>
  <outline>
    <contour>
      <point x="146.86" y="1472.4" type="line" name="n00"/>
      <point x="146.86" y="0" type="line" name="n01"/>
      <point x="325.3" y="0" type="line"/>
      <point x="325.3" y="1472.4" type="line" name="n03"/>
    </contour>
  </outline>
</glyph>
<glyph name="m" format="2">
  <advance width="1645"/>
  <unicode hex="006D"/>
  <anchor x="829.42" y="-70" name="bottom"/>
  <anchor x="1514.54" y="129.08" name="hook"/>
  <anchor x="847.44" y="1120" name="top"/>
  <outline>
    <contour>
      <point x="319.78" y="0" type="line" name="n00"/>
      <point x="319.78" y="815.72" type="line"/>
      <point x="314.38" y="826.2" type="line"/>
      <point x="295.26" y="975.88" type="line" name="n03"/>
      <point x="288.78" y="1000.84"/>
      <point x="272.9" y="1012.4" name="n05"/>
      <point x="247.78" y="1012.4" type="curve" smooth="yes"/>
      <point x="141.34" y="1012.4" type="line" name="n07"/>
      <point x="141.34" y="0" type="line"/>
    </contour>
    <contour>
      <point x="915.94" y="0" type="line"/>
      <point x="915.94" y="645.28" type="line" name="n10"/>
      <point x="737.5" y="645.28" type="line"/>
      <point x="737.5" y="0" type="line"/>
    </contour>
    <contour>
      <point x="875.38" y="645.28" type="line"/>
      <point x="875.38" y="869.72"/>
      <point x="785.54" y="1028.4"/>
      <point x="595.82" y="1028.4" type="curve" smooth="yes"/>
      <point x="447.78" y="1028.4"/>
      <point x="348.14" y="934.4"/>
      <point x="263.5" y="812" type="curve"/>
      <point x="284.78" y="702.68" type="line"/>
      <point x="351.82" y="814.88"/>
      <point x="441.14" y="887.44"/>
      <point x="545.22" y="887.44" type="curve" smooth="yes"/>
      <point x="670.18" y="887.44"/>
      <point x="737.5" y="807.12"/>
      <point x="737.5" y="645.28" type="curve"/>
    </contour>
    <contour>
      <point x="1514.54" y="0" type="line"/>
      <point x="1514.54" y="645.28" type="line" name="n28"/>
      <point x="1336.1" y="645.28" type="line" name="n29"/>
      <point x="1336.1" y="0" type="line"/>
    </contour>
    <contour>
      <point x="1514.54" y="645.28" type="line"/>
      <point x="1514.54" y="889.76"/>
      <point x="1390.06" y="1028.4"/>
      <point x="1176.9" y="1028.4" type="curve" smooth="yes" name="n34"/>
      <point x="1000.1" y="1028.4"/>
      <point x="823.42" y="917.96"/>
      <point x="823.42" y="645.28" type="curve" name="n37"/>
      <point x="915.94" y="645.28" type="line"/>
      <point x="915.94" y="804.92"/>
      <point x="1016.58" y="887.44"/>
      <point x="1133.7" y="887.44" type="curve" smooth="yes" name="n41"/>
      <point x="1264.34" y="887.44"/>
      <point x="1336.1" y="803.4"/>
      <point x="1336.1" y="645.28" type="curve"/>
    </contour>
  </outline>
</glyph>
<glyph name="n" format="2">
  <advance width="1116"/>
  <unicode hex="006E"/>
  <anchor x="563.04" y="-70" name="bottom"/>
  <anchor x="984.74" y="129.08" name="hook"/>
  <anchor x="564.14" y="1120" name="top"/>
  <outline>
    <contour>
      <point x="319.78" y="0" type="line" name="n00"/>
      <point x="319.78" y="815.72" type="line"/>
      <point x="314.38" y="826.2" type="line"/>
      <point x="295.26" y="975.88" type="line" name="n03"/>
      <point x="288.78" y="1000.84"/>
      <point x="272.9" y="1012.4" name="n05"/>
      <point x="247.78" y="1012.4" type="curve" smooth="yes"/>
      <point x="141.34" y="1012.4" type="line" name="n07"/>
      <point x="141.34" y="0" type="line"/>
    </contour>
    <contour>
      <point x="984.74" y="0" type="line"/>
      <point x="984.74" y="645.28" type="line" name="n10"/>
      <point x="806.3" y="645.28" type="line" name="n11"/>
      <point x="806.3" y="0" type="line"/>
    </contour>
    <contour>
      <point x="984.74" y="645.28" type="line" smooth="yes"/>
      <point x="984.74" y="875.12"/>
      <point x="867.94" y="1028.4"/>
      <point x="645.62" y="1028.4" type="curve" smooth="yes" name="n16"/>
      <point x="478.06" y="1028.4"/>
      <point x="360.9" y="937.64"/>
      <point x="263.5" y="810.92" type="curve"/>
      <point x="284.78" y="702.68" type="line"/>
      <point x="367.66" y="814.88"/>
      <point x="472.34" y="887.44"/>
      <point x="593.78" y="887.44" type="curve" smooth="yes" name="n23"/>
      <point x="736.22" y="887.44"/>
      <point x="806.3" y="797.4"/>
      <point x="806.3" y="645.28" type="curve" smooth="yes"/>
      <point x="806.3" y="609.88" type="line"/>
      <point x="984.74" y="609.88" type="line"/>
    </contour>
  </outline>
  <guideline angle="90" x="-1350" y="0"/>
</glyph>
<glyph name="o" format="2">
  <advance width="1133.94"/>
  <unicode hex="006F"/>
  <guideline x="563.48"/>
  <anchor x="568.74" y="1120.0" name="top"/>
  <anchor x="568.74" y="-70.0" name="bottom"/>
  <outline>
    <contour>
      <point x="567.82" y="1028.4" type="curve" smooth="yes"/>
      <point x="270.22" y="1028.4"/>
      <point x="83.66" y="825.32"/>
      <point x="83.66" y="507.28" type="curve" smooth="yes"/>
      <point x="83.66" y="188.16"/>
      <point x="270.22" y="-14.16"/>
      <point x="567.82" y="-14.16" type="curve" smooth="yes"/>
      <point x="864.34" y="-14.16"/>
      <point x="1049.82" y="188.16"/>
      <point x="1049.82" y="507.28" type="curve" smooth="yes"/>
      <point x="1049.82" y="825.32"/>
      <point x="864.34" y="1028.4"/>
    </contour>
    <contour>
      <point x="567.82" y="124.64000000000001" type="curve" smooth="yes"/>
      <point x="365.7" y="124.64000000000001"/>
      <point x="267.5" y="265.72"/>
      <point x="267.5" y="506.2" type="curve" smooth="yes"/>
      <point x="267.5" y="746.68"/>
      <point x="365.7" y="889.6"/>
      <point x="567.82" y="889.6" type="curve" smooth="yes"/>
      <point x="767.78" y="889.6"/>
      <point x="865.98" y="746.68"/>
      <point x="865.98" y="506.2" type="curve" smooth="yes"/>
      <point x="865.98" y="265.72"/>
      <point x="767.78" y="124.64000000000001"/>
    </contour>
  </outline>
</glyph>
<glyph name="p" format="2">
  <advance width="1121.02"/>
  <unicode hex="0070"/>
  <anchor x="756.76" y="129.08" name="hook"/>
  <anchor x="232.18" y="-146.74" name="bar"/>
  <anchor x="732.08" y="95.30000000000001" name="tick"/>
  <anchor x="518.04" y="1120.0" name="top"/>
  <anchor x="673.86" y="-70.0" name="bottom"/>
  <outline>
    <contour>
      <point x="319.78" y="-342.72" type="line"/>
      <point x="319.78" y="819.86" type="line"/>
      <point x="314.38" y="830.34" type="line"/>
      <point x="295.26" y="975.88" type="line"/>
      <point x="288.78" y="1000.84"/>
      <point x="272.9" y="1012.4"/>
      <point x="247.78" y="1012.4" type="curve" smooth="yes"/>
      <point x="141.34" y="1012.4" type="line"/>
      <point x="141.34" y="-342.72" type="line"/>
    </contour>
    <contour>
      <point x="1034.74" y="513.28" type="curve" smooth="yes"/>
      <point x="1034.74" y="850.04"/>
      <point x="884.86" y="1030.56"/>
      <point x="651.38" y="1030.56" type="curve" smooth="yes"/>
      <point x="486.58" y="1030.56"/>
      <point x="366.62" y="939.64"/>
      <point x="276.46000000000004" y="809.6800000000001" type="curve"/>
      <point x="297.74" y="702.68" type="line"/>
      <point x="375.86" y="819.2"/>
      <point x="465.58" y="887.44"/>
      <point x="593.06" y="887.44" type="curve" smooth="yes"/>
      <point x="756.38" y="887.44"/>
      <point x="850.9" y="777.88"/>
      <point x="850.9" y="513.28" type="curve" smooth="yes"/>
      <point x="850.9" y="265.2"/>
      <point x="744.8199999999999" y="123.56"/>
      <point x="557.22" y="123.56" type="curve" smooth="yes"/>
      <point x="456.42" y="123.56"/>
      <point x="376.18" y="159.2"/>
      <point x="308.7" y="259.52" type="curve"/>
      <point x="281.7" y="153.0" type="line"/>
      <point x="356.78" y="47.84"/>
      <point x="449.34000000000003" y="-14.16"/>
      <point x="597.1800000000001" y="-14.16" type="curve" smooth="yes"/>
      <point x="870.38" y="-14.16"/>
      <point x="1034.74" y="214.16"/>
    </contour>
  </outline>
</glyph>
<glyph name="q" format="2">
  <advance width="1119.56"/>
  <unicode hex="0071"/>
  <anchor x="616.74" y="1120.0" name="top"/>
  <anchor x="606.98" y="-421.0" name="bottom"/>
  <outline>
    <contour>
      <point x="872.7" y="1012.4" type="line"/>
      <point x="847.58" y="1012.4"/>
      <point x="831.7" y="1000.84"/>
      <point x="825.22" y="975.88" type="curve"/>
      <point x="806.1" y="850.12" type="line"/>
      <point x="800.7" y="839.64" type="line"/>
      <point x="800.7" y="-342.72" type="line"/>
      <point x="979.14" y="-342.72" type="line"/>
      <point x="979.14" y="1012.4" type="line"/>
    </contour>
    <contour>
      <point x="838.78" y="863.4" type="line"/>
      <point x="763.7" y="968.56"/>
      <point x="671.14" y="1030.56"/>
      <point x="523.3" y="1030.56" type="curve" smooth="yes"/>
      <point x="250.1" y="1030.56"/>
      <point x="85.74" y="802.24"/>
      <point x="85.74" y="503.12" type="curve" smooth="yes"/>
      <point x="85.74" y="166.36"/>
      <point x="235.62" y="-14.16"/>
      <point x="469.1" y="-14.16" type="curve" smooth="yes"/>
      <point x="633.9" y="-14.16"/>
      <point x="753.86" y="76.76"/>
      <point x="844.02" y="206.72" type="curve"/>
      <point x="822.74" y="313.72" type="line"/>
      <point x="744.62" y="197.2"/>
      <point x="654.9" y="128.96"/>
      <point x="527.42" y="128.96" type="curve" smooth="yes"/>
      <point x="364.1" y="128.96"/>
      <point x="269.58000000000004" y="238.52"/>
      <point x="269.58000000000004" y="503.12" type="curve" smooth="yes"/>
      <point x="269.58000000000004" y="751.2"/>
      <point x="375.66" y="892.84"/>
      <point x="563.26" y="892.84" type="curve" smooth="yes"/>
      <point x="664.06" y="892.84"/>
      <point x="747.52" y="854.44"/>
      <point x="811.78" y="756.88" type="curve"/>
    </contour>
  </outline>
</glyph>
<glyph name="r" format="2">
  <advance width="728.5"/>
  <unicode hex="0072"/>
  <anchor x="420.7" y="1120.0" name="top"/>
  <anchor x="233.26" y="-70.0" name="bottom"/>
  <anchor x="319.78" y="129.08" name="hook"/>
  <anchor x="234.34" y="500.14" name="bar"/>
  <outline>
    <contour>
      <point x="712.86" y="1002.08" type="line"/>
      <point x="683.02" y="1021.78"/>
      <point x="642.26" y="1030.56"/>
      <point x="598.86" y="1030.56" type="curve" smooth="yes"/>
      <point x="422.14" y="1030.56"/>
      <point x="319.98" y="885.44"/>
      <point x="256.1" y="662.68" type="curve"/>
      <point x="294.5" y="562.0" type="line"/>
      <point x="350.32" y="749.24"/>
      <point x="416.4" y="856.28"/>
      <point x="568.08" y="856.28" type="curve" smooth="yes"/>
      <point x="612.88" y="856.28"/>
      <point x="651.38" y="844.6"/>
      <point x="669.7" y="844.6" type="curve" smooth="yes"/>
      <point x="686.5" y="844.6"/>
      <point x="696.06" y="851.84"/>
      <point x="700.22" y="869.88" type="curve" smooth="yes"/>
    </contour>
    <contour>
      <point x="319.78" y="0.0" type="line"/>
      <point x="319.78" y="741.92" type="line"/>
      <point x="314.38" y="752.4" type="line"/>
      <point x="298.5" y="964.0" type="line"/>
      <point x="293.1" y="999.76"/>
      <point x="281.54" y="1012.4"/>
      <point x="243.46" y="1012.4" type="curve" smooth="yes"/>
      <point x="141.34" y="1012.4" type="line"/>
      <point x="141.34" y="0.0" type="line"/>
    </contour>
  </outline>
</glyph>
<glyph name="s" format="2">
  <advance width="866.16"/>
  <unicode hex="0073"/>
  <anchor x="448.2" y="1120.0" name="top"/>
  <anchor x="421.86" y="-70.0" name="bottom"/>
  <anchor x="703.08" y="129.08" name="hook"/>
  <outline>
    <contour>
      <point x="770.98" y="910.8" type="line"/>
      <point x="694.06" y="984.2"/>
      <point x="585.98" y="1028.4"/>
      <point x="454.38" y="1028.4" type="curve" smooth="yes"/>
      <point x="224.54" y="1028.4"/>
      <point x="94.06" y="890.96"/>
      <point x="94.06" y="735.04" type="curve" smooth="yes"/>
      <point x="94.06" y="386.15999999999997"/>
      <point x="621.3" y="502.72"/>
      <point x="621.3" y="278.48" type="curve" smooth="yes"/>
      <point x="621.3" y="188.8"/>
      <point x="554.18" y="110.92"/>
      <point x="414.02" y="110.92" type="curve" smooth="yes"/>
      <point x="252.26" y="110.92"/>
      <point x="205.24" y="201.48000000000002"/>
      <point x="156.24" y="201.48000000000002" type="curve" smooth="yes"/>
      <point x="132.96" y="201.48000000000002"/>
      <point x="119.08" y="191.92000000000002"/>
      <point x="108.6" y="174.96" type="curve" smooth="yes"/>
      <point x="66.96" y="107.4" type="line"/>
      <point x="146.95999999999998" y="35.4"/>
      <point x="265.38" y="-16.0"/>
      <point x="405.38" y="-16.0" type="curve" smooth="yes"/>
      <point x="651.66" y="-16.0"/>
      <point x="788.02" y="123.72"/>
      <point x="788.02" y="309.64" type="curve" smooth="yes"/>
      <point x="788.02" y="637.36"/>
      <point x="262.94" y="540.52"/>
      <point x="262.94" y="749.08" type="curve" smooth="yes"/>
      <point x="262.94" y="831.28"/>
      <point x="339.14" y="896.08"/>
      <point x="457.62" y="896.08" type="curve" smooth="yes"/>
      <point x="597.98" y="896.08"/>
      <point x="653.82" y="824.28"/>
      <point x="694.34" y="824.28" type="curve" smooth="yes"/>
      <point x="711.3" y="824.28"/>
      <point x="721.78" y="830.6"/>
      <point x="731.34" y="846.48" type="curve"/>
    </contour>
  </outline>
</glyph>
<glyph name="t" format="2">
  <advance width="717"/>
  <unicode hex="0074"/>
  <anchor x="398.9" y="715.12" name="Slash"/>
  <anchor x="294.12" y="500.14" name="bar"/>
  <anchor x="447.22" y="-70" name="bottom"/>
  <anchor x="315.8" y="1430.78" name="top"/>
  <outline>
    <contour>
      <point x="202.82" y="946.36" type="line"/>
      <point x="202.82" y="243.24" type="line" smooth="yes" name="n01"/>
      <point x="202.82" y="76.56"/>
      <point x="293.34" y="-16"/>
      <point x="451.62" y="-16" type="curve" smooth="yes" name="n04"/>
      <point x="543.82" y="-16"/>
      <point x="635.86" y="18.6"/>
      <point x="697.46" y="75.84" type="curve"/>
      <point x="644.86" y="160.84" type="line" smooth="yes"/>
      <point x="637.46" y="172.56"/>
      <point x="631.14" y="177.8"/>
      <point x="619.58" y="177.8" type="curve" smooth="yes"/>
      <point x="598.18" y="177.8"/>
      <point x="567.94" y="129.28"/>
      <point x="491.58" y="129.28" type="curve" smooth="yes" name="n14"/>
      <point x="427.34" y="129.28"/>
      <point x="381.26" y="170.64"/>
      <point x="381.26" y="255.12" type="curve" smooth="yes" name="n17"/>
      <point x="381.26" y="1341.68" type="line" name="n18"/>
      <point x="291.02" y="1341.68" type="line" smooth="yes"/>
      <point x="268.82" y="1341.68"/>
      <point x="254.02" y="1328.28"/>
      <point x="249.7" y="1308.24" type="curve"/>
    </contour>
    <contour>
      <point x="263.86" y="993.08" type="line"/>
      <point x="235.82" y="998.48" type="line"/>
      <point x="43.02" y="973.96" type="line"/>
      <point x="43.02" y="903.16" type="line" smooth="yes"/>
      <point x="43.02" y="877.72"/>
      <point x="59.82" y="864"/>
      <point x="80.78" y="864" type="curve" smooth="yes"/>
      <point x="673.68" y="864" type="line" name="n30"/>
      <point x="673.68" y="993.08" type="line" name="n31"/>
    </contour>
  </outline>
</glyph>
<glyph name="u" format="2">
  <advance width="1114.7"/>
  <unicode hex="0075"/>
  <anchor x="558.5" y="1120.0" name="top"/>
  <anchor x="974.28" y="129.08" name="hook"/>
  <anchor x="604.52" y="-70.0" name="bottom"/>
  <outline>
    <contour>
      <point x="795.84" y="1012.4" type="line"/>
      <point x="795.84" y="196.68" type="line"/>
      <point x="801.24" y="186.2" type="line"/>
      <point x="820.36" y="36.52" type="line"/>
      <point x="826.84" y="11.56"/>
      <point x="842.72" y="0.0"/>
      <point x="867.84" y="0.0" type="curve" smooth="yes"/>
      <point x="974.28" y="0.0" type="line"/>
      <point x="974.28" y="1012.4" type="line"/>
    </contour>
    <contour>
      <point x="130.88" y="1012.4" type="line"/>
      <point x="130.88" y="367.12" type="line"/>
      <point x="309.32" y="367.12" type="line"/>
      <point x="309.32" y="1012.4" type="line"/>
    </contour>
    <contour>
      <point x="130.88" y="367.12" type="line"/>
      <point x="130.88" y="137.28"/>
      <point x="247.68" y="-16.0"/>
      <point x="470.0" y="-16.0" type="curve" smooth="yes"/>
      <point x="637.56" y="-16.0"/>
      <point x="754.72" y="74.76"/>
      <point x="852.12" y="201.48" type="curve"/>
      <point x="830.84" y="309.72" type="line"/>
      <point x="747.96" y="197.52"/>
      <point x="643.28" y="124.96000000000001"/>
      <point x="521.84" y="124.96000000000001" type="curve" smooth="yes"/>
      <point x="379.4" y="124.96000000000001"/>
      <point x="309.32" y="215.0"/>
      <point x="309.32" y="367.12" type="curve"/>
    </contour>
  </outline>
</glyph>
<glyph name="v" format="2">
  <advance width="1032"/>
  <unicode hex="0076"/>
  <anchor x="516" y="-70" name="bottom"/>
  <anchor x="646.94" y="129.08" name="hook"/>
  <anchor x="516" y="1120" name="top"/>
  <outline>
    <contour>
      <point x="435.72" y="0" type="line" name="n00"/>
      <point x="545.84" y="0" type="line"/>
      <point x="531.96" y="112.56"/>
      <point x="517.32" y="213.4"/>
      <point x="480.32" y="322.88" type="curve"/>
      <point x="223.16" y="975.72" type="line"/>
      <point x="216.84" y="995.76"/>
      <point x="196.8" y="1012.4" name="n07"/>
      <point x="168.44" y="1012.4" type="curve" smooth="yes"/>
      <point x="22.68" y="1012.4" type="line"/>
    </contour>
    <contour>
      <point x="1009.32" y="1012.4" type="line"/>
      <point x="870.04" y="1012.4" type="line" smooth="yes"/>
      <point x="844.76" y="1012.4"/>
      <point x="824.72" y="996.68"/>
      <point x="817.48" y="975.72" type="curve"/>
      <point x="557.08" y="322.88" type="line"/>
      <point x="519" y="212.32"/>
      <point x="503.28" y="112.56"/>
      <point x="490.48" y="0" type="curve"/>
      <point x="596.28" y="0" type="line"/>
    </contour>
  </outline>
</glyph>
<glyph name="w" format="2">
  <advance width="1571"/>
  <unicode hex="0077"/>
  <anchor x="785.34" y="-70" name="bottom"/>
  <anchor x="787.72" y="1120" name="top"/>
  <outline>
    <contour>
      <point x="361.04" y="0" type="line" name="n00"/>
      <point x="495.24" y="0" type="line" smooth="yes"/>
      <point x="515.44" y="0"/>
      <point x="529.16" y="11.56"/>
      <point x="535.48" y="33.76" type="curve"/>
      <point x="762.76" y="721.12" type="line"/>
      <point x="786.04" y="796.52"/>
      <point x="796.52" y="871"/>
      <point x="803.92" y="946.4" type="curve"/>
      <point x="767.68" y="946.4" type="line"/>
      <point x="775.08" y="871"/>
      <point x="785.56" y="797.6"/>
      <point x="808.84" y="722.2" type="curve"/>
      <point x="1033.2" y="33.76" type="line"/>
      <point x="1039.52" y="10.48"/>
      <point x="1052.16" y="0"/>
      <point x="1068.96" y="0" type="curve" smooth="yes"/>
      <point x="1209.64" y="0" type="line"/>
      <point x="1538.08" y="1012.4" type="line" name="n18"/>
      <point x="1404.2" y="1012.4" type="line" smooth="yes"/>
      <point x="1378.92" y="1012.4"/>
      <point x="1358.88" y="996.68"/>
      <point x="1351.64" y="975.72" type="curve"/>
      <point x="1154.24" y="322.88" type="line"/>
      <point x="1124.64" y="210.16"/>
      <point x="1111.24" y="114.4"/>
      <point x="1103.84" y="1.84" type="curve"/>
      <point x="1152.88" y="0.92" type="line"/>
      <point x="1146.56" y="113.48"/>
      <point x="1120.04" y="212.32"/>
      <point x="1088.28" y="322.88" type="curve"/>
      <point x="878.72" y="980.32" type="line" smooth="yes"/>
      <point x="872.4" y="1000.36"/>
      <point x="854.2" y="1015.16" name="n33"/>
      <point x="827.68" y="1015.16" type="curve" smooth="yes"/>
      <point x="750.4" y="1015.16" type="line" smooth="yes"/>
      <point x="726.04" y="1015.16"/>
      <point x="707.84" y="1000.36"/>
      <point x="701.52" y="980.32" type="curve" smooth="yes"/>
      <point x="487.8" y="322.88" type="line"/>
      <point x="453.88" y="211.24"/>
      <point x="427.36" y="114.4"/>
      <point x="414.56" y="1.84" type="curve"/>
      <point x="470.24" y="1.84" type="line"/>
      <point x="461.76" y="114.4"/>
      <point x="449.28" y="211.24"/>
      <point x="421.84" y="322.88" type="curve"/>
      <point x="227.68" y="975.72" type="line" smooth="yes"/>
      <point x="221.36" y="995.76"/>
      <point x="201.32" y="1012.4"/>
      <point x="172.96" y="1012.4" type="curve" smooth="yes"/>
      <point x="32.6" y="1012.4" type="line"/>
    </contour>
  </outline>
</glyph>
<glyph name="y" format="2">
  <advance width="1031"/>
  <unicode hex="0079"/>
  <anchor x="374.7" y="-421" name="bottom"/>
  <anchor x="542.22" y="1120" name="top"/>
  <outline>
    <contour>
      <point x="463.02" y="3.68" type="line"/>
      <point x="560.18" y="3.68" type="line"/>
      <point x="552.78" y="117.32"/>
      <point x="541.38" y="230.04"/>
      <point x="501.14" y="336.28" type="curve"/>
      <point x="229.94" y="975.72" type="line"/>
      <point x="222.54" y="994.68"/>
      <point x="205.9" y="1012.4" name="n07"/>
      <point x="175.38" y="1012.4" type="curve" smooth="yes"/>
      <point x="20.98" y="1012.4" type="line"/>
    </contour>
    <contour>
      <point x="1015.02" y="1012.4" type="line"/>
      <point x="873.58" y="1012.4" type="line" smooth="yes"/>
      <point x="850.46" y="1012.4"/>
      <point x="829.34" y="996.68"/>
      <point x="821.02" y="975.72" type="curve" smooth="yes"/>
      <point x="558.46" y="337.36" type="line"/>
      <point x="534.26" y="274.16"/>
      <point x="513.3" y="206.8"/>
      <point x="504.82" y="141.44" type="curve"/>
      <point x="464.26" y="113.8" type="line"/>
      <point x="254.3" y="-342.72" type="line" name="n20"/>
      <point x="386.02" y="-342.72" type="line" smooth="yes"/>
      <point x="422.86" y="-342.72"/>
      <point x="438.42" y="-326.4"/>
      <point x="449.98" y="-299.12" type="curve" smooth="yes"/>
    </contour>
  </outline>
</glyph>
<glyph name="z" format="2">
  <advance width="904"/>
  <unicode hex="007A"/>
  <anchor x="452.34" y="-70" name="bottom"/>
  <anchor x="772.66" y="129.08" name="hook"/>
  <anchor x="474.36" y="1120" name="top"/>
  <outline>
    <contour>
      <point x="840.12" y="1012.4" type="line"/>
      <point x="88.72" y="1012.4" type="line" name="n01"/>
      <point x="88.72" y="873.6" type="line" name="n02"/>
      <point x="681.88" y="873.6" type="line"/>
      <point x="646.88" y="890.4" type="line"/>
      <point x="82.32" y="137.72" type="line" smooth="yes"/>
      <point x="66.44" y="116.6"/>
      <point x="57.96" y="90.84"/>
      <point x="57.96" y="74.04" type="curve" smooth="yes"/>
      <point x="57.96" y="0" type="line"/>
      <point x="820.92" y="0" type="line" name="n10"/>
      <point x="820.92" y="138.8" type="line" name="n11"/>
      <point x="224.84" y="138.8" type="line"/>
      <point x="251.2" y="117.84" type="line"/>
      <point x="815.76" y="869.44" type="line"/>
      <point x="830.56" y="886.24"/>
      <point x="840.12" y="912"/>
      <point x="840.12" y="937.6" type="curve" smooth="yes"/>
    </contour>
  </outline>
</glyph>
<glyph name="braceleft" format="2">
  <advance width="602"/>
  <unicode hex="007B"/>
  <outline>
    <contour>
      <point x="204.44" y="819.6" type="curve" smooth="yes" name="n00"/>
      <point x="204.44" y="735.16"/>
      <point x="156.36" y="675.64"/>
      <point x="68.08" y="675.64" type="curve"/>
      <point x="68.08" y="569.24" type="line"/>
      <point x="147.16" y="615.04" type="line"/>
      <point x="263.76" y="615.04"/>
      <point x="356.04" y="702.36"/>
      <point x="356.04" y="821.76" type="curve" smooth="yes" name="n08"/>
      <point x="356.04" y="954.48"/>
      <point x="309.64" y="1080.12"/>
      <point x="309.64" y="1228.88" type="curve" smooth="yes" name="n11"/>
      <point x="309.64" y="1343.56"/>
      <point x="373.4" y="1415.96"/>
      <point x="475.8" y="1415.96" type="curve" smooth="yes" name="n14"/>
      <point x="496.04" y="1415.96" type="line" smooth="yes"/>
      <point x="511.6" y="1415.96"/>
      <point x="536.12" y="1427.52"/>
      <point x="536.12" y="1454.04" type="curve" smooth="yes"/>
      <point x="536.12" y="1533.32" type="line"/>
      <point x="482.28" y="1533.32" type="line" smooth="yes" name="n20"/>
      <point x="264.68" y="1533.32"/>
      <point x="153.72" y="1403.12"/>
      <point x="153.72" y="1218.08" type="curve" smooth="yes" name="n23"/>
      <point x="153.72" y="1079.52"/>
      <point x="204.44" y="954"/>
    </contour>
    <contour>
      <point x="204.44" y="425.28" type="curve" smooth="yes"/>
      <point x="204.44" y="290.88"/>
      <point x="153.72" y="165.36"/>
      <point x="153.72" y="26.8" type="curve" smooth="yes"/>
      <point x="153.72" y="-158.24"/>
      <point x="264.68" y="-288.44"/>
      <point x="482.28" y="-288.44" type="curve" smooth="yes" name="n32"/>
      <point x="536.12" y="-288.44" type="line"/>
      <point x="536.12" y="-209.16" type="line" smooth="yes"/>
      <point x="536.12" y="-182.64"/>
      <point x="511.6" y="-171.08"/>
      <point x="496.04" y="-171.08" type="curve" smooth="yes"/>
      <point x="475.8" y="-171.08" type="line" smooth="yes" name="n38"/>
      <point x="373.4" y="-171.08"/>
      <point x="309.64" y="-98.68"/>
      <point x="309.64" y="16" type="curve" smooth="yes"/>
      <point x="309.64" y="164.76"/>
      <point x="356.04" y="290.4"/>
      <point x="356.04" y="423.12" type="curve" smooth="yes"/>
      <point x="356.04" y="542.52"/>
      <point x="263.76" y="629.84"/>
      <point x="147.16" y="629.84" type="curve"/>
      <point x="68.08" y="675.64" type="line"/>
      <point x="68.08" y="569.24" type="line"/>
      <point x="156.36" y="569.24"/>
      <point x="204.44" y="509.72"/>
    </contour>
  </outline>
  <guideline angle="0" x="0" y="630"/>
</glyph>
<glyph name="bar" format="2">
  <advance width="501"/>
  <unicode hex="007C"/>
  <outline>
    <contour>
      <point x="181.28" y="-349.12" type="line" name="n00"/>
      <point x="320.08" y="-349.12" type="line" name="n01"/>
      <point x="320.08" y="1533.32" type="line" name="n02"/>
      <point x="181.28" y="1533.32" type="line"/>
    </contour>
  </outline>
</glyph>
<glyph name="braceright" format="2">
  <advance width="602"/>
  <unicode hex="007D"/>
  <outline>
    <contour>
      <point x="397.7" y="819.6" type="curve" smooth="yes" name="n00"/>
      <point x="397.7" y="954"/>
      <point x="448.42" y="1079.52"/>
      <point x="448.42" y="1218.08" type="curve" smooth="yes" name="n03"/>
      <point x="448.42" y="1403.12"/>
      <point x="337.46" y="1533.32"/>
      <point x="119.86" y="1533.32" type="curve" smooth="yes" name="n06"/>
      <point x="66.02" y="1533.32" type="line"/>
      <point x="66.02" y="1454.04" type="line" smooth="yes"/>
      <point x="66.02" y="1427.52"/>
      <point x="90.54" y="1415.96"/>
      <point x="106.1" y="1415.96" type="curve" smooth="yes"/>
      <point x="126.34" y="1415.96" type="line" smooth="yes" name="n12"/>
      <point x="228.74" y="1415.96"/>
      <point x="292.5" y="1343.56"/>
      <point x="292.5" y="1228.88" type="curve" smooth="yes" name="n15"/>
      <point x="292.5" y="1080.12"/>
      <point x="246.1" y="954.48"/>
      <point x="246.1" y="821.76" type="curve" smooth="yes" name="n18"/>
      <point x="246.1" y="702.36"/>
      <point x="338.38" y="615.04"/>
      <point x="454.98" y="615.04" type="curve"/>
      <point x="534.06" y="569.24" type="line"/>
      <point x="534.06" y="675.64" type="line"/>
      <point x="445.78" y="675.64"/>
      <point x="397.7" y="735.16"/>
    </contour>
    <contour>
      <point x="397.7" y="425.28" type="curve" smooth="yes"/>
      <point x="397.7" y="509.72"/>
      <point x="445.78" y="569.24"/>
      <point x="534.06" y="569.24" type="curve"/>
      <point x="534.06" y="675.64" type="line"/>
      <point x="454.98" y="629.84" type="line"/>
      <point x="338.38" y="629.84"/>
      <point x="246.1" y="542.52"/>
      <point x="246.1" y="423.12" type="curve" smooth="yes"/>
      <point x="246.1" y="290.4"/>
      <point x="292.5" y="164.76"/>
      <point x="292.5" y="16" type="curve" smooth="yes"/>
      <point x="292.5" y="-98.68"/>
      <point x="228.74" y="-171.08"/>
      <point x="126.34" y="-171.08" type="curve" smooth="yes" name="n40"/>
      <point x="106.1" y="-171.08" type="line" smooth="yes"/>
      <point x="90.54" y="-171.08"/>
      <point x="66.02" y="-182.64"/>
      <point x="66.02" y="-209.16" type="curve" smooth="yes"/>
      <point x="66.02" y="-288.44" type="line"/>
      <point x="119.86" y="-288.44" type="line" smooth="yes" name="n46"/>
      <point x="337.46" y="-288.44"/>
      <point x="448.42" y="-158.24"/>
      <point x="448.42" y="26.8" type="curve" smooth="yes"/>
      <point x="448.42" y="165.36"/>
      <point x="397.7" y="290.88"/>
    </contour>
  </outline>
  <guideline angle="0" x="0" y="630"/>
</glyph>
<glyph name="asciitilde" format="2">
  <advance width="1160"/>
  <unicode hex="007E"/>
  <outline>
    <contour>
      <point x="763.36" y="612.24" type="curve" smooth="yes" name="n00"/>
      <point x="665.6" y="612.24"/>
      <point x="531.08" y="717.36"/>
      <point x="391.84" y="717.36" type="curve" smooth="yes" name="n03"/>
      <point x="219.72" y="717.36"/>
      <point x="119.8" y="592.84"/>
      <point x="119.8" y="414.2" type="curve" name="n06"/>
      <point x="264" y="414.2" type="line" name="n07"/>
      <point x="264.92" y="507.84"/>
      <point x="316.56" y="569.92"/>
      <point x="402.64" y="569.92" type="curve" smooth="yes" name="n10"/>
      <point x="500.4" y="569.92"/>
      <point x="634.92" y="464.8"/>
      <point x="774.16" y="464.8" type="curve" smooth="yes" name="n13"/>
      <point x="946.28" y="464.8"/>
      <point x="1046.2" y="589.32"/>
      <point x="1046.2" y="767.96" type="curve" name="n16"/>
      <point x="902" y="767.96" type="line" name="n17"/>
      <point x="901.08" y="674.32"/>
      <point x="849.44" y="612.24"/>
    </contour>
  </outline>
</glyph>
<glyph name="exclamdown" format="2">
  <advance width="503.54"/>
  <unicode hex="00A1"/>
  <guideline x="365.76"/>
  <outline>
    <contour>
      <point x="337.78" y="-342.72" type="line"/>
      <point x="337.78" y="198.0" type="line" smooth="yes"/>
      <point x="337.78" y="318.16"/>
      <point x="328.22" y="420.08"/>
      <point x="313.42" y="558.64" type="curve"/>
      <point x="192.66" y="558.64" type="line"/>
      <point x="177.86" y="420.08"/>
      <point x="168.3" y="318.16"/>
      <point x="168.3" y="198.0" type="curve" smooth="yes"/>
      <point x="168.3" y="-342.72" type="line"/>
    </contour>
    <contour>
      <point x="125.1" y="903.92" type="curve" smooth="yes"/>
      <point x="125.1" y="834.44"/>
      <point x="179.02" y="778.52"/>
      <point x="249.58" y="778.52" type="curve" smooth="yes"/>
      <point x="319.06" y="778.52"/>
      <point x="374.98" y="834.44"/>
      <point x="374.98" y="903.92" type="curve" smooth="yes"/>
      <point x="374.98" y="974.48"/>
      <point x="319.06" y="1028.4"/>
      <point x="249.58" y="1028.4" type="curve" smooth="yes"/>
      <point x="179.02" y="1028.4"/>
      <point x="125.1" y="974.48"/>
    </contour>
  </outline>
</glyph>
<glyph name="cent" format="2">
  <advance width="1160.0"/>
  <unicode hex="00A2"/>
  <outline>
    <contour>
      <point x="1013.92" y="897.24" type="line"/>
      <point x="924.64" y="978.84"/>
      <point x="808.6" y="1027.32"/>
      <point x="655.92" y="1027.32" type="curve" smooth="yes"/>
      <point x="325.36" y="1027.32"/>
      <point x="139.48" y="808.04"/>
      <point x="139.48" y="506.2" type="curve" smooth="yes"/>
      <point x="139.48" y="177.24"/>
      <point x="347.88" y="-14.16"/>
      <point x="624.96" y="-14.16" type="curve" smooth="yes"/>
      <point x="787.56" y="-14.16"/>
      <point x="939.16" y="35.32"/>
      <point x="1027.6" y="140.84" type="curve"/>
      <point x="979.32" y="203.16000000000003" type="line" smooth="yes"/>
      <point x="971.92" y="212.72"/>
      <point x="960.2" y="219.04000000000002"/>
      <point x="945.4" y="219.04000000000002" type="curve" smooth="yes"/>
      <point x="899.16" y="219.04000000000002"/>
      <point x="846.32" y="121.4"/>
      <point x="649.8" y="121.4" type="curve" smooth="yes"/>
      <point x="443.64" y="121.4"/>
      <point x="315.76" y="258.68"/>
      <point x="315.76" y="506.2" type="curve" smooth="yes"/>
      <point x="315.76" y="745.88"/>
      <point x="434.24" y="891.76"/>
      <point x="661.32" y="891.76" type="curve" smooth="yes"/>
      <point x="830.16" y="891.76"/>
      <point x="892.12" y="813.8"/>
      <point x="930.8" y="813.8" type="curve" smooth="yes"/>
      <point x="949.92" y="813.8"/>
      <point x="958.4" y="821.2"/>
      <point x="967.96" y="835.08" type="curve" smooth="yes"/>
    </contour>
    <contour>
      <point x="546.96" y="-235.6" type="line"/>
      <point x="613.12" y="-235.6" type="line" smooth="yes"/>
      <point x="641.64" y="-235.6"/>
      <point x="660.76" y="-212.32"/>
      <point x="662.92" y="-187.2" type="curve"/>
      <point x="762.6" y="1253.88" type="line"/>
      <point x="696.44" y="1253.88" type="line" smooth="yes"/>
      <point x="667.92" y="1253.88"/>
      <point x="648.8" y="1230.6"/>
      <point x="646.64" y="1205.48" type="curve"/>
    </contour>
  </outline>
</glyph>
<glyph name="sterling" format="2">
  <advance width="1160"/>
  <unicode hex="00A3"/>
  <outline>
    <contour>
      <point x="1111.22" y="153.76" type="line"/>
      <point x="434.42" y="153.76" type="line" smooth="yes"/>
      <point x="341.94" y="153.76"/>
      <point x="255.46" y="128.92"/>
      <point x="166.54" y="95.92" type="curve"/>
      <point x="69.38" y="114.88" type="line" name="n05"/>
      <point x="69.38" y="0" type="line" name="n06"/>
      <point x="1033.5" y="0" type="line" smooth="yes"/>
      <point x="1080.38" y="0"/>
      <point x="1111.22" y="41.64"/>
      <point x="1111.22" y="77.88" type="curve" smooth="yes"/>
    </contour>
    <contour>
      <point x="222.54" y="72.64" type="line"/>
      <point x="341.94" y="144.24"/>
      <point x="425.66" y="230.4"/>
      <point x="425.66" y="371" type="curve" smooth="yes"/>
      <point x="425.66" y="996.48" type="line" smooth="yes" name="n15"/>
      <point x="425.66" y="1178.48"/>
      <point x="511.7" y="1295.72"/>
      <point x="680.42" y="1295.72" type="curve" smooth="yes" name="n18"/>
      <point x="800.98" y="1295.72"/>
      <point x="852.62" y="1238.76"/>
      <point x="903.54" y="1167.6" type="curve"/>
      <point x="930.06" y="1137.08"/>
      <point x="961.06" y="1136.16"/>
      <point x="994.98" y="1153.28" type="curve"/>
      <point x="1066.54" y="1198.48" type="line"/>
      <point x="1001.58" y="1336.84"/>
      <point x="888.14" y="1447.48"/>
      <point x="680.42" y="1447.48" type="curve" smooth="yes" name="n28"/>
      <point x="387.7" y="1447.48"/>
      <point x="242.9" y="1245.72"/>
      <point x="242.9" y="995.4" type="curve" smooth="yes" name="n31"/>
      <point x="242.9" y="324.56" type="line" smooth="yes"/>
      <point x="242.9" y="201.88"/>
      <point x="160.14" y="142.84"/>
      <point x="69.38" y="114.88" type="curve"/>
    </contour>
    <contour>
      <point x="47.7" y="614.52" type="line"/>
      <point x="814.42" y="614.52" type="line" smooth="yes" name="n37"/>
      <point x="844.18" y="614.52"/>
      <point x="866.38" y="637.96"/>
      <point x="866.38" y="662.32" type="curve" smooth="yes"/>
      <point x="866.38" y="733.88" type="line" name="n41"/>
      <point x="109.22" y="733.88" type="line" smooth="yes"/>
      <point x="69.74" y="733.88"/>
      <point x="47.7" y="706.12"/>
      <point x="47.7" y="672.2" type="curve" smooth="yes"/>
    </contour>
  </outline>
</glyph>
<glyph name="currency" format="2">
  <advance width="1160"/>
  <unicode hex="00A4"/>
  <outline>
    <contour>
      <point x="223" y="672.16" type="curve" smooth="yes" name="n00"/>
      <point x="223" y="473.96"/>
      <point x="381.8" y="315.16"/>
      <point x="580" y="315.16" type="curve" smooth="yes" name="n03"/>
      <point x="778.04" y="315.16"/>
      <point x="937.92" y="473.96"/>
      <point x="937.92" y="672.16" type="curve" smooth="yes" name="n06"/>
      <point x="937.92" y="871.28"/>
      <point x="778.04" y="1030.08"/>
      <point x="580" y="1030.08" type="curve" smooth="yes" name="n09"/>
      <point x="381.8" y="1030.08"/>
      <point x="223" y="871.28"/>
    </contour>
    <contour>
      <point x="355.32" y="672.16" type="curve" smooth="yes" name="n12"/>
      <point x="355.32" y="797.72"/>
      <point x="456.44" y="898.84"/>
      <point x="580" y="898.84" type="curve" smooth="yes" name="n15"/>
      <point x="705.56" y="898.84"/>
      <point x="806.68" y="797.72"/>
      <point x="806.68" y="672.16" type="curve" smooth="yes" name="n18"/>
      <point x="806.68" y="549.68"/>
      <point x="705.56" y="447.48"/>
      <point x="580" y="447.48" type="curve" smooth="yes" name="n21"/>
      <point x="456.44" y="447.48"/>
      <point x="355.32" y="549.68"/>
    </contour>
    <contour>
      <point x="329.8" y="829.52" type="line"/>
      <point x="420.48" y="919.12" type="line"/>
      <point x="223" y="1116.6" type="line" name="n26"/>
      <point x="132.32" y="1027" type="line"/>
    </contour>
    <contour>
      <point x="737.36" y="922.36" type="line"/>
      <point x="826.96" y="831.68" type="line"/>
      <point x="1024.44" y="1029.16" type="line"/>
      <point x="934.84" y="1119.84" type="line"/>
    </contour>
    <contour>
      <point x="423.72" y="421.96" type="line"/>
      <point x="333.04" y="512.64" type="line"/>
      <point x="135.56" y="315.16" type="line"/>
      <point x="225.16" y="224.48" type="line" name="n35"/>
    </contour>
    <contour>
      <point x="830.2" y="515.88" type="line"/>
      <point x="739.52" y="425.2" type="line"/>
      <point x="937" y="227.72" type="line"/>
      <point x="1027.68" y="318.4" type="line"/>
    </contour>
  </outline>
</glyph>
<glyph name="yen" format="2">
  <advance width="1160.0"/>
  <unicode hex="00A5"/>
  <outline>
    <contour>
      <point x="1111.22" y="1432.4" type="line"/>
      <point x="961.62" y="1432.4" type="line" smooth="yes"/>
      <point x="928.62" y="1432.4"/>
      <point x="906.26" y="1410.96"/>
      <point x="895.78" y="1387.68" type="curve"/>
      <point x="620.46" y="821.28" type="line"/>
      <point x="581.14" y="724.28"/>
      <point x="569.9" y="660.28"/>
      <point x="563.9" y="555.28" type="curve"/>
      <point x="667.22" y="555.28" type="line"/>
    </contour>
    <contour>
      <point x="492.78" y="555.28" type="line"/>
      <point x="600.42" y="555.28" type="line"/>
      <point x="595.5" y="661.36"/>
      <point x="581.02" y="723.2"/>
      <point x="540.62" y="821.28" type="curve"/>
      <point x="264.22" y="1387.68" type="line"/>
      <point x="252.66000000000003" y="1415.28"/>
      <point x="231.38" y="1432.4"/>
      <point x="197.3" y="1432.4" type="curve" smooth="yes"/>
      <point x="48.78" y="1432.4" type="line"/>
    </contour>
    <contour>
      <point x="669.22" y="609.08" type="line"/>
      <point x="490.78" y="609.08" type="line"/>
      <point x="490.78" y="0.0" type="line"/>
      <point x="669.22" y="0.0" type="line"/>
    </contour>
    <contour>
      <point x="150.3" y="315.8" type="line"/>
      <point x="1009.7" y="315.8" type="line"/>
      <point x="1009.7" y="417.88" type="line"/>
      <point x="150.3" y="417.88" type="line"/>
    </contour>
    <contour>
      <point x="150.3" y="523.2" type="line"/>
      <point x="1009.7" y="523.2" type="line"/>
      <point x="1009.7" y="625.28" type="line"/>
      <point x="150.3" y="625.28" type="line"/>
    </contour>
  </outline>
</glyph>
<glyph name="brokenbar" format="2">
  <advance width="507.36"/>
  <unicode hex="00A6"/>
  <outline>
    <contour>
      <point x="184.28" y="738.92" type="line"/>
      <point x="323.08000000000004" y="738.92" type="line"/>
      <point x="323.08000000000004" y="1533.32" type="line"/>
      <point x="184.28" y="1533.32" type="line"/>
    </contour>
    <contour>
      <point x="184.28" y="-342.72" type="line"/>
      <point x="323.08000000000004" y="-342.72" type="line"/>
      <point x="323.08000000000004" y="451.68" type="line"/>
      <point x="184.28" y="451.68" type="line"/>
    </contour>
  </outline>
</glyph>
<glyph name="section" format="2">
  <advance width="990"/>
  <unicode hex="00A7"/>
  <outline>
    <contour>
      <point x="428.12" y="970.6" type="line"/>
      <point x="201.96" y="944.84"/>
      <point x="100.92" y="837.56"/>
      <point x="100.92" y="697.76" type="curve" smooth="yes" name="n03"/>
      <point x="100.92" y="358.6"/>
      <point x="683.56" y="412.96"/>
      <point x="683.56" y="171.44" type="curve" smooth="yes" name="n06"/>
      <point x="683.56" y="72.04"/>
      <point x="606.72" y="1.72"/>
      <point x="471.96" y="1.72" type="curve" smooth="yes" name="n09"/>
      <point x="303.72" y="1.72"/>
      <point x="257.16" y="92.28" name="n11"/>
      <point x="208.16" y="92.28" type="curve" smooth="yes"/>
      <point x="184.88" y="92.28"/>
      <point x="171" y="82.72"/>
      <point x="160.52" y="65.76" type="curve" smooth="yes"/>
      <point x="118.88" y="-1.8" type="line"/>
      <point x="198.88" y="-73.8"/>
      <point x="316.84" y="-125.2"/>
      <point x="456.84" y="-125.2" type="curve" smooth="yes" name="n19"/>
      <point x="703.12" y="-125.2"/>
      <point x="839.48" y="14.52"/>
      <point x="839.48" y="200.44" type="curve" smooth="yes" name="n22"/>
      <point x="839.48" y="528.16"/>
      <point x="259" y="500"/>
      <point x="259" y="725.84" type="curve" smooth="yes" name="n25"/>
      <point x="259" y="800.08"/>
      <point x="305.12" y="853.4"/>
      <point x="427.32" y="897.2" type="curve"/>
    </contour>
    <contour>
      <point x="844.28" y="1329.72" type="line"/>
      <point x="767.36" y="1403.12"/>
      <point x="659.28" y="1447.32"/>
      <point x="527.68" y="1447.32" type="curve" smooth="yes" name="n32"/>
      <point x="297.84" y="1447.32"/>
      <point x="167.36" y="1309.88"/>
      <point x="167.36" y="1153.96" type="curve" smooth="yes" name="n35"/>
      <point x="167.36" y="806"/>
      <point x="734.36" y="858.76"/>
      <point x="734.36" y="611.28" type="curve" smooth="yes" name="n38"/>
      <point x="734.36" y="535.04"/>
      <point x="689.76" y="474.32"/>
      <point x="578.4" y="442.84" type="curve"/>
      <point x="573.88" y="367.28" type="line"/>
      <point x="793.12" y="389.36"/>
      <point x="890.28" y="502.84"/>
      <point x="890.28" y="651.08" type="curve" smooth="yes" name="n45"/>
      <point x="890.28" y="976.28"/>
      <point x="325.44" y="959.44"/>
      <point x="325.44" y="1161.52" type="curve" smooth="yes" name="n48"/>
      <point x="325.44" y="1244.8"/>
      <point x="402.72" y="1315"/>
      <point x="530.92" y="1315" type="curve" smooth="yes" name="n51"/>
      <point x="671.28" y="1315"/>
      <point x="727.12" y="1243.2"/>
      <point x="767.64" y="1243.2" type="curve" smooth="yes"/>
      <point x="784.6" y="1243.2"/>
      <point x="795.08" y="1249.52"/>
      <point x="804.64" y="1265.4" type="curve" smooth="yes"/>
    </contour>
  </outline>
</glyph>
<glyph name="dieresis" format="2">
  <advance width="800"/>
  <unicode hex="00A8"/>
  <anchor x="400" y="1120" name="_top"/>
  <anchor x="400" y="1430.78" name="top"/>
  <outline>
    <contour>
      <point x="322.24" y="1288.64" type="curve" smooth="yes"/>
      <point x="322.24" y="1351.04"/>
      <point x="269.4" y="1402.96"/>
      <point x="207.92" y="1402.96" type="curve" smooth="yes" name="n03"/>
      <point x="148.76" y="1402.96"/>
      <point x="96.84" y="1351.04"/>
      <point x="96.84" y="1288.64" type="curve" smooth="yes"/>
      <point x="96.84" y="1228.24"/>
      <point x="148.76" y="1178.48"/>
      <point x="207.92" y="1178.48" type="curve" smooth="yes" name="n09"/>
      <point x="269.4" y="1178.48"/>
      <point x="322.24" y="1228.24"/>
    </contour>
    <contour>
      <point x="703.16" y="1288.64" type="curve" smooth="yes"/>
      <point x="703.16" y="1351.04"/>
      <point x="651.4" y="1402.96"/>
      <point x="589.92" y="1402.96" type="curve" smooth="yes"/>
      <point x="528.6" y="1402.96"/>
      <point x="477.76" y="1351.04"/>
      <point x="477.76" y="1288.64" type="curve" smooth="yes"/>
      <point x="477.76" y="1228.24"/>
      <point x="528.6" y="1178.48"/>
      <point x="589.92" y="1178.48" type="curve" smooth="yes"/>
      <point x="651.4" y="1178.48"/>
      <point x="703.16" y="1228.24"/>
    </contour>
  </outline>
</glyph>
<glyph name="copyright" format="2">
  <advance width="1663.44"/>
  <unicode hex="00A9"/>
  <outline>
    <contour>
      <point x="1087.3" y="473.64" type="curve"/>
      <point x="1021.5" y="441.44"/>
      <point x="982.38" y="394.8"/>
      <point x="844.42" y="394.8" type="curve" smooth="yes"/>
      <point x="678.62" y="394.8"/>
      <point x="557.54" y="511.76"/>
      <point x="557.54" y="718.36" type="curve" smooth="yes"/>
      <point x="557.54" y="917.72"/>
      <point x="675.38" y="1042.84"/>
      <point x="862.74" y="1042.84" type="curve" smooth="yes"/>
      <point x="1019.38" y="1042.84"/>
      <point x="1056.06" y="970.28"/>
      <point x="1092.58" y="970.28" type="curve" smooth="yes"/>
      <point x="1108.46" y="970.28"/>
      <point x="1118.94" y="980.0"/>
      <point x="1125.26" y="988.3199999999999" type="curve"/>
      <point x="1171.38" y="1052.64" type="line"/>
      <point x="1095.1" y="1127.12"/>
      <point x="998.74" y="1176.24"/>
      <point x="854.1" y="1176.24" type="curve" smooth="yes"/>
      <point x="592.42" y="1176.24"/>
      <point x="398.54" y="987.6"/>
      <point x="398.54" y="718.36" type="curve" smooth="yes"/>
      <point x="398.54" y="451.92"/>
      <point x="574.06" y="260.32"/>
      <point x="835.78" y="260.32" type="curve" smooth="yes"/>
      <point x="989.62" y="260.32"/>
      <point x="1098.58" y="311.4"/>
      <point x="1174.26" y="398.68" type="curve"/>
      <point x="1113.66" y="462.68" type="line"/>
      <point x="1107.34" y="469.16"/>
      <point x="1097.78" y="474.56"/>
    </contour>
    <contour>
      <point x="100.97999999999999" y="716.2" type="curve" smooth="yes"/>
      <point x="100.97999999999999" y="313.56"/>
      <point x="428.54" y="-14.0"/>
      <point x="831.18" y="-14.0" type="curve" smooth="yes"/>
      <point x="1234.9" y="-14.0"/>
      <point x="1562.46" y="313.56"/>
      <point x="1562.46" y="716.2" type="curve" smooth="yes"/>
      <point x="1562.46" y="1119.92"/>
      <point x="1234.9" y="1447.48"/>
      <point x="831.18" y="1447.48" type="curve" smooth="yes"/>
      <point x="428.54" y="1447.48"/>
      <point x="100.97999999999999" y="1119.92"/>
    </contour>
    <contour>
      <point x="201.66" y="716.2" type="curve" smooth="yes"/>
      <point x="201.66" y="1074.44"/>
      <point x="479.42" y="1360.68"/>
      <point x="831.18" y="1360.68" type="curve" smooth="yes"/>
      <point x="1184.02" y="1360.68"/>
      <point x="1464.86" y="1074.44"/>
      <point x="1464.86" y="716.2" type="curve" smooth="yes"/>
      <point x="1464.86" y="359.04"/>
      <point x="1184.02" y="75.88000000000001"/>
      <point x="831.18" y="75.88000000000001" type="curve" smooth="yes"/>
      <point x="479.42" y="75.88000000000001"/>
      <point x="201.66" y="359.04"/>
    </contour>
  </outline>
</glyph>
<glyph name="ordfeminine" format="2">
  <advance width="735"/>
  <unicode hex="00AA"/>
  <anchor x="367.46" y="-70" name="bottom"/>
  <outline>
    <contour>
      <point x="604.04" y="1220.8" type="curve"/>
      <point x="604.04" y="1355.44"/>
      <point x="521.36" y="1449.8"/>
      <point x="378.08" y="1449.8" type="curve" smooth="yes" name="n03"/>
      <point x="280.96" y="1449.8"/>
      <point x="200.44" y="1419.8"/>
      <point x="131.64" y="1354.4" type="curve"/>
      <point x="154" y="1312.76" type="line"/>
      <point x="162.48" y="1301.04"/>
      <point x="174.2" y="1288.24"/>
      <point x="192.24" y="1288.24" type="curve" smooth="yes"/>
      <point x="235.24" y="1288.24"/>
      <point x="261.8" y="1344.48"/>
      <point x="362.96" y="1344.48" type="curve" smooth="yes" name="n13"/>
      <point x="439.16" y="1344.48"/>
      <point x="477.28" y="1305.48"/>
      <point x="477.28" y="1220.8" type="curve"/>
      <point x="477.28" y="1220.8"/>
      <point x="604.04" y="1220.8"/>
    </contour>
    <contour>
      <point x="604.04" y="840.16" type="line"/>
      <point x="604.04" y="1220.8" type="line"/>
      <point x="477.28" y="1220.8" type="line"/>
      <point x="477.28" y="959.28" type="line"/>
      <point x="499.64" y="868.52" type="line" name="n23"/>
      <point x="510.28" y="845.4"/>
      <point x="519.84" y="840.16"/>
      <point x="544.2" y="840.16" type="curve" smooth="yes"/>
    </contour>
    <contour>
      <point x="509.04" y="937.52" type="curve"/>
      <point x="509.04" y="937.52"/>
      <point x="493.32" y="1011.68"/>
      <point x="493.32" y="1011.68" type="curve" name="n30"/>
      <point x="439.96" y="956"/>
      <point x="392.48" y="922.52"/>
      <point x="317.04" y="922.52" type="curve" smooth="yes" name="n33"/>
      <point x="264.16" y="922.52"/>
      <point x="224.4" y="943.4"/>
      <point x="224.4" y="999" type="curve" smooth="yes" name="n36"/>
      <point x="224.4" y="1057.52"/>
      <point x="294.56" y="1098.56"/>
      <point x="495.48" y="1102.24" type="curve" name="n39"/>
      <point x="479.28" y="1183.8" type="line" name="n40"/>
      <point x="193.72" y="1178.72"/>
      <point x="99.8" y="1084.96"/>
      <point x="99.8" y="992.68" type="curve" smooth="yes" name="n43"/>
      <point x="99.8" y="885.28"/>
      <point x="177.48" y="831.24"/>
      <point x="277.24" y="831.24" type="curve" smooth="yes" name="n46"/>
      <point x="378.76" y="831.24"/>
      <point x="434.88" y="868.76"/>
    </contour>
  </outline>
</glyph>
<glyph name="logicalnot" format="2">
  <advance width="1160.0"/>
  <unicode hex="00AC"/>
  <outline>
    <contour>
      <point x="147.9" y="603.84" type="line"/>
      <point x="1008.22" y="603.84" type="line"/>
      <point x="1008.22" y="738.32" type="line"/>
      <point x="147.9" y="738.32" type="line"/>
    </contour>
    <contour>
      <point x="856.62" y="315.72" type="line"/>
      <point x="1008.22" y="315.72" type="line"/>
      <point x="1008.22" y="738.32" type="line"/>
      <point x="856.62" y="738.32" type="line"/>
    </contour>
  </outline>
</glyph>
<glyph name="registered" format="2">
  <advance width="1663"/>
  <unicode hex="00AE"/>
  <outline>
    <contour>
      <point x="767.38" y="626.76" type="line" smooth="yes"/>
      <point x="802.14" y="626.76"/>
      <point x="815.22" y="616.76"/>
      <point x="827.38" y="599.36" type="curve" smooth="yes"/>
      <point x="1028.86" y="297.16" type="line"/>
      <point x="1039.18" y="279.44"/>
      <point x="1055.06" y="271.88"/>
      <point x="1077.26" y="271.88" type="curve" smooth="yes"/>
      <point x="1225.78" y="271.88" type="line"/>
      <point x="997.62" y="606.16" type="line"/>
      <point x="966.98" y="660.24"/>
      <point x="933.86" y="687.68"/>
      <point x="849.74" y="687.68" type="curve"/>
      <point x="794.62" y="653.76" type="line"/>
      <point x="824.66" y="653.76" type="line" smooth="yes" name="n14"/>
      <point x="1044.94" y="653.76"/>
      <point x="1157.22" y="762.12"/>
      <point x="1157.22" y="916.76" type="curve" smooth="yes" name="n17"/>
      <point x="1157.22" y="1078.64"/>
      <point x="1047.82" y="1163.76"/>
      <point x="819.38" y="1163.76" type="curve" smooth="yes" name="n20"/>
      <point x="531.78" y="1163.76" type="line"/>
      <point x="531.78" y="271.88" type="line"/>
      <point x="687.54" y="271.88" type="line"/>
      <point x="687.54" y="1044.4" type="line" name="n24"/>
      <point x="819.38" y="1044.4" type="line" smooth="yes" name="n25"/>
      <point x="957.74" y="1044.4"/>
      <point x="1003.62" y="997.36"/>
      <point x="1003.62" y="897.32" type="curve" smooth="yes" name="n28"/>
      <point x="1003.62" y="796.04"/>
      <point x="951.3" y="739.64"/>
      <point x="803.06" y="739.64" type="curve" smooth="yes" name="n31"/>
      <point x="642.38" y="739.64" type="line" name="n32"/>
      <point x="638.06" y="626.76" type="line"/>
    </contour>
    <contour>
      <point x="100.98" y="716.2" type="curve" smooth="yes" name="n34"/>
      <point x="100.98" y="313.56"/>
      <point x="428.54" y="-14"/>
      <point x="831.18" y="-14" type="curve" smooth="yes" name="n37"/>
      <point x="1234.9" y="-14"/>
      <point x="1562.46" y="313.56"/>
      <point x="1562.46" y="716.2" type="curve" smooth="yes" name="n40"/>
      <point x="1562.46" y="1119.92"/>
      <point x="1234.9" y="1447.48"/>
      <point x="831.18" y="1447.48" type="curve" smooth="yes" name="n43"/>
      <point x="428.54" y="1447.48"/>
      <point x="100.98" y="1119.92"/>
    </contour>
    <contour>
      <point x="201.66" y="716.2" type="curve" smooth="yes" name="n46"/>
      <point x="201.66" y="1074.44"/>
      <point x="479.42" y="1360.68"/>
      <point x="831.18" y="1360.68" type="curve" smooth="yes" name="n49"/>
      <point x="1184.02" y="1360.68"/>
      <point x="1464.86" y="1074.44"/>
      <point x="1464.86" y="716.2" type="curve" smooth="yes" name="n52"/>
      <point x="1464.86" y="359.04"/>
      <point x="1184.02" y="75.88"/>
      <point x="831.18" y="75.88" type="curve" smooth="yes" name="n55"/>
      <point x="479.42" y="75.88"/>
      <point x="201.66" y="359.04"/>
    </contour>
  </outline>
</glyph>
<glyph name="macron" format="2">
  <advance width="800.0"/>
  <unicode hex="00AF"/>
  <unicode hex="02C9"/>
  <anchor x="400.0" y="1120.0" name="_top"/>
  <outline>
    <contour>
      <point x="113.0" y="1231.12" type="line"/>
      <point x="687.0" y="1231.12" type="line"/>
      <point x="687.0" y="1347.24" type="line"/>
      <point x="113.0" y="1347.24" type="line"/>
    </contour>
  </outline>
</glyph>
<glyph name="degree" format="2">
  <advance width="829"/>
  <unicode hex="00B0"/>
  <outline>
    <contour>
      <point x="88.72" y="1128.12" type="curve" smooth="yes" name="n00"/>
      <point x="88.72" y="952.52"/>
      <point x="231.08" y="806.92"/>
      <point x="414.08" y="806.92" type="curve" smooth="yes" name="n03"/>
      <point x="597.08" y="806.92"/>
      <point x="740.52" y="952.52"/>
      <point x="740.52" y="1128.12" type="curve" smooth="yes" name="n06"/>
      <point x="740.52" y="1306.96"/>
      <point x="597.08" y="1449.48"/>
      <point x="414.08" y="1449.48" type="curve" smooth="yes" name="n09"/>
      <point x="231.08" y="1449.48"/>
      <point x="88.72" y="1306.96"/>
    </contour>
    <contour>
      <point x="215.32" y="1127.04" type="curve" smooth="yes" name="n12"/>
      <point x="215.32" y="1239.88"/>
      <point x="301.24" y="1329.04"/>
      <point x="414.08" y="1329.04" type="curve" smooth="yes" name="n15"/>
      <point x="526.92" y="1329.04"/>
      <point x="612.84" y="1239.88"/>
      <point x="612.84" y="1127.04" type="curve" smooth="yes" name="n18"/>
      <point x="612.84" y="1015.28"/>
      <point x="526.92" y="927.2"/>
      <point x="414.08" y="927.2" type="curve" smooth="yes" name="n21"/>
      <point x="301.24" y="927.2"/>
      <point x="215.32" y="1015.28"/>
    </contour>
  </outline>
</glyph>
<glyph name="plusminus" format="2">
  <advance width="1160.0"/>
  <unicode hex="00B1"/>
  <outline>
    <contour>
      <point x="100.64" y="690.24" type="line"/>
      <point x="1059.36" y="690.24" type="line"/>
      <point x="1059.36" y="824.72" type="line"/>
      <point x="100.64" y="824.72" type="line"/>
    </contour>
    <contour>
      <point x="506.36" y="1201.8" type="line"/>
      <point x="506.36" y="321.96000000000004" type="line"/>
      <point x="651.64" y="321.96000000000004" type="line"/>
      <point x="651.64" y="1201.8" type="line"/>
    </contour>
    <contour>
      <point x="100.64" y="80.0" type="line"/>
      <point x="1059.36" y="80.0" type="line"/>
      <point x="1059.36" y="214.48000000000002" type="line"/>
      <point x="100.64" y="214.48000000000002" type="line"/>
    </contour>
  </outline>
</glyph>
<glyph name="acute" format="2">
  <advance width="800.0"/>
  <unicode hex="00B4"/>
  <anchor x="400.0" y="1120.0" name="_top"/>
  <outline>
    <contour>
      <point x="517.16" y="1448.4" type="line" smooth="yes"/>
      <point x="473.56" y="1448.4"/>
      <point x="455.84" y="1434.68"/>
      <point x="438.44" y="1404.8" type="curve" smooth="yes"/>
      <point x="289.56" y="1163.4" type="line"/>
      <point x="396.44" y="1163.4" type="line" smooth="yes"/>
      <point x="424.04" y="1163.4"/>
      <point x="439.76" y="1170.8"/>
      <point x="457.8" y="1190.84" type="curve"/>
      <point x="691.12" y="1448.4" type="line"/>
    </contour>
  </outline>
</glyph>
<glyph name="paragraph" format="2">
  <advance width="1401.08"/>
  <unicode hex="00B6"/>
  <outline>
    <contour>
      <point x="677.0" y="1432.4" type="line"/>
      <point x="520.16" y="1432.4" type="line"/>
      <point x="520.16" y="-200.52" type="line"/>
      <point x="677.0" y="-200.52" type="line"/>
    </contour>
    <contour>
      <point x="520.16" y="1432.4" type="line"/>
      <point x="244.0" y="1432.4"/>
      <point x="70.12" y="1278.16"/>
      <point x="70.12" y="1049.0" type="curve" smooth="yes"/>
      <point x="70.12" y="833.72"/>
      <point x="244.0" y="660.72"/>
      <point x="520.16" y="660.72" type="curve"/>
      <point x="558.84" y="1280.8" type="line"/>
      <point x="1330.0" y="1280.8" type="line"/>
      <point x="1330.0" y="1432.4" type="line"/>
    </contour>
    <contour>
      <point x="1110.8" y="1432.4" type="line"/>
      <point x="953.96" y="1432.4" type="line"/>
      <point x="953.96" y="-200.52" type="line"/>
      <point x="1110.8" y="-200.52" type="line"/>
    </contour>
  </outline>
</glyph>
<glyph name="cedilla" format="2">
  <advance width="800"/>
  <unicode hex="00B8"/>
  <anchor x="400" y="-70" name="_bottom"/>
  <outline>
    <contour>
      <point x="282.22" y="-252.8" type="curve" smooth="yes"/>
      <point x="269.58" y="-252.8"/>
      <point x="263.26" y="-259.12"/>
      <point x="259.26" y="-270.68" type="curve"/>
      <point x="242.3" y="-325.44" type="line"/>
      <point x="283.1" y="-344.64"/>
      <point x="334.46" y="-356.92"/>
      <point x="388.46" y="-356.92" type="curve" smooth="yes" name="n07"/>
      <point x="516.26" y="-356.92"/>
      <point x="604.94" y="-304.28"/>
      <point x="604.94" y="-218.56" type="curve" smooth="yes" name="n10"/>
      <point x="604.94" y="-136.88"/>
      <point x="539.14" y="-89.28"/>
      <point x="380.26" y="-66.96" type="curve"/>
      <point x="421.58" y="-102.12" type="line"/>
      <point x="458.12" y="24.84" type="line" name="n15"/>
      <point x="356.96" y="24.84" type="line"/>
      <point x="303.46" y="-136.8" type="line"/>
      <point x="405.14" y="-149.88"/>
      <point x="464.14" y="-164.48"/>
      <point x="464.14" y="-216.24" type="curve" smooth="yes" name="n20"/>
      <point x="464.14" y="-251.24"/>
      <point x="434.5" y="-276.28"/>
      <point x="379.34" y="-276.28" type="curve" smooth="yes" name="n23"/>
      <point x="321.9" y="-276.28"/>
      <point x="298.54" y="-252.8"/>
    </contour>
  </outline>
</glyph>
<glyph name="ordmasculine" format="2">
  <advance width="804.44"/>
  <unicode hex="00BA"/>
  <anchor x="402.22" y="-70.0" name="bottom"/>
  <outline>
    <contour>
      <point x="403.76" y="1448.72" type="curve" smooth="yes"/>
      <point x="215.56" y="1448.72"/>
      <point x="93.64" y="1329.48"/>
      <point x="93.64" y="1139.6" type="curve" smooth="yes"/>
      <point x="93.64" y="947.56"/>
      <point x="215.56" y="828.16"/>
      <point x="403.76" y="828.16" type="curve" smooth="yes"/>
      <point x="589.96" y="828.16"/>
      <point x="710.8" y="947.56"/>
      <point x="710.8" y="1139.6" type="curve" smooth="yes"/>
      <point x="710.8" y="1329.48"/>
      <point x="589.96" y="1448.72"/>
    </contour>
    <contour>
      <point x="403.76" y="933.8" type="curve" smooth="yes"/>
      <point x="288.36" y="933.8"/>
      <point x="233.52" y="1006.0"/>
      <point x="233.52" y="1138.52" type="curve" smooth="yes"/>
      <point x="233.52" y="1271.04"/>
      <point x="288.36" y="1343.08"/>
      <point x="403.76" y="1343.08" type="curve" smooth="yes"/>
      <point x="515.0" y="1343.08"/>
      <point x="570.92" y="1271.04"/>
      <point x="570.92" y="1138.52" type="curve" smooth="yes"/>
      <point x="570.92" y="1006.0"/>
      <point x="515.0" y="933.8"/>
    </contour>
  </outline>
</glyph>
<glyph name="questiondown" format="2">
  <advance width="881"/>
  <unicode hex="00BF"/>
  <outline>
    <component base="period" xOffset="251.48" yOffset="793.44"/>
    <contour>
      <point x="761.44" y="-137.44" type="line"/>
      <point x="752.96" y="-122.48"/>
      <point x="740.16" y="-115.08"/>
      <point x="723.2" y="-115.08" type="curve" smooth="yes"/>
      <point x="691.6" y="-115.08"/>
      <point x="627.52" y="-210.68"/>
      <point x="465.44" y="-210.68" type="curve" smooth="yes" name="n06"/>
      <point x="345.84" y="-210.68"/>
      <point x="249.36" y="-138.6"/>
      <point x="249.36" y="-22.28" type="curve" smooth="yes" name="n09"/>
      <point x="249.36" y="217.72"/>
      <point x="572.56" y="202.72"/>
      <point x="556.36" y="392.2" type="curve" name="n12"/>
      <point x="544.48" y="558.64" type="line" name="n13"/>
      <point x="422.64" y="558.64" type="line"/>
      <point x="404.76" y="405" type="line" name="n15"/>
      <point x="387.8" y="271.8"/>
      <point x="82.8" y="266.76"/>
      <point x="82.8" y="-37.4" type="curve" smooth="yes" name="n18"/>
      <point x="82.8" y="-235.92"/>
      <point x="239.88" y="-355.96"/>
      <point x="450.32" y="-355.96" type="curve" smooth="yes" name="n21"/>
      <point x="610.84" y="-355.96"/>
      <point x="725.04" y="-289.04"/>
      <point x="808.48" y="-212.4" type="curve"/>
    </contour>
  </outline>
</glyph>
<glyph name="AE" format="2">
  <advance width="1861"/>
  <unicode hex="00C6"/>
  <anchor x="1250.78" y="1511.66" name="Top"/>
  <anchor x="874.76" y="-70" name="bottom"/>
  <anchor x="1250.78" y="1511.66" name="top"/>
  <outline>
    <contour>
      <point x="-6.32" y="0" type="line"/>
      <point x="141.12" y="0" type="line" smooth="yes"/>
      <point x="176.28" y="0"/>
      <point x="202.42" y="17.66"/>
      <point x="215.14" y="44.72" type="curve"/>
      <point x="783.68" y="1144.56" type="line"/>
      <point x="819.12" y="1220.08"/>
      <point x="853.04" y="1313.84"/>
      <point x="874.16" y="1432.4" type="curve"/>
      <point x="750.16" y="1432.4" type="line"/>
    </contour>
    <contour>
      <point x="311.44" y="392.68" type="line" name="n10"/>
      <point x="1081.64" y="392.68" type="line"/>
      <point x="1081.64" y="531.48" type="line"/>
      <point x="311.44" y="531.48" type="line" name="n13"/>
    </contour>
    <contour>
      <point x="1003.72" y="1432.4" type="line"/>
      <point x="820.8" y="1432.4" type="line"/>
      <point x="999.56" y="0" type="line"/>
      <point x="1182.48" y="0" type="line"/>
    </contour>
    <contour>
      <point x="1062.6" y="798.68" type="line" name="n18"/>
      <point x="1062.6" y="647.08" type="line" name="n19"/>
      <point x="1640.92" y="647.08" type="line"/>
      <point x="1640.92" y="798.68" type="line"/>
    </contour>
    <contour>
      <point x="964.4" y="1432.4" type="line" name="n22"/>
      <point x="964.4" y="1275.4" type="line" name="n23"/>
      <point x="1771.72" y="1275.4" type="line"/>
      <point x="1771.72" y="1432.4" type="line"/>
    </contour>
    <contour>
      <point x="1108.6" y="157" type="line" name="n26"/>
      <point x="1108.6" y="0" type="line" name="n27"/>
      <point x="1771.72" y="0" type="line"/>
      <point x="1772.64" y="157" type="line"/>
    </contour>
  </outline>
</glyph>
<glyph name="Eth" format="2">
  <advance width="1537"/>
  <unicode hex="00D0"/>
  <anchor x="671.42" y="1511.66" name="Top"/>
  <anchor x="636.04" y="-70" name="bottom"/>
  <anchor x="671.42" y="1511.66" name="top"/>
  <outline>
    <contour>
      <point x="1441.22" y="716.2" type="curve" smooth="yes" name="n00"/>
      <point x="1441.22" y="1145.24"/>
      <point x="1156.7" y="1432.4"/>
      <point x="734.9" y="1432.4" type="curve" smooth="yes" name="n03"/>
      <point x="199.26" y="1432.4" type="line" name="n04"/>
      <point x="199.26" y="0" type="line"/>
      <point x="734.9" y="0" type="line" smooth="yes" name="n06"/>
      <point x="1156.7" y="0"/>
      <point x="1441.22" y="286.08"/>
    </contour>
    <contour>
      <point x="1242.42" y="716.2" type="curve" smooth="yes" name="n09"/>
      <point x="1242.42" y="363.2"/>
      <point x="1043.5" y="156.08"/>
      <point x="734.9" y="156.08" type="curve" smooth="yes" name="n12"/>
      <point x="393.9" y="156.08" type="line"/>
      <point x="393.9" y="1276.32" type="line" name="n14"/>
      <point x="734.9" y="1276.32" type="line" smooth="yes" name="n15"/>
      <point x="1043.5" y="1276.32"/>
      <point x="1242.42" y="1068.12"/>
    </contour>
    <contour>
      <point x="2.9" y="666.36" type="line" name="n18"/>
      <point x="683.9" y="666.36" type="line"/>
      <point x="683.9" y="779.24" type="line"/>
      <point x="2.9" y="779.24" type="line" name="n21"/>
    </contour>
  </outline>
</glyph>
<glyph name="multiply" format="2">
  <advance width="1160"/>
  <unicode hex="00D7"/>
  <outline>
    <contour>
      <point x="140.82" y="1015.88" type="line"/>
      <point x="936.06" y="221.56" type="line"/>
      <point x="1031.06" y="316.56" type="line"/>
      <point x="235.66" y="1111.8" type="line" name="n03"/>
    </contour>
    <contour>
      <point x="924.34" y="1109.8" type="line"/>
      <point x="130.02" y="314.56" type="line"/>
      <point x="225.02" y="219.56" type="line" name="n06"/>
      <point x="1020.26" y="1013.88" type="line"/>
    </contour>
  </outline>
</glyph>
<glyph name="Oslash" format="2">
  <advance width="1601"/>
  <unicode hex="00D8"/>
  <anchor x="808.74" y="1511.66" name="Top"/>
  <anchor x="714.88" y="-70" name="bottom"/>
  <anchor x="808.74" y="1511.66" name="top"/>
  <outline>
    <contour>
      <point x="1464.32" y="1497.48" type="line" name="n00"/>
      <point x="1364.08" y="1497.48" type="line" smooth="yes"/>
      <point x="1320.6" y="1497.48"/>
      <point x="1306.88" y="1483.76"/>
      <point x="1280.36" y="1447.68" type="curve" smooth="yes"/>
      <point x="138.12" y="-108.48" type="line" name="n05"/>
      <point x="215.84" y="-108.48" type="line" smooth="yes"/>
      <point x="254.08" y="-108.48"/>
      <point x="296.64" y="-93.68"/>
      <point x="325.32" y="-54.36" type="curve" smooth="yes"/>
    </contour>
    <contour>
      <point x="1506.6" y="716.2" type="curve" smooth="yes" name="n10"/>
      <point x="1506.6" y="1145.24"/>
      <point x="1222.08" y="1448.4"/>
      <point x="800.28" y="1448.4" type="curve" smooth="yes" name="n13"/>
      <point x="380.32" y="1448.4"/>
      <point x="93.8" y="1145.4"/>
      <point x="93.8" y="716.2" type="curve" smooth="yes" name="n16"/>
      <point x="93.8" y="286.08"/>
      <point x="380.32" y="-15.08"/>
      <point x="800.28" y="-15.08" type="curve" smooth="yes" name="n19"/>
      <point x="1222.08" y="-15.08"/>
      <point x="1506.6" y="286.08"/>
    </contour>
    <contour>
      <point x="1307.8" y="716.2" type="curve" smooth="yes" name="n22"/>
      <point x="1307.8" y="363.2"/>
      <point x="1108.88" y="151.8"/>
      <point x="800.28" y="151.8" type="curve" smooth="yes" name="n25"/>
      <point x="493.36" y="151.8"/>
      <point x="291.68" y="363.2"/>
      <point x="291.68" y="716.2" type="curve" smooth="yes" name="n28"/>
      <point x="291.68" y="1068.12"/>
      <point x="493.36" y="1281.52"/>
      <point x="800.28" y="1281.52" type="curve" smooth="yes" name="n31"/>
      <point x="1108.88" y="1281.52"/>
      <point x="1307.8" y="1068.12"/>
    </contour>
  </outline>
</glyph>
<glyph name="Thorn" format="2">
  <advance width="1196.76"/>
  <unicode hex="00DE"/>
  <anchor x="385.9" y="1511.66" name="Top"/>
  <anchor x="385.9" y="1511.66" name="top"/>
  <anchor x="279.64" y="-70.0" name="bottom"/>
  <outline>
    <contour>
      <point x="295.14" y="272.08" type="line"/>
      <point x="605.78" y="272.08" type="line" smooth="yes"/>
      <point x="951.66" y="272.08"/>
      <point x="1140.26" y="459.52"/>
      <point x="1140.26" y="725.0" type="curve" smooth="yes"/>
      <point x="1140.26" y="995.0"/>
      <point x="967.94" y="1168.2"/>
      <point x="605.78" y="1168.2" type="curve" smooth="yes"/>
      <point x="376.42" y="1168.2" type="line"/>
      <point x="376.42" y="1432.4" type="line"/>
      <point x="182.86" y="1432.4" type="line"/>
      <point x="182.86" y="0.0" type="line"/>
      <point x="376.42" y="0.0" type="line"/>
      <point x="376.42" y="1016.44" type="line"/>
      <point x="605.78" y="1016.44" type="line" smooth="yes"/>
      <point x="834.66" y="1016.44"/>
      <point x="946.7" y="908.2"/>
      <point x="946.7" y="725.0" type="curve" smooth="yes"/>
      <point x="946.7" y="547.56"/>
      <point x="826.86" y="424.92"/>
      <point x="605.78" y="424.92" type="curve" smooth="yes"/>
      <point x="311.18" y="424.92" type="line"/>
    </contour>
  </outline>
</glyph>
<glyph name="germandbls" format="2">
  <advance width="1160"/>
  <unicode hex="00DF"/>
  <anchor x="600.8" y="1511.66" name="Top"/>
  <anchor x="566.48" y="-70" name="bottom"/>
  <anchor x="600.8" y="1511.66" name="top"/>
  <outline>
    <contour>
      <point x="627.96" y="1453.96" type="curve" smooth="yes" name="n00"/>
      <point x="333.92" y="1453.96"/>
      <point x="140.8" y="1268.6"/>
      <point x="140.8" y="991.64" type="curve" smooth="yes" name="n03"/>
      <point x="140.8" y="0" type="line" name="n04"/>
      <point x="319.24" y="0" type="line"/>
      <point x="319.24" y="986.24" type="line" smooth="yes" name="n06"/>
      <point x="319.24" y="1211.64"/>
      <point x="439.52" y="1322.72"/>
      <point x="620.4" y="1322.72" type="curve" smooth="yes" name="n09"/>
      <point x="789.64" y="1322.72"/>
      <point x="853.92" y="1225.8"/>
      <point x="853.92" y="1140.4" type="curve" smooth="yes" name="n12"/>
      <point x="853.92" y="946.72"/>
      <point x="551.12" y="925.84"/>
      <point x="551.12" y="712.2" type="curve" smooth="yes" name="n15"/>
      <point x="551.12" y="448.44"/>
      <point x="929.64" y="510.88"/>
      <point x="929.64" y="286.04" type="curve" smooth="yes" name="n18"/>
      <point x="929.64" y="186.64"/>
      <point x="857.12" y="110.92"/>
      <point x="740.72" y="110.92" type="curve" smooth="yes" name="n21"/>
      <point x="598.4" y="110.92"/>
      <point x="548.6" y="201.48"/>
      <point x="499.6" y="201.48" type="curve" smooth="yes"/>
      <point x="476.32" y="201.48"/>
      <point x="462.44" y="191.92"/>
      <point x="451.96" y="174.96" type="curve" smooth="yes"/>
      <point x="410.32" y="107.4" type="line"/>
      <point x="490.32" y="35.4"/>
      <point x="597.48" y="-16"/>
      <point x="725.6" y="-16" type="curve" smooth="yes" name="n31"/>
      <point x="935.16" y="-16"/>
      <point x="1096.36" y="107.52"/>
      <point x="1096.36" y="313.96" type="curve" smooth="yes" name="n34"/>
      <point x="1096.36" y="624.4"/>
      <point x="737.28" y="588.16"/>
      <point x="737.28" y="746.76" type="curve" smooth="yes" name="n37"/>
      <point x="737.28" y="877.12"/>
      <point x="1026.2" y="902"/>
      <point x="1026.2" y="1140.56" type="curve" smooth="yes" name="n40"/>
      <point x="1026.2" y="1274.72"/>
      <point x="902.36" y="1453.96"/>
    </contour>
  </outline>
</glyph>
<glyph name="ae" format="2">
  <advance width="1610.06"/>
  <unicode hex="00E6"/>
  <anchor x="794.68" y="1120.0" name="top"/>
  <anchor x="752.84" y="-70.0" name="bottom"/>
  <outline>
    <contour>
      <point x="1142.32" y="1028.4" type="curve" smooth="yes"/>
      <point x="867.0" y="1028.4"/>
      <point x="716.2" y="809.88"/>
      <point x="716.2" y="527.28" type="curve" smooth="yes"/>
      <point x="716.2" y="161.48"/>
      <point x="902.32" y="-14.16"/>
      <point x="1139.84" y="-14.16" type="curve" smooth="yes"/>
      <point x="1277.84" y="-14.16"/>
      <point x="1429.44" y="35.16"/>
      <point x="1516.96" y="141.92000000000002" type="curve"/>
      <point x="1469.76" y="202.08" type="line" smooth="yes"/>
      <point x="1462.36" y="212.72"/>
      <point x="1450.64" y="219.04000000000002"/>
      <point x="1432.6" y="219.04000000000002" type="curve" smooth="yes"/>
      <point x="1390.36" y="219.04000000000002"/>
      <point x="1341.4" y="125.72000000000001"/>
      <point x="1156.04" y="125.72000000000001" type="curve" smooth="yes"/>
      <point x="975.08" y="125.72000000000001"/>
      <point x="858.4" y="257.28"/>
      <point x="858.4" y="527.28" type="curve" smooth="yes"/>
      <point x="858.4" y="754.68"/>
      <point x="953.52" y="898.24"/>
      <point x="1135.68" y="898.24" type="curve" smooth="yes"/>
      <point x="1283.76" y="898.24"/>
      <point x="1371.76" y="771.2"/>
      <point x="1371.76" y="596.56" type="curve"/>
      <point x="823.08" y="596.56" type="line"/>
      <point x="825.4" y="486.76" type="line"/>
      <point x="1488.68" y="486.76" type="line" smooth="yes"/>
      <point x="1521.68" y="486.76"/>
      <point x="1530.0" y="501.56"/>
      <point x="1530.0" y="556.16" type="curve" smooth="yes"/>
      <point x="1530.0" y="853.56"/>
      <point x="1360.72" y="1028.4"/>
    </contour>
    <contour>
      <point x="813.36" y="402.4" type="line"/>
      <point x="824.16" y="648.0" type="line" smooth="yes"/>
      <point x="824.16" y="875.88"/>
      <point x="726.76" y="1030.56"/>
      <point x="494.8" y="1030.56" type="curve" smooth="yes"/>
      <point x="344.76" y="1030.56"/>
      <point x="228.24" y="976.56"/>
      <point x="117.12" y="870.24" type="curve"/>
      <point x="149.2" y="813.32" type="line" smooth="yes"/>
      <point x="160.76" y="795.28"/>
      <point x="177.88" y="780.3199999999999"/>
      <point x="202.4" y="780.3199999999999" type="curve" smooth="yes"/>
      <point x="264.36" y="780.3199999999999"/>
      <point x="317.04" y="892.84"/>
      <point x="491.56" y="892.84" type="curve" smooth="yes"/>
      <point x="622.2" y="892.84"/>
      <point x="691.68" y="805.4"/>
      <point x="691.68" y="648.0" type="curve" smooth="yes"/>
      <point x="691.68" y="402.4" type="line"/>
    </contour>
    <contour>
      <point x="691.68" y="402.4" type="line"/>
      <point x="691.68" y="205.4"/>
      <point x="571.8" y="108.76"/>
      <point x="420.24" y="108.76" type="curve" smooth="yes"/>
      <point x="312.2" y="108.76"/>
      <point x="239.08" y="159.32"/>
      <point x="239.08" y="275.92" type="curve" smooth="yes"/>
      <point x="239.08" y="391.0"/>
      <point x="369.8" y="478.15999999999997"/>
      <point x="718.2" y="486.92" type="curve"/>
      <point x="696.6" y="597.64" type="line"/>
      <point x="233.32" y="587.64"/>
      <point x="68.19999999999999" y="429.08"/>
      <point x="68.19999999999999" y="267.28" type="curve" smooth="yes"/>
      <point x="68.19999999999999" y="75.76"/>
      <point x="194.8" y="-16.0"/>
      <point x="379.2" y="-16.0" type="curve" smooth="yes"/>
      <point x="586.6" y="-16.0"/>
      <point x="813.36" y="96.52000000000001"/>
      <point x="813.36" y="402.4" type="curve"/>
    </contour>
  </outline>
</glyph>
<glyph name="ccedilla" format="2">
  <advance width="955.68"/>
  <unicode hex="00E7"/>
  <anchor x="555.94" y="1120.0" name="top"/>
  <anchor x="508.82" y="-421.0" name="bottom"/>
  <outline>
    <contour>
      <point x="893.34" y="897.24" type="line"/>
      <point x="810.06" y="979.92"/>
      <point x="702.02" y="1028.4"/>
      <point x="560.26" y="1028.4" type="curve" smooth="yes"/>
      <point x="253.54" y="1028.4"/>
      <point x="83.66" y="809.12"/>
      <point x="83.66" y="507.28" type="curve" smooth="yes"/>
      <point x="83.66" y="177.24"/>
      <point x="277.14" y="-14.16"/>
      <point x="530.22" y="-14.16" type="curve" smooth="yes"/>
      <point x="676.82" y="-14.16"/>
      <point x="817.5" y="34.239999999999995"/>
      <point x="905.02" y="141.92000000000002" type="curve"/>
      <point x="854.58" y="206.4" type="line" smooth="yes"/>
      <point x="847.18" y="217.04000000000002"/>
      <point x="835.46" y="223.36"/>
      <point x="820.66" y="223.36" type="curve" smooth="yes"/>
      <point x="773.34" y="223.36"/>
      <point x="734.98" y="123.56"/>
      <point x="561.54" y="123.56" type="curve" smooth="yes"/>
      <point x="381.54" y="123.56"/>
      <point x="266.42" y="261.92"/>
      <point x="266.42" y="507.28" type="curve" smooth="yes"/>
      <point x="266.42" y="743.72"/>
      <point x="372.14" y="890.68"/>
      <point x="571.06" y="890.68" type="curve" smooth="yes"/>
      <point x="720.82" y="890.68"/>
      <point x="768.3" y="810.56"/>
      <point x="808.06" y="810.56" type="curve" smooth="yes"/>
      <point x="827.18" y="810.56"/>
      <point x="835.66" y="819.04"/>
      <point x="846.3" y="832.92" type="curve" smooth="yes"/>
    </contour>
    <contour>
      <point x="422.44" y="-252.8" type="curve" smooth="yes"/>
      <point x="409.8" y="-252.8"/>
      <point x="403.48" y="-259.12"/>
      <point x="399.48" y="-270.68" type="curve" smooth="yes"/>
      <point x="382.52" y="-325.44" type="line"/>
      <point x="423.32" y="-344.64"/>
      <point x="474.68" y="-356.92"/>
      <point x="528.68" y="-356.92" type="curve" smooth="yes"/>
      <point x="656.48" y="-356.92"/>
      <point x="745.16" y="-304.28"/>
      <point x="745.16" y="-218.56" type="curve" smooth="yes"/>
      <point x="745.16" y="-136.88"/>
      <point x="679.36" y="-89.28"/>
      <point x="520.48" y="-66.96" type="curve"/>
      <point x="561.8" y="-102.12" type="line"/>
      <point x="598.34" y="24.840000000000003" type="line"/>
      <point x="497.18" y="24.840000000000003" type="line"/>
      <point x="443.68" y="-136.8" type="line"/>
      <point x="545.36" y="-149.88"/>
      <point x="604.36" y="-164.48"/>
      <point x="604.36" y="-216.24" type="curve" smooth="yes"/>
      <point x="604.36" y="-251.24"/>
      <point x="574.72" y="-276.28"/>
      <point x="519.56" y="-276.28" type="curve" smooth="yes"/>
      <point x="462.12" y="-276.28"/>
      <point x="438.76" y="-252.8"/>
    </contour>
  </outline>
</glyph>
<glyph name="eth" format="2">
  <advance width="1131.98"/>
  <unicode hex="00F0"/>
  <guideline y="1406.0"/>
  <anchor x="716.96" y="1511.66" name="Top"/>
  <anchor x="716.96" y="1511.66" name="top"/>
  <anchor x="549.1" y="-70.0" name="bottom"/>
  <outline>
    <contour>
      <point x="319.3" y="1414.12" type="curve"/>
      <point x="298.94" y="1352.12" type="line" smooth="yes"/>
      <point x="281.82" y="1304.16"/>
      <point x="305.86" y="1276.4"/>
      <point x="336.86" y="1267.76" type="curve"/>
      <point x="696.06" y="1182.28"/>
      <point x="881.42" y="1004.04"/>
      <point x="882.34" y="601.08" type="curve"/>
      <point x="868.46" y="596.16" type="line"/>
      <point x="868.46" y="278.68"/>
      <point x="748.34" y="124.48"/>
      <point x="551.5" y="124.48" type="curve" smooth="yes"/>
      <point x="392.1" y="124.48"/>
      <point x="259.78" y="246.52"/>
      <point x="259.78" y="464.36" type="curve" smooth="yes"/>
      <point x="259.78" y="646.0"/>
      <point x="364.46000000000004" y="789.08"/>
      <point x="563.66" y="789.08" type="curve" smooth="yes"/>
      <point x="743.5" y="789.08"/>
      <point x="840.18" y="662.3199999999999"/>
      <point x="877.1" y="536.4" type="curve"/>
      <point x="956.98" y="578.2" type="line"/>
      <point x="888.02" y="811.36"/>
      <point x="719.66" y="926.8"/>
      <point x="529.1" y="926.8" type="curve" smooth="yes"/>
      <point x="252.94" y="926.8"/>
      <point x="82.41999999999999" y="715.56"/>
      <point x="82.41999999999999" y="465.44" type="curve" smooth="yes"/>
      <point x="82.41999999999999" y="167.08"/>
      <point x="286.62" y="-13.24"/>
      <point x="547.18" y="-13.24" type="curve" smooth="yes"/>
      <point x="868.02" y="-13.24"/>
      <point x="1035.34" y="222.88"/>
      <point x="1035.34" y="603.72" type="curve" smooth="yes"/>
      <point x="1035.34" y="1125.68"/>
      <point x="694.1" y="1354.24"/>
    </contour>
    <contour>
      <point x="456.22" y="1009.52" type="line"/>
      <point x="673.18" y="1169.52" type="line"/>
      <point x="689.06" y="1173.52" type="line"/>
      <point x="864.12" y="1294.7" type="line" smooth="yes"/>
      <point x="886.16" y="1309.64"/>
      <point x="892.1800000000001" y="1332.92"/>
      <point x="878.46" y="1355.12" type="curve"/>
      <point x="843.14" y="1412.04" type="line"/>
      <point x="628.62" y="1254.64" type="line"/>
      <point x="613.82" y="1250.64" type="line"/>
      <point x="437.26" y="1127.64" type="line"/>
      <point x="412.9" y="1113.0"/>
      <point x="407.34" y="1088.8"/>
      <point x="423.06" y="1065.36" type="curve"/>
    </contour>
  </outline>
</glyph>
<glyph name="divide" format="2">
  <advance width="1160.0"/>
  <unicode hex="00F7"/>
  <outline>
    <contour>
      <point x="100.18" y="603.84" type="line"/>
      <point x="1058.9" y="603.84" type="line"/>
      <point x="1058.9" y="738.32" type="line"/>
      <point x="100.18" y="738.32" type="line"/>
    </contour>
    <contour>
      <point x="454.06" y="1026.16" type="curve" smooth="yes"/>
      <point x="454.06" y="955.6"/>
      <point x="507.98" y="901.68"/>
      <point x="578.54" y="901.68" type="curve" smooth="yes"/>
      <point x="648.02" y="901.68"/>
      <point x="703.94" y="955.6"/>
      <point x="703.94" y="1026.16" type="curve" smooth="yes"/>
      <point x="703.94" y="1095.64"/>
      <point x="648.02" y="1151.56"/>
      <point x="578.54" y="1151.56" type="curve" smooth="yes"/>
      <point x="507.98" y="1151.56"/>
      <point x="454.06" y="1095.64"/>
    </contour>
    <contour>
      <point x="454.06" y="314.16" type="curve" smooth="yes"/>
      <point x="454.06" y="243.6"/>
      <point x="507.98" y="189.68"/>
      <point x="578.54" y="189.68" type="curve" smooth="yes"/>
      <point x="648.02" y="189.68"/>
      <point x="703.94" y="243.6"/>
      <point x="703.94" y="314.16" type="curve" smooth="yes"/>
      <point x="703.94" y="383.64"/>
      <point x="648.02" y="439.56"/>
      <point x="578.54" y="439.56" type="curve" smooth="yes"/>
      <point x="507.98" y="439.56"/>
      <point x="454.06" y="383.64"/>
    </contour>
  </outline>
</glyph>
<glyph name="oslash" format="2">
  <advance width="1133"/>
  <unicode hex="00F8"/>
  <anchor x="516.68" y="-70" name="bottom"/>
  <anchor x="567.28" y="1120" name="top"/>
  <outline>
    <contour>
      <point x="567.82" y="1028.4" type="curve" smooth="yes" name="n00"/>
      <point x="270.22" y="1028.4"/>
      <point x="83.66" y="825.32"/>
      <point x="83.66" y="507.28" type="curve" smooth="yes" name="n03"/>
      <point x="83.66" y="188.16"/>
      <point x="270.22" y="-14.16"/>
      <point x="567.82" y="-14.16" type="curve" smooth="yes" name="n06"/>
      <point x="864.34" y="-14.16"/>
      <point x="1049.82" y="188.16"/>
      <point x="1049.82" y="507.28" type="curve" smooth="yes" name="n09"/>
      <point x="1049.82" y="825.32"/>
      <point x="864.34" y="1028.4"/>
    </contour>
    <contour>
      <point x="567.82" y="119.24" type="curve" smooth="yes" name="n12"/>
      <point x="365.7" y="119.24"/>
      <point x="256.7" y="254.92"/>
      <point x="256.7" y="506.2" type="curve" smooth="yes" name="n15"/>
      <point x="256.7" y="746.68"/>
      <point x="365.7" y="895"/>
      <point x="567.82" y="895" type="curve" smooth="yes" name="n18"/>
      <point x="767.78" y="895"/>
      <point x="876.78" y="757.48"/>
      <point x="876.78" y="506.2" type="curve" smooth="yes" name="n21"/>
      <point x="876.78" y="265.72"/>
      <point x="767.78" y="119.24"/>
    </contour>
    <contour>
      <point x="1079.26" y="1096.8" type="line" name="n24"/>
      <point x="989.82" y="1096.8" type="line" smooth="yes"/>
      <point x="946.34" y="1096.8"/>
      <point x="930.46" y="1084.16"/>
      <point x="906.1" y="1047" type="curve"/>
      <point x="75.14" y="-76.16" type="line" name="n29"/>
      <point x="142.06" y="-76.16" type="line" smooth="yes"/>
      <point x="180.3" y="-76.16"/>
      <point x="225.02" y="-62.44"/>
      <point x="251.54" y="-22.04" type="curve"/>
    </contour>
  </outline>
</glyph>
<glyph name="thorn" format="2">
  <advance width="1121.02"/>
  <unicode hex="00FE"/>
  <anchor x="272.68" y="1511.66" name="Top"/>
  <anchor x="272.68" y="1511.66" name="top"/>
  <anchor x="497.66" y="-421.0" name="bottom"/>
  <outline>
    <contour>
      <point x="319.78" y="-342.72" type="line"/>
      <point x="319.78" y="1472.4" type="line"/>
      <point x="141.34" y="1472.4" type="line"/>
      <point x="141.34" y="-342.72" type="line"/>
    </contour>
    <contour>
      <point x="294.66" y="151.92" type="line"/>
      <point x="366.5" y="47.84"/>
      <point x="455.82" y="-14.16"/>
      <point x="597.1800000000001" y="-14.16" type="curve" smooth="yes"/>
      <point x="870.38" y="-14.16"/>
      <point x="1034.74" y="214.16"/>
      <point x="1034.74" y="513.28" type="curve" smooth="yes"/>
      <point x="1034.74" y="850.04"/>
      <point x="884.86" y="1028.4"/>
      <point x="651.38" y="1028.4" type="curve" smooth="yes"/>
      <point x="486.58" y="1028.4"/>
      <point x="366.62" y="939.64"/>
      <point x="276.46000000000004" y="809.6800000000001" type="curve"/>
      <point x="297.74" y="702.68" type="line"/>
      <point x="375.86" y="819.2"/>
      <point x="465.58" y="887.44"/>
      <point x="593.06" y="887.44" type="curve" smooth="yes"/>
      <point x="756.38" y="887.44"/>
      <point x="850.9" y="777.88"/>
      <point x="850.9" y="513.28" type="curve" smooth="yes"/>
      <point x="850.9" y="265.2"/>
      <point x="744.8199999999999" y="123.56"/>
      <point x="557.22" y="123.56" type="curve" smooth="yes"/>
      <point x="456.42" y="123.56"/>
      <point x="376.18" y="159.2"/>
      <point x="308.7" y="259.52" type="curve"/>
    </contour>
  </outline>
</glyph>
<glyph name="Dcroat" format="2">
  <advance width="1537.02"/>
  <unicode hex="0110"/>
  <anchor x="671.42" y="1511.66" name="Top"/>
  <anchor x="671.42" y="1511.66" name="top"/>
  <anchor x="636.04" y="-70.0" name="bottom"/>
  <outline>
    <contour>
      <point x="1441.22" y="716.2" type="curve" smooth="yes"/>
      <point x="1441.22" y="1145.24"/>
      <point x="1156.7" y="1432.4"/>
      <point x="734.9" y="1432.4" type="curve"/>
      <point x="199.26" y="1432.4" type="line"/>
      <point x="199.26" y="0.0" type="line"/>
      <point x="734.9" y="0.0" type="line"/>
      <point x="1156.7" y="0.0"/>
      <point x="1441.22" y="286.08"/>
    </contour>
    <contour>
      <point x="1242.42" y="716.2" type="curve" smooth="yes"/>
      <point x="1242.42" y="363.2"/>
      <point x="1043.5" y="156.08"/>
      <point x="734.9" y="156.08" type="curve"/>
      <point x="393.9" y="156.08" type="line"/>
      <point x="393.9" y="1276.32" type="line"/>
      <point x="734.9" y="1276.32" type="line"/>
      <point x="1043.5" y="1276.32"/>
      <point x="1242.42" y="1068.12"/>
    </contour>
    <contour>
      <point x="2.8999999999999986" y="666.36" type="line"/>
      <point x="683.9" y="666.36" type="line"/>
      <point x="683.9" y="779.24" type="line"/>
      <point x="2.8999999999999986" y="779.24" type="line"/>
    </contour>
  </outline>
</glyph>
<glyph name="dcroat" format="2">
  <advance width="1121.02"/>
  <unicode hex="0111"/>
  <anchor x="860.76" y="1511.66" name="Top"/>
  <anchor x="860.76" y="1511.66" name="top"/>
  <anchor x="605.9" y="-70.0" name="bottom"/>
  <outline>
    <contour>
      <point x="565.38" y="1143.0" type="line"/>
      <point x="1128.5" y="1143.0" type="line"/>
      <point x="1128.5" y="1255.88" type="line"/>
      <point x="565.38" y="1255.88" type="line"/>
    </contour>
    <contour>
      <point x="980.22" y="0.0" type="line"/>
      <point x="980.22" y="1472.4" type="line"/>
      <point x="801.78" y="1472.4" type="line"/>
      <point x="801.78" y="196.68" type="line"/>
      <point x="807.18" y="186.2" type="line"/>
      <point x="826.3" y="36.52" type="line"/>
      <point x="832.78" y="11.56"/>
      <point x="848.66" y="0.0"/>
      <point x="873.78" y="0.0" type="curve"/>
    </contour>
    <contour>
      <point x="839.86" y="841.8" type="line"/>
      <point x="764.78" y="946.96"/>
      <point x="672.22" y="1008.96"/>
      <point x="524.38" y="1008.96" type="curve" smooth="yes"/>
      <point x="251.18" y="1008.96"/>
      <point x="86.82" y="791.44"/>
      <point x="86.82" y="492.32" type="curve" smooth="yes"/>
      <point x="86.82" y="155.56"/>
      <point x="236.7" y="-14.16"/>
      <point x="470.18" y="-14.16" type="curve" smooth="yes"/>
      <point x="634.98" y="-14.16"/>
      <point x="754.94" y="76.76"/>
      <point x="845.1" y="206.72" type="curve"/>
      <point x="823.8199999999999" y="313.72" type="line"/>
      <point x="745.7" y="197.2"/>
      <point x="655.98" y="128.96"/>
      <point x="528.5" y="128.96" type="curve" smooth="yes"/>
      <point x="365.18" y="128.96"/>
      <point x="270.66" y="227.72"/>
      <point x="270.66" y="492.32" type="curve" smooth="yes"/>
      <point x="270.66" y="740.4"/>
      <point x="376.74" y="871.24"/>
      <point x="564.34" y="871.24" type="curve" smooth="yes"/>
      <point x="665.14" y="871.24"/>
      <point x="745.38" y="835.6"/>
      <point x="812.86" y="735.28" type="curve"/>
    </contour>
  </outline>
</glyph>
<glyph name="Hbar" format="2">
  <advance width="1542.12"/>
  <unicode hex="0126"/>
  <anchor x="775.66" y="1511.66" name="Top"/>
  <anchor x="775.66" y="1511.66" name="top"/>
  <anchor x="777.2" y="-70.0" name="bottom"/>
  <anchor x="-83.54" y="1120.0" name="onRight"/>
  <outline>
    <contour>
      <point x="27.259999999999998" y="1037.68" type="line"/>
      <point x="1514.86" y="1037.68" type="line"/>
      <point x="1514.86" y="1152.88" type="line"/>
      <point x="27.259999999999998" y="1152.88" type="line"/>
    </contour>
    <component base="H" xOffset="7.4"/>
  </outline>
</glyph>
<glyph name="idotless" format="2">
  <advance width="481"/>
  <unicode hex="0131"/>
  <anchor x="240.4" y="-70" name="bottom"/>
  <anchor x="245.26" y="1120" name="top"/>
  <outline>
    <contour>
      <point x="151.18" y="1012.4" type="line" name="n00"/>
      <point x="151.18" y="0" type="line" name="n01"/>
      <point x="329.62" y="0" type="line"/>
      <point x="329.62" y="1012.4" type="line" name="n03"/>
    </contour>
  </outline>
</glyph>
<glyph name="Lslash" format="2">
  <advance width="1056"/>
  <unicode hex="0141"/>
  <anchor x="310.74" y="715.12" name="Bar"/>
  <anchor x="321.16" y="1511.66" name="Top"/>
  <anchor x="595.06" y="-70" name="bottom"/>
  <anchor x="321.16" y="1511.66" name="top"/>
  <outline>
    <component base="L" xOffset="28.56"/>
    <contour>
      <point x="24.54" y="458.32" type="line" name="n00"/>
      <point x="331.42" y="614.44" type="line"/>
      <point x="337.58" y="604.72" type="line"/>
      <point x="762.46" y="826.38" type="line"/>
      <point x="782.02" y="834.54"/>
      <point x="789.58" y="849.18"/>
      <point x="789.58" y="870.14" type="curve" smooth="yes"/>
      <point x="789.58" y="1000.48" type="line" name="n07"/>
      <point x="337.58" y="770.2" type="line"/>
      <point x="332.5" y="779.92" type="line"/>
      <point x="49.5" y="630.88" type="line"/>
      <point x="31.94" y="622.72"/>
      <point x="24.54" y="610.08"/>
      <point x="24.54" y="591.44" type="curve" smooth="yes"/>
    </contour>
  </outline>
</glyph>
<glyph name="lslash" format="2">
  <advance width="617"/>
  <unicode hex="0142"/>
  <anchor x="314.58" y="1511.66" name="Top"/>
  <anchor x="318.74" y="730.24" name="bar"/>
  <anchor x="314.96" y="-70" name="bottom"/>
  <anchor x="402.1" y="129.08" name="hook"/>
  <anchor x="314.58" y="1511.66" name="top"/>
  <outline>
    <component base="l" xOffset="76.8"/>
    <contour>
      <point x="42.82" y="648.66" type="line" name="n00"/>
      <point x="314.12" y="765.84" type="line"/>
      <point x="320.28" y="756.12" type="line"/>
      <point x="562.84" y="862.98" type="line" smooth="yes"/>
      <point x="582.4" y="871.14"/>
      <point x="589.96" y="885.78"/>
      <point x="589.96" y="906.74" type="curve" smooth="yes"/>
      <point x="589.96" y="1007.78" type="line" name="n07"/>
      <point x="320.28" y="893.68" type="line"/>
      <point x="315.2" y="903.4" type="line"/>
      <point x="67.78" y="792.38" type="line" smooth="yes"/>
      <point x="50.22" y="784.22"/>
      <point x="42.82" y="771.58"/>
      <point x="42.82" y="752.94" type="curve" smooth="yes"/>
    </contour>
  </outline>
</glyph>
<glyph name="Eng" format="2">
  <advance width="1527.32"/>
  <unicode hex="014A"/>
  <anchor x="789.14" y="1510.74" name="Top"/>
  <anchor x="789.14" y="1510.74" name="top"/>
  <anchor x="763.66" y="-421.0" name="bottom"/>
  <outline>
    <contour>
      <point x="1209.62" y="279.20000000000005" type="line"/>
      <point x="349.58000000000004" y="1399.56" type="line"/>
      <point x="328.3" y="1427.16"/>
      <point x="316.74" y="1432.4"/>
      <point x="282.66" y="1432.4" type="curve" smooth="yes"/>
      <point x="182.86" y="1432.4" type="line"/>
      <point x="182.86" y="0.0" type="line"/>
      <point x="352.98" y="0.0" type="line"/>
      <point x="352.98" y="1022.64" type="line" smooth="yes"/>
      <point x="352.98" y="1079.68"/>
      <point x="346.66" y="1159.24"/>
      <point x="333.86" y="1216.28" type="curve"/>
      <point x="319.54" y="1153.2" type="line"/>
      <point x="1177.88" y="34.540000000000006" type="line" smooth="yes"/>
      <point x="1197.62" y="10.02"/>
      <point x="1216.28" y="0.0"/>
      <point x="1246.66" y="0.0" type="curve"/>
      <point x="1344.46" y="46.980000000000004" type="line"/>
      <point x="1344.46" y="1432.4" type="line"/>
      <point x="1174.34" y="1432.4" type="line"/>
      <point x="1174.34" y="416.08000000000004" type="line" smooth="yes"/>
      <point x="1174.34" y="354.56"/>
      <point x="1182.82" y="270.52"/>
      <point x="1195.62" y="209.0" type="curve"/>
    </contour>
    <contour>
      <point x="1344.46" y="214.66000000000003" type="line"/>
      <point x="1173.8" y="214.66000000000003" type="line"/>
      <point x="1173.8" y="-13.299999999999997" type="line" smooth="yes"/>
      <point x="1173.8" y="-155.04"/>
      <point x="1113.86" y="-223.89999999999998"/>
      <point x="1002.4" y="-223.89999999999998" type="curve" smooth="yes"/>
      <point x="951.6" y="-223.89999999999998"/>
      <point x="925.72" y="-209.38"/>
      <point x="909.16" y="-209.38" type="curve" smooth="yes"/>
      <point x="892.12" y="-209.38"/>
      <point x="876.32" y="-215.32"/>
      <point x="868.38" y="-244.92" type="curve"/>
      <point x="849.1" y="-322.12" type="line"/>
      <point x="907.22" y="-346.68"/>
      <point x="955.24" y="-357.84"/>
      <point x="1018.52" y="-357.84" type="curve" smooth="yes"/>
      <point x="1247.96" y="-357.84"/>
      <point x="1344.46" y="-211.18"/>
      <point x="1344.46" y="6.680000000000007" type="curve"/>
    </contour>
  </outline>
</glyph>
<glyph name="eng" format="2">
  <advance width="1116"/>
  <unicode hex="014B"/>
  <anchor x="563.04" y="-421" name="bottom"/>
  <anchor x="560.74" y="1120" name="top"/>
  <outline>
    <contour>
      <point x="319.78" y="0" type="line" name="n00"/>
      <point x="319.78" y="815.72" type="line"/>
      <point x="314.38" y="826.2" type="line"/>
      <point x="295.26" y="975.88" type="line" name="n03"/>
      <point x="288.78" y="1000.84"/>
      <point x="272.9" y="1012.4" name="n05"/>
      <point x="247.78" y="1012.4" type="curve" smooth="yes"/>
      <point x="141.34" y="1012.4" type="line" name="n07"/>
      <point x="141.34" y="0" type="line"/>
    </contour>
    <contour>
      <point x="984.74" y="645.28" type="line" smooth="yes" name="n09"/>
      <point x="984.74" y="875.12"/>
      <point x="867.94" y="1028.4"/>
      <point x="645.62" y="1028.4" type="curve" smooth="yes" name="n12"/>
      <point x="478.06" y="1028.4"/>
      <point x="360.9" y="937.64"/>
      <point x="263.5" y="810.92" type="curve"/>
      <point x="284.78" y="702.68" type="line"/>
      <point x="367.66" y="814.88"/>
      <point x="472.34" y="887.44"/>
      <point x="593.78" y="887.44" type="curve" smooth="yes" name="n19"/>
      <point x="736.22" y="887.44"/>
      <point x="806.3" y="797.4"/>
      <point x="806.3" y="645.28" type="curve" name="n22"/>
      <point x="806.3" y="645.28" type="line"/>
      <point x="806.3" y="-20.66" type="line" smooth="yes"/>
      <point x="806.3" y="-162.4"/>
      <point x="746.36" y="-231.26"/>
      <point x="634.9" y="-231.26" type="curve" smooth="yes"/>
      <point x="584.1" y="-231.26"/>
      <point x="558.22" y="-216.74"/>
      <point x="541.66" y="-216.74" type="curve" smooth="yes" name="n30"/>
      <point x="524.62" y="-216.74"/>
      <point x="508.82" y="-222.68"/>
      <point x="500.88" y="-252.28" type="curve" smooth="yes"/>
      <point x="481.6" y="-329.48" type="line"/>
      <point x="539.72" y="-354.04"/>
      <point x="587.74" y="-365.2"/>
      <point x="651.02" y="-365.2" type="curve" smooth="yes" name="n37"/>
      <point x="880.46" y="-365.2"/>
      <point x="984.74" y="-218.54"/>
      <point x="984.74" y="-0.68" type="curve" smooth="yes"/>
    </contour>
  </outline>
</glyph>
<glyph name="OE" format="2">
  <advance width="2180.58"/>
  <unicode hex="0152"/>
  <anchor x="1100.9" y="1511.66" name="Top"/>
  <anchor x="1100.9" y="1511.66" name="top"/>
  <anchor x="1210.04" y="-70.0" name="bottom"/>
  <outline>
    <contour>
      <point x="1366.94" y="716.2" type="curve" smooth="yes"/>
      <point x="1366.94" y="1145.24"/>
      <point x="1114.42" y="1448.4"/>
      <point x="732.34" y="1448.4" type="curve" smooth="yes"/>
      <point x="353.62" y="1448.4"/>
      <point x="96.34" y="1145.4"/>
      <point x="96.34" y="716.2" type="curve" smooth="yes"/>
      <point x="96.34" y="286.08"/>
      <point x="353.62" y="-14.16"/>
      <point x="732.34" y="-14.16" type="curve" smooth="yes"/>
      <point x="1114.42" y="-14.16"/>
      <point x="1366.94" y="286.08"/>
    </contour>
    <contour>
      <point x="1403.34" y="1432.4" type="line"/>
      <point x="1231.22" y="1432.4" type="line"/>
      <point x="1231.22" y="0.0" type="line"/>
      <point x="1403.34" y="0.0" type="line"/>
    </contour>
    <contour>
      <point x="1382.38" y="798.6800000000001" type="line"/>
      <point x="1382.38" y="647.08" type="line"/>
      <point x="1960.7" y="647.08" type="line"/>
      <point x="1960.7" y="798.6800000000001" type="line"/>
    </contour>
    <contour>
      <point x="1382.38" y="1432.4" type="line"/>
      <point x="1382.38" y="1275.4" type="line"/>
      <point x="2091.5" y="1275.4" type="line"/>
      <point x="2091.5" y="1432.4" type="line"/>
    </contour>
    <contour>
      <point x="1382.38" y="157.0" type="line"/>
      <point x="1382.38" y="0.0" type="line"/>
      <point x="2091.5" y="0.0" type="line"/>
      <point x="2092.42" y="157.0" type="line"/>
    </contour>
    <contour>
      <point x="1208.7" y="716.2" type="curve" smooth="yes"/>
      <point x="1208.7" y="363.2"/>
      <point x="1030.54" y="147.32000000000002"/>
      <point x="752.54" y="147.32000000000002" type="curve" smooth="yes"/>
      <point x="474.22" y="147.32000000000002"/>
      <point x="294.22" y="363.2"/>
      <point x="294.22" y="716.2" type="curve" smooth="yes"/>
      <point x="294.22" y="1068.12"/>
      <point x="474.22" y="1286.92"/>
      <point x="752.54" y="1286.92" type="curve" smooth="yes"/>
      <point x="1030.54" y="1286.92"/>
      <point x="1208.7" y="1068.12"/>
    </contour>
  </outline>
</glyph>
<glyph name="oe" format="2">
  <advance width="1746"/>
  <unicode hex="0153"/>
  <anchor x="881.28" y="-70" name="bottom"/>
  <anchor x="890.46" y="1120" name="top"/>
  <outline>
    <contour>
      <point x="535.96" y="1028.4" type="curve" smooth="yes" name="n00"/>
      <point x="262.84" y="1028.4"/>
      <point x="84.12" y="825.32"/>
      <point x="84.12" y="507.28" type="curve" smooth="yes" name="n03"/>
      <point x="84.12" y="188.16"/>
      <point x="262.84" y="-14.16"/>
      <point x="529.48" y="-14.16" type="curve" smooth="yes" name="n06"/>
      <point x="806" y="-14.16"/>
      <point x="970.08" y="188.16"/>
      <point x="970.08" y="507.28" type="curve" smooth="yes"/>
      <point x="970.08" y="825.32"/>
      <point x="806" y="1028.4"/>
    </contour>
    <contour>
      <point x="545.68" y="124.64" type="curve" smooth="yes" name="n12"/>
      <point x="358.32" y="124.64"/>
      <point x="267.96" y="265.72"/>
      <point x="267.96" y="506.2" type="curve" smooth="yes" name="n15"/>
      <point x="267.96" y="746.68"/>
      <point x="358.32" y="889.6"/>
      <point x="545.68" y="889.6" type="curve" smooth="yes" name="n18"/>
      <point x="731.04" y="889.6"/>
      <point x="821.4" y="746.68"/>
      <point x="821.4" y="506.2" type="curve" smooth="yes"/>
      <point x="821.4" y="265.72"/>
      <point x="731.04" y="124.64"/>
    </contour>
    <contour>
      <point x="1280.52" y="1028.4" type="curve" smooth="yes"/>
      <point x="1005.2" y="1028.4"/>
      <point x="854.4" y="809.88"/>
      <point x="854.4" y="527.28" type="curve" smooth="yes" name="n27"/>
      <point x="854.4" y="161.48"/>
      <point x="1040.52" y="-14.16"/>
      <point x="1278.04" y="-14.16" type="curve" smooth="yes"/>
      <point x="1416.04" y="-14.16"/>
      <point x="1567.64" y="35.16"/>
      <point x="1655.16" y="141.92" type="curve"/>
      <point x="1603.64" y="206.4" type="line"/>
      <point x="1596.24" y="217.04"/>
      <point x="1584.52" y="223.36"/>
      <point x="1570.8" y="223.36" type="curve" smooth="yes"/>
      <point x="1524.24" y="223.36"/>
      <point x="1456.92" y="125.72"/>
      <point x="1294.24" y="125.72" type="curve" smooth="yes"/>
      <point x="1113.28" y="125.72"/>
      <point x="996.6" y="257.28"/>
      <point x="996.6" y="527.28" type="curve" smooth="yes" name="n43"/>
      <point x="996.6" y="754.68"/>
      <point x="1091.72" y="898.24"/>
      <point x="1273.88" y="898.24" type="curve" smooth="yes"/>
      <point x="1421.96" y="898.24"/>
      <point x="1507.2" y="771.2"/>
      <point x="1507.2" y="596.56" type="curve" name="n49"/>
      <point x="961.28" y="596.56" type="line" name="n50"/>
      <point x="963.6" y="486.76" type="line" name="n51"/>
      <point x="1624.12" y="486.76" type="line" smooth="yes"/>
      <point x="1657.12" y="486.76"/>
      <point x="1665.44" y="501.56"/>
      <point x="1665.44" y="556.16" type="curve" smooth="yes" name="n55"/>
      <point x="1665.44" y="853.56"/>
      <point x="1498.92" y="1028.4"/>
    </contour>
  </outline>
</glyph>
<glyph name="Tbar" format="2">
  <advance width="1210"/>
  <unicode hex="0166"/>
  <anchor x="628.42" y="715.12" name="Slash"/>
  <anchor x="608.28" y="1511.66" name="Top"/>
  <anchor x="608.28" y="-70" name="bottom"/>
  <anchor x="608.28" y="1511.66" name="top"/>
  <outline>
    <component base="T" xOffset="14.6"/>
    <contour>
      <point x="181.74" y="738.36" type="line" name="n00"/>
      <point x="1028.66" y="738.36" type="line"/>
      <point x="1028.66" y="851.24" type="line"/>
      <point x="181.74" y="851.24" type="line" name="n03"/>
    </contour>
  </outline>
</glyph>
<glyph name="tbar" format="2">
  <advance width="725"/>
  <unicode hex="0167"/>
  <anchor x="401.82" y="715.12" name="Slash"/>
  <anchor x="297.04" y="500.14" name="bar"/>
  <anchor x="450.14" y="-70" name="bottom"/>
  <anchor x="318.72" y="1430.78" name="top"/>
  <outline>
    <component base="t" xOffset="2.92"/>
    <contour>
      <point x="64.12" y="579.44" type="line" name="n00"/>
      <point x="679.32" y="579.44" type="line"/>
      <point x="679.32" y="692.32" type="line"/>
      <point x="64.12" y="692.32" type="line" name="n03"/>
    </contour>
  </outline>
</glyph>
